<?xml version="1.0" encoding="UTF-8"?><svg id="a" xmlns="http://www.w3.org/2000/svg" viewBox="0 0 800 600.7"><path d="M241.16,135.69c.69-6.72,1.28-13.31,2.04-19.88,2.21-18.9,6.61-37.33,12.12-55.52,2.06-6.82,2.06-6.73,9.34-5.91,23.44,2.62,46.1,8.29,68,17.05,.88,.35,2.65,.19,3.15-.43,16.59-20.57,36.58-37.29,58.42-51.94q7.51-5.04,15.11,.03c22.15,14.78,34.46,25.77,59.23,52.88,6.27-2.22,12.52-4.59,18.87-6.65,18.22-5.9,36.88-9.71,55.95-11.47,1.95-.18,2.93,.24,3.57,2.25,5.78,18.1,10.36,36.48,12.81,55.34,1.04,8.01,1.85,16.04,2.79,24.29,4.85,.45,9.97,.87,15.08,1.4,20.92,2.16,41.17,7.21,60.92,14.32,.8,.29,1.68,1.85,1.64,2.79-.87,23.68-4.7,46.88-12.15,69.39-1.09,3.31-.61,4.93,1.98,7.25,22.43,20.11,40.7,43.58,55.44,69.82,.49,.87,.53,2.49,.05,3.35-13.91,24.8-30.51,47.59-51.04,67.39-2.11,2.03-4.21,4.09-6.48,5.92-1.33,1.07-1.33,2.04-.83,3.49,5.73,16.72,9.41,33.92,11.54,51.43,.9,7.35,1.06,14.78,1.61,22.17,.13,1.71-.43,2.59-2.14,3.19-20.74,7.26-41.94,12.6-63.79,15.17-3.96,.47-7.95,.65-12.09,.97-.66,5.85-1.25,11.64-1.97,17.41-2.48,19.76-7.29,38.98-13.51,57.87-.64,1.93-1.79,1.94-3.32,1.8-16.63-1.46-33.05-4.17-49.01-9.07-8.17-2.51-16.15-5.64-24.15-8.68-1.61-.61-2.4-.4-3.44,.82-18.1,21.18-39.58,38.39-62.99,53.31-1.65,1.05-2.77,1.04-4.41,.02-23.43-14.57-44.7-31.7-62.71-52.72-.56-.66-1.18-1.27-1.81-1.95-14.44,6.21-29.24,11-44.6,13.81-10.05,1.84-20.24,2.92-30.36,4.41-2.05,.3-2.86-.48-3.5-2.38-6.3-18.79-10.88-37.97-13.31-57.65-.68-5.51-1.25-11.03-1.91-16.85-3.18-.32-6.44-.66-9.71-.96-22.92-2.15-44.99-7.91-66.66-15.49-2.08-.73-1.97-2.03-1.91-3.61,.87-24.18,4.94-47.82,12.59-70.78,1.12-3.35,.63-5.12-2.04-7.51-18.68-16.71-33.96-36.28-47.41-57.34-2.88-4.51-5.49-9.2-8.35-13.72-.95-1.5-.95-2.61-.06-4.19,15.13-26.71,33.64-50.69,56.92-70.82,1.54-1.33,1.79-2.39,1.18-4.17-6.07-17.57-9.48-35.72-11.59-54.14-.64-5.62-.74-11.29-1.2-16.93-.14-1.7,.54-2.41,2.05-2.92,20.24-6.86,40.81-12.27,62.17-14.28,4.56-.43,9.11-.92,13.84-1.39Zm423.99,167.46c-14.04,0-27.4-.04-40.76,.08-1,0-2.23,1-2.94,1.88-5.01,6.22-9.67,12.74-14.92,18.74-4.4,5.02-9.47,9.46-13.84,13.75,6.48,10.44,12.67,20.39,18.96,30.52,20.94-18.58,38.34-40.31,53.5-64.97Zm-526.97-.01c15.51,24.31,32.61,46.38,53.34,64.88,6.32-10.13,12.54-20.1,18.86-30.24-10.9-9.69-20.54-20.87-28.69-33.35-.43-.67-1.57-1.23-2.39-1.24-13.46-.08-26.92-.05-41.12-.05Zm-.04-1.27c14.16,0,27.71,.03,41.26-.08,.9,0,2.09-.91,2.63-1.73,7.43-11.35,16.56-21.18,26.57-30.24,.7-.63,1.63-1.01,1.77-1.1-6.65-10.74-12.81-20.7-19.07-30.81-20.64,18.48-38.29,39.61-53.16,63.95Zm455.15-33.39c10.19,9.07,19.75,19.46,27.76,31.19,1.15,1.68,2.3,2.26,4.26,2.25,12.4-.08,24.8-.03,37.2-.04,.72,0,1.44-.11,2.49-.19-14.89-23.96-32.5-45.14-53.04-63.41-6.22,10.07-12.4,20.07-18.66,30.2Zm-51.54,98.29c2.96,12.32,5.84,24.3,8.76,36.44,18.84-5.62,36.41-14.36,52.05-26.86,.57-.46,.82-2.15,.44-2.83-4.43-7.89-8.97-15.73-13.6-23.5-1.28-2.15-2.97-4.05-4.51-6.12-13.33,10.18-27.75,17.75-43.14,22.86Zm-323.23-22.86c-7.74,9.65-13.83,20.09-18.96,31.23,16.18,13.21,34.28,22.18,53.52,28.05,2.85-12.4,5.62-24.45,8.4-36.52-15.81-5.38-25.91-10.71-42.95-22.75Zm-.16-81.52c13.63-10.18,28.32-18.02,43.73-23.14-2.89-12.05-5.69-23.74-8.57-35.75,.51,.15,.4,.08,.32,.1-19.39,5.6-36.99,14.75-53.03,26.92-.53,.4-.86,1.82-.57,2.44,4.83,10.47,10.88,20.19,18.12,29.43ZM457.49,86.55c-15.68-19.1-34.1-35.68-55.18-49.98,0,15.65-.03,30.67,.08,45.69,0,1.03,.89,2.29,1.73,3.04,5.17,4.6,10.45,9.08,15.68,13.62,3.07,2.66,6.11,5.34,8.78,7.68,9.17-6.35,18.92-13.12,28.92-20.05Zm146.21,144.85c-16.23-12.59-34.1-21.56-53.44-27.5-2.99,11.73-5.95,23.34-8.97,35.19,15.59,5.17,30.27,12.82,43.48,23.06,4.6-4.09,16.1-22.83,18.93-30.76ZM400.96,36.52c-20.93,14.73-39.42,31.1-54.94,50.18,9.89,6.86,19.6,13.59,29.47,20.44-.03,.02,.28-.2,.53-.48,7.22-8.1,14.95-15.63,23.86-21.91,.57-.4,1.03-1.41,1.03-2.14,.06-15.12,.04-30.23,.04-46.09Zm-.43,529.82c.25-.32,.35-.38,.35-.45,.04-15.42,.09-30.84,.04-46.25,0-.78-.66-1.75-1.3-2.31-2.94-2.56-6.09-4.88-8.97-7.51-4.81-4.38-9.47-8.92-13.71-12.93-10.11,7.12-20.14,14.19-30.19,21.27,15.42,18.5,33.6,34.32,53.76,48.18Zm1.75,.14c20.7-14.13,38.96-30.01,54.36-48.32-9.93-7.12-19.85-14.23-29.37-21.05-7.66,6.57-15.61,13.33-23.44,20.2-.78,.69-1.23,2.14-1.25,3.24-.18,9.47-.24,18.94-.29,28.42-.03,5.63,0,11.27,0,17.51Zm-98.14-149.08c.91,18.66,5.01,36.35,12.96,53.27,11.99-4.37,23.25-9.66,33.65-16.88-6.21-14.86-9.62-30.12-10.99-46.21-11.42,5.46-23.15,8.39-35.62,9.83Zm159.62-10.01c-1.44,16.2-4.63,31.56-10.68,46.18,6.87,5.46,24.82,14.46,33.33,16.77,6.37-9.77,14.09-41.93,12.64-53-12.17-1.34-23.9-4.62-35.29-9.95Zm-159.57-219.51c12.49,1.24,24.14,3.93,35.21,9.16,.18-.57,.32-.83,.34-1.1,.88-15.16,3.94-29.86,9.42-44.02,.67-1.73-.37-2.22-1.5-2.89-9.9-5.87-20.4-10.41-31.44-14.19-7.52,16.84-11.91,34.3-12.04,53.04Zm182.97-53.91c-10.57,5.12-20.78,10.08-31.02,14.98-1.76,.84-1.9,1.8-1.37,3.67,2.57,9.06,5.14,18.13,7.24,27.3,1.25,5.44,1.62,11.08,2.42,16.86,11.18-5.24,22.92-7.68,34.96-9.14-.56-18.64-4.31-36.09-12.23-53.68Zm-175.8,68.2c29.27,32.28,58.54,64.57,87.81,96.85-1.82-5.98-4.07-11.64-6.4-17.26-4.43-10.68-8.14-21.74-13.51-31.93-14.33-27.18-37.8-42.1-67.9-47.66Zm94.03,97.62c10.27-4.8,19.87-9.25,29.42-13.77,4.21-2,8.58-3.8,12.48-6.3,27.9-17.91,41.26-44.61,46.1-76.88-29.38,32.36-58.46,64.41-88,96.95Zm87.48,101.74c0-1.14,.11-1.92-.02-2.66-2.46-13.98-6.41-27.48-13.47-39.88-9.08-15.93-21.16-28.89-37.83-37.08-9.77-4.8-19.63-9.42-29.45-14.13-2.46-1.18-4.9-2.39-7.02-3.43,29.07,32.17,58.28,64.5,87.8,97.18Zm-95.19-102c-29.29-32.31-58.29-64.29-87.6-96.62,.45,2.68,.79,4.88,1.2,7.07,3.31,17.57,9.56,33.88,20.73,48.05,8.82,11.18,19.37,20.2,32.5,26.09,10.97,4.93,21.82,10.12,33.17,15.41Zm6.06-1.02l.53,.32c29.28-32.25,58.56-64.5,88.38-97.35-3.73,.95-6.74,1.61-9.68,2.47-30.04,8.8-51.83,26.83-63.47,56.41-4.38,11.12-9.2,22.06-13.8,33.09-.7,1.67-1.31,3.37-1.96,5.06Zm-4.14,7.52l-.57-.43c-29.22,32.42-58.45,64.83-87.76,97.35,.39,.11,.49,.17,.57,.15,26.67-5.74,48.6-18.88,63.51-42.09,4.57-7.12,7.56-15.3,10.96-23.12,4.59-10.55,8.87-21.23,13.29-31.86Zm-89.42,95.91c29.46-32.68,58.58-64.97,87.53-97.08-.73,.31-1.87,.74-2.96,1.27-7.62,3.67-15.26,7.3-22.83,11.05-6.18,3.07-12.72,5.66-18.34,9.56-26,18.08-38.86,43.98-43.4,75.2Zm93.65-96.79c.26,.99,.3,1.24,.39,1.47,4.94,12.14,10.17,24.17,14.77,36.43,8.21,21.91,22.84,38.03,43.14,49.25,9.38,5.18,19.33,8.78,30.4,10.98-29.67-32.82-58.93-65.19-88.7-98.13Zm122.42-1.38l-.27-.87h-119.81c-.07-.15-.03,.11,.1,.17,12.71,6.07,25.05,13.16,38.23,17.92,18.94,6.84,38.16,4.81,56.78-2.59,9.07-3.61,17.24-8.78,24.98-14.64Zm-249.4-.47c.89,.76,1.16,1.03,1.46,1.25,13.54,9.71,28.1,17.15,44.83,19.39,15.46,2.07,30.5,.88,44.69-6.4,6.92-3.55,14.02-6.76,21.05-10.09,2.87-1.37,5.78-2.67,8.99-4.15h-121.02Zm129.46-2.45v.73h119.78c-.38-.27-.62-.43-.85-.6-16.75-11.94-34.88-20.11-55.87-20.4-9.5-.13-19.01,.4-27.83,4.19-11.86,5.09-23.49,10.7-35.22,16.08Zm-9.06,1.04l.13-.51c-.71-.43-1.38-.92-2.13-1.27-9.23-4.34-18.5-8.58-27.69-13.01-14.45-6.98-29.66-7.63-45.15-5.47-15.92,2.22-29.69,9.58-42.71,18.59-.67,.46-1.26,1.05-2,1.67h119.54Zm140.7-53.73c-6.39,11.42-12.6,22.5-18.58,33.2,7.39,5.11,15.04,10.46,22.79,15.66,.65,.44,2.23,.21,2.95-.31,5.94-4.26,11.98-8.41,17.58-13.08,5.43-4.53,10.37-9.65,15.69-14.67-12.84-9.43-26.17-16.48-40.43-20.8Zm40.29,89.06c-9.27-10.35-19.17-19.26-30.32-26.74-4.54-3.05-4.5-2.94-8.98,.24-6.39,4.54-12.88,8.94-18.82,13.05,6.09,11.15,12.22,22.38,18.54,33.97,13.89-4.43,27.09-11.44,39.57-20.52Zm-353.06-.16c12.61,9.15,25.74,16.36,39.64,20.54,6.39-11.71,12.51-22.94,18.42-33.78-7.04-4.95-14.57-10.27-22.18-15.49-.54-.37-1.82-.18-2.46,.22-12.37,7.77-23.21,17.35-33.42,28.51Zm40.1-88.64c-14.16,4.37-27.45,11.35-39.91,20.47,10.36,11.52,21.99,20.89,34.4,28.93,8.28-5.52,16.42-10.93,23.95-15.95-6.07-11.01-12.16-22.04-18.45-33.45Zm137.19,48.89l.5-.06c.38-1.17,.67-2.38,1.14-3.51,4.27-10.43,8.54-20.85,12.85-31.25,2.76-6.66,5.25-13.34,5.69-20.68,1.24-20.68-4.84-39.18-16.33-56.13-1.11-1.64-2.3-3.24-3.85-5.44v117.08Zm-.09,124.65c10.18-12.63,17.27-26.48,19.54-42.38,1.48-10.39,1.73-20.81-2.3-30.85-5.4-13.44-10.8-26.88-16.21-40.31-.22-.55-.58-1.04-1.02-1.81v115.35Zm-1.53-123.92v-116.71l-.64-.45c-.14,.37-.22,.78-.44,1.09-8.24,11.62-14.71,24.07-17.46,38.17-2.45,12.61-2.77,25.14,2.21,37.34,3.19,7.82,6.39,15.65,9.56,23.48,2.23,5.52,4.4,11.07,6.77,17.07Zm.05,124.73v-115.29c-.25,.18-.45,.25-.51,.38-5.09,12.4-10.06,24.85-15.29,37.19-5.09,12.03-5.45,24.4-3.18,37,2.7,14.99,9.55,28.08,18.97,40.72Zm45.28-267.72c-10.69,6.51-19.37,13.83-27.16,22.26-1.22,1.33-1.18,2.15-.4,3.73,3.92,7.91,7.82,15.84,11.31,23.94,1.65,3.83,2.37,8.06,3.37,11.58,6.8-4.76,13.67-9.5,20.44-14.39,.72-.52,1.24-1.93,1.15-2.87-.49-5.62-.75-11.31-1.91-16.81-1.91-9.08-4.43-18.03-6.8-27.44Zm-88.18,.53c-.4,.95-.68,1.56-.91,2.19-4.44,12.34-6.96,25.09-8.31,38.12-.4,3.86,.53,6.19,4.17,8.36,6.15,3.67,11.71,8.31,17.63,12.62,.43-1.84,.89-3.9,1.4-5.96,2.65-10.58,7.24-20.32,12.81-29.63,.76-1.27,1.27-2.23,.01-3.58-7.87-8.49-16.77-15.7-26.8-22.12Zm-49.35-29.27c7.2-12.06,14.34-24.02,21.49-36.01-18.31-8.07-37.76-13.28-58.36-16.56,12.58,17.94,24.87,35.46,36.87,52.57Zm61.59,261.06c-6.16,4.5-12.33,9.26-18.78,13.59-2.21,1.48-3.06,2.92-2.62,5.39,1.57,8.8,2.86,17.66,4.77,26.39,1.17,5.33,3.27,10.46,5.03,15.94,10.14-6.78,18.82-14.26,26.18-23.21,.48-.58,.33-2.1-.07-2.92-2.95-6.02-6.4-11.81-8.98-17.98-2.34-5.62-3.78-11.61-5.53-17.2ZM473.57,90.07c7.22,12.19,14.29,24.12,21.32,35.99,11.92-16.97,24.17-34.43,36.74-52.33-20.55,3.29-39.99,8.18-58.06,16.33Zm-28.7,358.39c5.5-14.49,8.71-29.14,9.85-44.25,.06-.82-.93-1.96-1.73-2.56-5.06-3.79-10.23-7.45-15.32-11.2-1.58-1.17-3.05-2.5-4.79-3.95-2.42,13.96-7.89,26.2-15.24,37.6,7.84,9.6,17.01,17.26,27.22,24.36Zm98.28,6.42c1.14-13.57,.73-26.61-1.29-39.13-11.31,1.01-22.22,1.98-32.93,2.94-1.25,9.91-2.51,19.9-3.79,30.06,12.19,3.79,24.84,5.92,38.01,6.14Zm-11.73,76.24c-12.93-17.84-25.4-35.05-37.51-51.76-7.03,11.7-14.03,23.35-21.12,35.15,18.35,8.11,37.9,13.28,58.62,16.61Zm-221.49-51.52c-12.22,16.76-24.74,33.91-37.55,51.48,20.7-3.54,40.51-8.12,58.76-16.51-7.13-11.76-14.21-23.43-21.21-34.97Zm-48.16-63.92c-2.01,12.74-1.79,25.82-1.23,39.2,13.41-.43,26.05-2.46,38.02-6.2-1.43-10.33-2.82-20.3-4.16-29.96-10.68-.99-21.48-2-32.62-3.03Zm-66.55-31.77c-7.2,19.07-10.29,38.6-12.91,58.92,16.95-12.46,33.46-24.59,50.26-36.94-13.51-5.81-25.84-12.77-37.35-21.98Zm426.14,58.8c-2.73-20.42-6.05-39.86-12.96-58.25-6.26,4.08-12.06,8.2-18.18,11.76-6.15,3.58-12.63,6.62-19.03,9.93,16.52,12.04,33.1,24.11,50.18,36.56ZM483.47,125.79c-5.34-11.08-11.73-21.45-19.43-31.09-10.81,5.84-20.78,12.33-29.4,19.98,5.46,9.05,10.72,17.77,15.9,26.35,5.22-2.69,10.5-5.61,15.96-8.14,5.45-2.53,11.09-4.66,16.97-7.09Zm-143.82,384.22c11.74-5.99,21.9-12.7,30.5-20.86-5.47-8.87-10.76-17.43-15.7-25.45-10.94,5.35-21.91,10.72-33.51,16.39,6.07,9.71,12.3,19.66,18.71,29.92Zm124.25,.25c6.38-10.26,12.71-20.44,18.78-30.2-11.62-5.72-22.56-11.11-33.32-16.41-4.95,8.14-10.17,16.74-15.53,25.55,8.58,8.26,18.62,14.98,30.06,21.06Zm-110.63-369.67c5.05-8.44,10.22-17.07,15.81-26.43-9.56-6.5-19.27-13.09-29.07-19.76-8.07,10.13-14.36,20.45-19.46,31.04,11.13,5.15,22.03,10.2,32.71,15.14Zm-122.52,60.5c-15.68-11.22-31.95-22.85-48.59-34.76,2.72,19.43,5.85,38.33,12.48,55.78,12.27-7.14,24.4-14.21,36.11-21.03Zm390.3-34.7c-16.56,11.99-32.73,23.71-49,35.49,12.92,5.58,25.04,12.43,36.25,21.31,7.06-18.46,10.23-37.39,12.75-56.8Zm-112,20.68c10.89,1.35,21.65,2.68,32.69,4.05,1.84-12.02,2.43-24.38,1.53-37.08-12.79,.27-25.16,1.76-37.12,4.89,.99,9.59,1.95,18.94,2.9,28.14Zm23.67,183.03c-11.5,1.27-22.01,2.43-31.85,3.52,2.52,11.37,5.09,22.98,7.71,34.82,9.73,.45,19.89-.46,29.98-2.31,1.62-.3,2.1-1.12,1.82-2.64-.4-2.2-.65-4.44-1.17-6.61-2.15-9.05-4.38-18.09-6.5-26.77ZM261.28,190.92c11.79-1.36,22.58-2.6,33.13-3.82,1-9.3,2-18.64,3.01-28.16-11.99-3.15-24.34-4.72-37.63-4.8,.51,12.57,1,24.7,1.49,36.78Zm9.87,179.13c-3.92,11.26-6.67,23.09-8.07,35.27,.74,.29,1.18,.58,1.64,.62,9.68,.87,19.36,1.69,29.04,2.56,2.01,.18,2.04-1.1,2.27-2.55,1.1-6.8,2.12-13.62,3.54-20.36,.86-4.1,2.39-8.07,3.51-11.71-10.63-1.27-21.13-2.53-31.93-3.83Zm228.65-138.27c10.08,1.45,20.07,2.93,30.07,4.26,.69,.09,1.95-.77,2.21-1.46,1.31-3.45,2.58-6.94,3.47-10.51,1.89-7.51,3.53-15.07,5.33-22.83-11.31-2.52-22.1-4.15-33.29-3.76-1.2,12.13-3.38,23.83-7.79,34.31Zm-237.09-30.54c2.87,11.87,5.67,23.42,8.39,34.67,11.31-1.31,21.86-2.54,31.76-3.69-2.54-11.37-5.13-22.96-7.78-34.81-10.37-.15-21.11,1.1-32.37,3.82Zm216.76,136.25c-.08-.13,.12,.29,.4,.65,5.99,7.38,11.06,15.31,15.03,23.96,.39,.84,1.92,1.68,2.88,1.65,6.43-.23,12.87-.54,19.27-1.16,3.92-.38,7.78-1.35,11.87-2.09-5.09-11.79-10.77-22.66-17.87-31.73-10.87,3-21.14,5.83-31.59,8.72Zm-204.63,22.63c.54,.27,.93,.58,1.38,.68,9.86,2.04,19.82,3.14,29.89,2.96,.89-.02,2.03-1.19,2.59-2.11,3.83-6.31,7.48-12.74,11.31-19.05,1.23-2.02,2.81-3.83,4.42-5.98-10.65-1.17-20.37-4.11-29.84-8.01-.68-.28-2.15,.07-2.57,.63-7.05,9.51-12.65,19.82-17.18,30.87Zm33.16-231.37c-15.37-3.93-30.45-7.78-46.07-11.77-.88,9.71-1.67,18.49-2.5,27.68,14.31-.41,27.67,1.83,40.68,5.21,2.62-7.02,5.13-13.73,7.89-21.12Zm-33.04,116.63c5.06,11.84,10.73,22.62,17.93,31.55,10.85-3.11,21.12-6.06,30.53-8.76-4.62-7.81-9.51-16.19-14.56-24.46-.5-.83-1.94-1.59-2.91-1.55-6.33,.26-12.66,.6-18.95,1.21-3.93,.38-7.81,1.29-12.04,2.01Zm228.6-95.43c13.15-3.94,26.62-5.29,40.64-5.55-.91-9.18-1.76-17.85-2.7-27.31-15.64,3.93-30.72,7.73-45.9,11.54,2.81,7.53,5.31,14.24,7.95,21.32Zm24.39,95.29c-10.71-2.18-21.14-3.31-31.69-3.07-.73,.02-1.61,1.1-2.11,1.88-4.77,7.56-9.48,15.16-14.2,22.76-.37,.59-.73,1.19-.69,1.13,10.36,2.93,20.58,5.82,31.05,8.78,6.9-9.46,12.94-19.92,17.64-31.49Zm-226.59,212.49c-13.56,4.46-27.49,6.26-41.87,7.04,.99,9.11,1.93,17.76,2.96,27.14,16.08-5.12,31.38-9.99,46.78-14.88-2.79-6.85-5.28-12.94-7.87-19.29Zm239.82,34.42c1.04-9.79,1.97-18.52,2.92-27.47-14.63-.49-28.39-2.68-41.78-6.78-2.56,6.27-5.01,12.27-7.77,19.03,15.28,4.99,30.56,9.98,46.63,15.23Zm-7.51-417.52l-.91,.03c-12.33,17.58-24.66,35.16-36.72,52.35,14.87-3.73,29.88-7.5,45.57-11.45-2.64-13.62-5.29-27.28-7.94-40.94Zm36.67,332.65c3.33,15.35,6.62,30.48,9.96,45.85,13.52-2.01,27.07-4.61,40.69-8.87-17.15-12.53-33.88-24.74-50.64-36.98ZM261.96,115.45c15.83,4.05,30.79,7.87,45.52,11.64-12.18-17.33-24.52-34.89-36.86-52.45l-.79,.02c-2.63,13.61-5.26,27.23-7.88,40.79Zm-38.75,338.11c3.42-16.01,6.64-31.05,9.9-46.27-16.68,12.28-33.27,24.49-49.86,36.7l-.06,.97c13.4,2.88,26.8,5.77,40.02,8.61Zm9.97-252.57c-3.45-15.48-6.74-30.2-10.04-44.98-13.6,2.01-27.16,4.03-40.93,8.6,17.27,12.33,33.9,24.2,50.97,36.38Zm347.3-45.42c-3.33,15.38-6.53,30.19-9.85,45.52,16.87-12.21,33.49-24.23,50.1-36.25l-.32-1.28c-13.4-2.68-26.8-5.37-39.93-8ZM224.65,453.55c9.38,.75,17.97,1.44,26.8,2.14-1.49-14.6-.82-28.54,1.16-42.46-5.87-1.98-11.6-3.9-17.95-6.04-3.32,15.37-6.59,30.52-10.01,46.35Zm328.84,2.06c7.95-.63,16.41-1.31,25.46-2.03-3.47-15.91-6.78-31.13-10.11-46.4-6.36,2.14-11.96,4.03-16.93,5.71,.52,14.19,1.04,28.08,1.58,42.73Zm-.72-301.95c.18,3.52,.56,6.25,.4,8.96-.58,9.71-1.37,19.42-1.97,29.13-.06,.9,.5,2.43,1.15,2.68,5.42,2.08,10.92,3.92,16.96,6.03,3.19-14.81,6.35-29.47,9.66-44.81-9.09-.69-17.47-1.33-26.21-1.99Zm-243.94,324.99c-15.44,4.91-30.74,9.77-46.44,14.76,2.54,12.39,5.08,24.79,7.62,37.19l.87,.03c12.66-17.34,25.32-34.68,37.94-51.98ZM224.58,155.67c3.36,15.15,6.58,29.67,9.86,44.49,6.56-2.33,12.44-4.42,17.69-6.28-.64-13.59-1.27-26.75-1.91-40.28-8.14,.66-16.55,1.33-25.64,2.07ZM495.22,478.71c12.35,17.05,24.93,34.41,37.51,51.77,.33,0,.66-.02,.98-.03,2.5-12.39,5.01-24.77,7.45-36.86-15.81-5.12-30.98-10.04-45.94-14.89Zm-83.39-309.02c9.9-7.99,19.79-15.96,30.19-24.35-4.57-7.56-9.46-15.65-14.63-24.22-8.21,12.01-15.86,23.18-23.44,34.39-.38,.57-.57,1.74-.24,2.23,2.77,4.23,5.67,8.37,8.13,11.94Zm-11.39-12.84c-7.98-11.67-15.92-23.29-24.39-35.67-5.2,8.71-10.05,16.83-14.51,24.3,10.55,8.51,20.36,16.42,30.15,24.31,2.7-3.99,5.64-8.34,8.75-12.94Zm27.14,324.79c4.57-8.03,8.74-15.26,12.76-22.57,.33-.6-.02-2.16-.57-2.55-9.87-7.02-19.24-14.62-27.55-23.89-2.64,3.88-5.01,7.66-7.71,11.2-1.39,1.83-1.2,3.08,.02,4.82,6.23,8.84,12.35,17.76,18.52,26.65,1.26,1.82,2.57,3.61,4.53,6.35Zm-51.17-.02c8.48-12.36,16.35-23.81,24.2-35.26-3.07-4.53-6.05-8.93-8.67-12.8-9.7,8.25-19.24,16.36-29.34,24.95,4.25,7.12,8.81,14.75,13.81,23.11Zm-159.96-150.28c11.03-9.83,21.29-18.96,31.18-27.77h-54.27l-.52,.89c7.95,9.05,15.9,18.1,23.61,26.88Zm369.77-.54c7.47-6.01,21.58-22.24,23.7-27.5h-54.24c10.01,9.01,20.16,18.16,30.54,27.5Zm24.35-28.75c-7.54-10.55-15.59-19.46-24.36-27.04-10.66,9.35-21.04,18.45-30.84,27.04h55.19Zm-417.73-1.09l.76,1.41c18.31,0,36.61,0,54.92,0,.15,0,.3-.14-.02,.02-10.39-9-20.91-18.12-32.08-27.8-7.69,8.6-15.64,17.49-23.58,26.38ZM403.25,96.6l-.67,.74v57.41c8.04-11.71,15.79-23,23.89-34.81-7.78-7.82-15.5-15.58-23.23-23.34Zm-.75,351.39v57.59c9.02-7.01,16.99-14.47,23.63-23.21-7.86-11.43-15.56-22.65-23.63-34.38Zm-1.7-293.25v-57.66c-6.09,3.68-20.66,18.57-23.26,23.73,7.63,11.13,15.28,22.28,23.26,33.93Zm0,293.96c-7.93,11.54-15.5,22.56-23.48,34.16,7.65,7.69,15.22,15.3,22.8,22.92l.68-.5v-56.58Z"/></svg>