<?xml version="1.0" encoding="UTF-8"?><svg id="a" xmlns="http://www.w3.org/2000/svg" viewBox="0 0 800 600.7"><path d="M555.24,466.76c-2.11,14.7-6.88,28.34-13.69,41.26-2.4,4.55-5.17,8.91-8.02,13.19-.79,1.19-2.34,2.32-3.73,2.62-22.33,4.81-44.64,5-66.84-.8-1.77-.46-2.82-.22-4.08,1.18-14.59,16.21-31.78,28.98-51.17,38.99-5.99,3.09-11.03,3.46-17.22,.19-19.03-10.06-35.97-22.71-50.53-38.51-1.74-1.89-3.07-2.35-5.64-1.68-14.64,3.83-29.55,5.12-44.62,3.7-7.07-.67-14.11-1.77-21.11-2.99-1.62-.28-3.51-1.57-4.41-2.95-10.01-15.36-17.33-31.92-20.62-50.02-.67-3.71-2.32-4.43-5.41-5.03-18.86-3.68-35.96-11.43-51.38-22.84-1.34-.99-2.44-2.9-2.8-4.56-4.91-22.43-4.84-44.83,.91-67.12,.44-1.7-.28-2.57-1.39-3.56-16.41-14.79-29.68-32.03-39.78-51.64-4.98-9.67-4.93-6.78-.32-16.49,9.9-20.89,23.51-39.19,40.05-55.3,1.6-1.55,2.02-2.86,1.45-5.03-4.7-17.91-5.57-36.08-3.33-54.42,.59-4.83,1.35-9.65,2.28-14.42,.26-1.32,1.14-2.89,2.22-3.63,16.53-11.3,34.6-18.92,54.45-21.99,1.82-.28,2.6-.96,3-2.62,3.97-16.29,11.16-31.15,20.4-45.04,.92-1.39,2.71-2.68,4.32-3.06,21.51-5,43.1-5.12,64.66-.36,2.18,.48,3.4-.03,4.85-1.56,16.42-17.4,35.49-31.08,57.44-40.7,2.49-1.09,4.67-1.16,7.2-.05,22.36,9.85,41.76,23.83,58.47,41.63,.64,.68,2.1,1,3.1,.88,8.63-1.05,17.23-2.47,25.88-3.34,11.09-1.12,22.04,.6,33.05,1.89,7.23,.85,11.42,4.36,14.83,10.5,6.94,12.5,13.13,25.23,16.55,39.18,.45,1.82,1.31,2.4,3.22,2.67,15.17,2.2,29.32,7.47,42.71,14.84,3.52,1.94,6.84,4.25,10.36,6.21,2.5,1.39,3.31,3.57,3.79,6.17,4.26,22.98,4.36,45.84-1.56,68.6-.23,.88,.3,2.35,.99,3.02,17.3,16.87,31.13,36.18,41.55,57.99,2.05,4.28,1.99,7.89-.12,12.16-10.2,20.59-23.88,38.5-40.74,54.03-1.2,1.11-1.76,1.9-1.29,3.74,4.54,17.83,5.64,35.88,3,54.11-.63,4.35-1.37,8.69-2.34,12.98-.32,1.41-1.23,3.03-2.37,3.87-15.65,11.57-32.99,19.44-52.1,23.31-1.28,.26-2.56,.49-4.11,.79Zm-128.48-225.67c1.29-1.17,2.64-2.28,3.86-3.52,8.55-8.75,18.62-15.03,30.4-18.35,7.36-2.08,14.84-3.76,22.25-5.67,4.1-1.05,8.17-2.2,12.46-3.35-2.03,7.86-4.02,15.43-5.93,23.02-3.21,12.79-7.46,25.13-16.13,35.4-3.3,3.91-7.01,7.49-10.53,11.21,.33,0,.7,0,1.05,.01-.98,.55-1.96,1.11-3.55,2,1.94-.09,3.23-.25,4.5-.19,5.97,.28,12,.2,17.89,1.04,10.24,1.46,19.48,5.82,28.29,11.08,7.45,4.45,14.86,8.98,22.34,13.5-2.73,1.66-5.37,3.22-7.97,4.85-6.74,4.23-13.38,8.62-20.2,12.7-8.61,5.15-17.91,8.59-27.95,9.37-5.47,.43-11,.08-16.59,.08,.58,.45,1.06,.82,1.54,1.19-.35,.02-.7,.05-.49,.03,4.3,4.9,9.11,9.78,13.23,15.19,7.98,10.48,11.59,22.95,15.13,35.4,1.82,6.41,3.65,12.82,5.41,18.98-8.74-2.05-17.43-4.22-26.18-6.12-15.74-3.43-29.75-9.98-40.85-21.99-1.29-1.4-2.59-2.8-4.2-4.53,0,1.31-.08,2.07,.01,2.8,1.81,13.79-.47,26.99-6.75,39.27-5.87,11.49-12.51,22.58-18.81,33.86-5.5-9.44-11.03-18.76-16.38-28.18-4.47-7.87-7.6-16.27-9.08-25.22-1.24-7.49-1.21-15-.35-22.64-.71,1.54-1.42,3.08-2.14,4.62l-.19-2.49c-.98,1.29-1.48,2.09-2.11,2.77-8.88,9.6-19.71,16.1-32.29,19.46-11.44,3.05-22.99,5.64-34.8,8.51,3.06-10.5,5.93-21.01,9.19-31.4,3.33-10.62,8.12-20.55,15.62-28.95,2.75-3.09,5.59-6.1,7.88-8.6-1.24,.56-3.2,1.61-5.26,2.38-11.81,4.41-19.68,12.98-25.43,23.85-4.64,8.78-6.95,18.32-9.32,27.86-1.28,5.15-2.62,10.29-3.93,15.44l-.58-.13c.12-1.24,.23-2.48,.36-3.82-16.47,6.99-23.85,24.38-22.77,39.41,9.96-.29,19.81-1.37,27.66-8.2,3.82-3.33,6.89-7.64,9.8-11.85,3.13-4.54,7.13-7.01,12.49-8.22,8.46-1.91,16.98-3.89,25.12-6.81,12.81-4.59,22.63-12.72,26.85-26.33,.33-1.07,1.19-1.98,1.81-2.96-2.83,6.91-4.56,14.1-4.59,21.56-.06,12.45,3.96,23.66,10.56,34.13,6.08,9.66,11.9,19.49,17.72,29.32,1.46,2.46,2.49,5.17,3.61,7.55,4.52-7.91,8.9-15.81,13.51-23.58,4.34-7.32,9.54-14.2,13.25-21.82,7.22-14.86,8.78-30.25,1.64-45.79-.29-.64-.42-1.35-.62-2.03,1.44,1.99,2.55,4.12,3.4,6.35,3.31,8.74,9.44,14.94,17.33,19.61,8.83,5.22,18.51,8.14,28.52,9.68,8.52,1.31,15.12,4.76,19.41,12.54,1.59,2.89,4.02,5.46,6.5,7.69,8.33,7.47,18.55,8.97,29.22,9.03,1.54-16.15-9.74-35.45-22.81-39.24v3.42c-1.75-4.78-3.12-9.62-4.41-14.48-2.81-10.57-5.48-21.19-11.08-30.76-5.29-9.04-12.18-16.31-22.06-20.45-2.72-1.14-5.22-2.78-7.83-4.19,1.2,.43,2.46,.75,3.6,1.31,6.58,3.25,13.51,5.06,20.85,4.65,7.54-.42,14.87-2.21,21.55-5.71,5.45-2.85,10.61-6.29,15.74-9.7,9.53-6.35,18.95-12.87,28.33-19.26-2.11-1.22-4.8-2.65-7.36-4.29-9.37-6.01-18.47-12.49-28.11-18.05-15.01-8.65-30.9-12.13-47.87-5.84-1.61,.6-3.33,.93-4.99,1.39,2.04-.88,4.12-1.68,6.11-2.66,2.59-1.28,5.26-2.48,7.64-4.09,9.03-6.1,15.09-14.69,18.59-24.77,3.09-8.88,5.08-18.14,7.46-27.26,1.36-5.2,2.54-10.45,3.8-15.68l.7,.14c-.21,1.74-.42,3.48-.65,5.43,18.12-8.06,24.17-27.51,22.26-40.91-2.03,.22-4.08,.39-6.11,.67-9.17,1.27-17.55,4.31-23.51,11.77-2.84,3.56-5.1,7.61-7.42,11.55-2.83,4.81-6.75,7.7-12.31,8.87-7.39,1.56-14.83,3.18-21.96,5.61-10.65,3.63-20.08,9.36-25.98,19.43-2.3,3.94-4.06,8.19-6.07,12.3,.48-1.6,1.05-3.17,1.41-4.8,1.1-5.09,2.83-10.17,3.03-15.31,.47-12.52-3.85-23.85-10.03-34.57-6.16-10.69-12.29-21.41-18.26-32.21-1.62-2.94-2.62-6.22-4.15-9.92-4.99,15.14-13.64,27.65-21.54,40.57-1.75,2.87-3.38,5.85-4.7,8.93-4.82,11.21-7.51,22.78-4.81,35.01,.86,3.89,2.22,7.68,3.35,11.51-.95-1.9-1.87-3.82-2.87-5.69-1.66-3.13-3.06-6.46-5.11-9.31-5.44-7.56-13.06-12.48-21.72-15.32-8.58-2.82-17.49-4.66-26.28-6.85-3.51-.87-6.48-2.54-8.48-5.56-1.86-2.8-3.58-5.71-5.22-8.65-7.47-13.35-19.77-17.39-33.97-17.94-2.52,16.06,9.47,37.43,22.83,40.69-.27-1.97-.54-3.9-.81-5.82,.86,1.03,1.33,2.14,1.59,3.29,1.91,8.48,3.75,16.96,5.66,25.44,2.79,12.4,7.24,24.01,16.04,33.53,5.98,6.47,13.61,10.06,21.89,12.54-11.23-9.34-18.99-20.96-23.1-34.9-2.35-7.98-4.27-16.09-6.39-24.14-.94-3.55-1.91-7.1-2.8-10.43,8.49,2.04,16.74,4.07,25.02,6,12.25,2.85,23.94,6.96,33.66,15.3,3.68,3.16,7.03,6.72,10.53,10.09,.65,.92,1.31,1.84,2.16,3.04-.33-3.32-.82-6.19-.86-9.06-.16-11.89,2.27-23.31,7.57-33.91,4.67-9.36,10.02-18.38,15.04-27.56,1.14-2.09,2.19-4.22,3.18-6.13,5.04,8.77,10.06,17.42,15.01,26.11,7.49,13.17,12.09,27.13,11.48,42.48-.09,2.28-.38,4.56-.61,7.25,.97-1.21,1.65-2.06,2.33-2.92Zm90.95,66.42c-4.29-2.64-8.26-5.11-12.27-7.53-15.3-9.23-31.72-12.91-49.34-9.13-7.19,1.55-14.12,4.27-21.24,6.23-4.23,1.16-8.56,1.98-12.89,2.67-.89,.14-2.39-.73-2.83-1.55-.31-.6,.5-2.02,1.13-2.81,.61-.77,1.58-1.33,2.49-1.8,5.81-3.01,11.6-6.08,17.49-8.92,13.32-6.43,24.38-15.38,31.99-28.23,5.32-8.98,7.8-18.99,10.3-28.98,.42-1.68,.8-3.36,1.35-5.67-8.18,2.16-15.88,3.8-23.32,6.25-18.61,6.14-30.67,19.37-38.98,36.67-3.27,6.81-7.33,13.25-11.23,19.73-.53,.89-2.26,1.06-3.44,1.56-.4-1.21-1.37-2.56-1.1-3.59,1.63-6.13,3.25-12.3,5.45-18.24,3.55-9.59,5.72-19.37,5.75-29.62,.06-18.53-8.92-33.61-18.48-48.91-2.6,4.59-4.99,8.91-7.47,13.18-12.2,20.99-12.95,42.69-4.48,65.15,2.2,5.83,3.55,11.98,5.33,17.97,.5,1.7,.46,3.28-1.31,4.1-1.98,.91-2.98-.68-3.75-2.04-3.83-6.74-7.92-13.37-11.28-20.34-8.84-18.35-22.16-31.42-42.15-36.89-6.24-1.71-12.56-3.13-19.27-4.79,1.4,5.66,2.67,10.73,3.92,15.8,3.75,15.13,11.3,27.83,23.66,37.57,6.47,5.1,13.68,8.75,21.15,12.1,4.68,2.1,9.11,4.78,13.49,7.45,.96,.58,1.27,2.23,1.88,3.39-1.18,.5-2.34,1.07-3.56,1.46-.49,.16-1.13,0-1.66-.14-6.59-1.75-13.14-3.66-19.77-5.26-7.07-1.71-14.14-3.8-21.33-4.59-19.93-2.18-36.21,6.95-52.12,17.99,6.02,3.63,11.83,7.2,17.71,10.64,14.8,8.65,30.66,9.97,47.01,6.02,7.16-1.73,14.05-4.56,21.12-6.7,3.21-.97,6.54-1.59,9.86-2.08,.82-.12,2.19,.68,2.61,1.44,.32,.58-.3,1.89-.83,2.65-.51,.73-1.37,1.28-2.18,1.74-5.87,3.31-11.65,6.78-17.67,9.79-6.92,3.46-13.36,7.53-19.13,12.71-14.62,13.12-19.49,31.03-24.39,49.23,3.64-.74,7.07-1.52,10.53-2.13,25.59-4.53,43.26-18.82,53.49-42.71,2.45-5.73,6.03-10.98,9.2-16.39,.77-1.31,1.69-3.07,3.7-2.16,1.99,.9,1.68,2.76,1.19,4.42-2.03,7-3.88,14.06-6.23,20.95-4.6,13.47-6.58,27.12-3.54,41.19,2.75,12.78,9.97,23.46,16.64,34.57,2.46-4.17,4.77-8.24,7.23-12.22,12.25-19.85,13.9-40.69,6.25-62.57-2.56-7.31-4.51-14.84-6.72-22.27-.49-1.66-.47-3.32,1.34-4.1,1.74-.75,2.83,.43,3.61,1.83,3.36,6.05,7.02,11.95,9.94,18.21,3.72,7.97,8.15,15.36,14.1,21.86,13.05,14.27,30.69,17.96,48.74,21.46-.9-3.12-1.84-5.96-2.52-8.86-6.16-26.02-21.12-44.62-45.89-55.27-4.94-2.12-9.41-5.39-13.94-8.37-.98-.64-1.97-2.5-1.72-3.5,.46-1.88,2.38-1.78,4.01-1.29,7.08,2.09,14.21,4,21.21,6.35,14.12,4.74,28.35,6.22,42.78,1.77,11.06-3.41,20.37-10.17,30.37-16.45Zm-83.63-86.05c5.6-6.59,11.81-11.46,19.22-13.92,6.3-2.09,9.83-6.25,12.62-11.66,.17-.33,.39-.64,.56-.97,10.98-20.96,10.14-41.27-3.3-60.92-1.15-1.69-2.45-2.27-4.45-2.08-6.1,.58-12.05,1.75-17.56,4.53-11.66,5.88-21.01,13.97-25.36,26.8-1.21,3.56-1.41,6.84,1.17,10.01,1.52,1.87,2.56,4.14,3.9,6.17,8.27,12.53,13.51,26.02,13.19,42.06Zm-71.11-1.33c1.1-6.41,1.92-12.98,3.41-19.4,2.41-10.42,8.51-19.09,14.28-27.82,1.9-2.88,2.16-5.41,1.24-8.63-4.79-16.65-24.26-31.41-42.74-32.37-2.5-.13-3.97,.74-5.35,2.66-6.85,9.55-9.9,20.32-10.06,31.91-.17,12.78,4.09,24.2,11.25,34.68,1.5,2.19,3.17,3.62,5.71,4.48,8.75,2.97,16.38,7.76,22.25,14.49Zm120.27,52.53c16.76-.63,29.91,4.34,40.88,12.59,5.34,4.01,9.91,3.68,15.15,1.07,1.67-.83,3.4-1.62,4.92-2.68,14.24-9.96,22.39-23.47,24.16-40.88,.37-3.62-.93-5.45-3.78-7.18-17.01-10.31-42.29-9.63-60.84,4.28-.68,.51-1.24,1.4-1.51,2.23-3.78,11.53-9.07,22.14-18.97,30.58Zm-169.45,.06c-1.79-1.89-3.39-3.45-4.84-5.13-6.09-7.06-10.11-15.23-12.97-24.05-.5-1.55-1.65-3.17-2.95-4.12-11.53-8.39-24.45-11.98-38.66-10.59-8.42,.83-16.3,3.4-23.23,8.4-.88,.64-1.75,2.02-1.73,3.05,.24,11.74,4.45,22.1,11.46,31.38,5.84,7.73,12.97,13.69,22.53,16.39,2.97,.84,5.31,.45,7.82-1.39,12.57-9.21,26.33-14.97,42.57-13.93Zm169.98,72.24c8.05,6.81,13.23,15.99,17.04,26.09,.35,.94,1.32,1.79,2.2,2.36,12.86,8.37,26.92,11.49,42.09,9.13,7.77-1.21,14.98-4,21.38-8.7,1.4-1.03,2.33-2.15,2.13-4.2-.84-8.85-3.67-17-8.55-24.38-6.19-9.36-13.71-17.05-25.21-19.77-2.82-.67-4.87-.32-7.15,1.51-7.92,6.36-16.35,12.02-26.3,14.64-5.8,1.53-11.82,2.25-17.62,3.31Zm-169.42-.75c-16.5,.13-30.43-5.46-42.36-15.49-4.84-4.07-9.06-4.2-14.14-1.7-.59,.29-1.19,.54-1.76,.87-14.05,7.94-22.81,19.97-25.85,35.66-2.01,10.34-1.75,8.31,4.88,12.82,.69,.47,1.45,.86,2.21,1.22,19.96,9.19,39.09,7.25,57.46-4.36,.92-.58,1.63-1.79,2.03-2.86,3.7-9.88,8.87-18.75,17.54-26.15Zm120.57,51.98c-1.14,6.74-1.94,13.69-3.56,20.44-2.39,9.93-8.34,18.15-14.13,26.32-1.97,2.78-1.94,5.04-.76,7.98,6.33,15.78,27.25,29.44,44.28,28.64,1-.05,2.23-.88,2.9-1.71,7.84-9.84,10.82-21.21,10.09-33.61-.71-12.02-5.77-22.33-12.97-31.71-.64-.83-1.67-1.52-2.66-1.88-8.93-3.21-17.05-7.7-23.18-14.46Zm-71.22-.39c-5.89,6.01-12.17,10.6-19.51,12.89-5.9,1.83-9.16,5.72-11.96,10.58-.75,1.3-1.53,2.58-2.17,3.94-8.92,18.82-8.61,37.02,3.56,54.49,1.12,1.6,2.38,2.05,4.23,1.96,6.07-.26,11.91-1.54,17.37-4.11,11.48-5.41,21.08-12.85,26.15-25.04,1.1-2.64,1.22-4.85-.7-7.23-1.82-2.25-3.19-4.85-4.85-7.23-8.29-11.88-12.61-24.98-12.14-40.24Zm-31.95-192.68c-6.55-9.67-10.87-19.65-11.78-30.82-1.29-15.9,2.1-30.55,12.48-43.08,.81-.98,2.52-1.71,3.82-1.72,7.7-.04,15.07,1.62,21.89,5.24,13.16,6.97,23.41,16.58,28.13,31.56,3.62-7.32,6.76-14.79,10.2-22.11,1.25-2.67,.61-4.47-1.08-6.51-6.5-7.86-14.28-13.96-23.71-18.01-9.41-4.04-19.18-6.01-29.32-4.68-14.98,1.97-26.21,10.05-34.13,22.72-7.17,11.48-10.51,23.91-8.39,37.53,1.5,9.62,7,17.22,12.41,24.86,.36,.5,.97,1.01,1.55,1.14,5.79,1.3,11.61,2.53,17.92,3.88Zm79.7-38.98c1.38-3.34,2.3-6.72,4.06-9.59,10.09-16.48,24.87-25.47,44.14-27.16,2.89-.25,4.71,.82,6.38,3.03,11.06,14.61,13.98,30.98,10.54,48.67-1.7,8.74-5.46,16.67-10.82,24.19,3.5-.75,6.64-1.74,9.84-2.03,6.22-.56,10.39-3.36,13.87-8.76,6.11-9.48,9.87-19.36,8.72-30.69-1.31-12.96-6.33-24.41-15.12-34.06-8.24-9.04-18.48-14.51-30.77-14.92-20.89-.7-37.81,7.63-51,23.76-1.12,1.37-1.29,2.53-.61,4.07,3.14,7.09,6.22,14.21,9.36,21.3,.35,.8,.95,1.49,1.41,2.2Zm-25.37,286.67l-.78,.18c-6.91,19.19-30.35,33.62-50.01,33-1.15-.04-2.67-.63-3.34-1.49-2.39-3.1-4.99-6.2-6.61-9.71-8.45-18.26-7.01-36.17,2.61-53.61,1.11-2,2.38-3.91,3.84-6.29-4.04,.85-7.56,1.89-11.15,2.28-5.06,.55-8.49,2.75-11.73,6.9-9.55,12.24-12.06,25.6-7.76,40.23,5.03,17.11,15.12,29.9,32.78,35.22,21.08,6.36,48.09-2.94,62.38-22.88,.42-.58,.71-1.69,.44-2.25-3.49-7.22-7.09-14.39-10.67-21.57Zm-92.26-216.33c-.51-2.47-1.51-5.27-1.59-8.09-.17-5.85-3.28-9.25-7.83-12.55-11.88-8.63-24.75-10.83-38.64-6.95-16.91,4.73-29.54,14.43-34.52,32.05-2.26,8-2.06,16.15-.3,24.23,3.73,17.07,12.77,30.61,27.32,40.36,.98,.66,2.62,1.36,3.49,.98,7.62-3.31,14.92-7.23,21.76-12.54-1.79-.59-3.29-1.04-4.76-1.59-1.57-.59-3.21-1.11-4.64-1.96-16.87-10.13-25.99-25.31-29.1-44.51-.99-6.11,1.35-9.75,6.68-12.59,14.16-7.53,28.92-8.84,44.09-4.39,6.19,1.82,12,4.97,18.04,7.53Zm240.73,57.4c-.05,.29-.11,.58-.16,.87,6.5,3.68,13.03,7.3,19.48,11.07,2.27,1.33,4.01,1,6.12-.46,16.97-11.72,26.43-27.87,27.98-48.35,1.23-16.29-4.5-29.9-17.88-39.64-11.18-8.14-23.77-11.54-37.65-9.78-9.8,1.25-17.12,7.16-24.6,12.81-.42,.32-.84,.85-.95,1.35-1.02,4.99-1.98,9.99-3.02,15.37,12.9-8.31,26.57-11.89,41.51-10.28,9.12,.98,17.54,3.73,24.92,9.34,1.57,1.19,2.54,2.51,2.52,4.68-.16,18.3-8.22,32.76-21.64,44.57-4.78,4.2-10.44,6.88-16.64,8.45Zm-122.77,158.35c-3.84,7.59-7.5,14.73-11.03,21.93-.29,.59,.04,1.84,.53,2.38,3.53,3.87,6.76,8.17,10.86,11.33,14.92,11.47,31.75,16.44,50.4,12.01,22.46-5.33,34.69-28.27,35.79-47.45,.74-13.03-5.26-23.26-13.19-32.74-.45-.54-1.18-1.02-1.86-1.17-5.68-1.28-11.37-2.48-17.11-3.72,0,.33-.03,.44,0,.52,.17,.33,.34,.67,.56,.97,8.54,12.33,12.45,25.87,10.72,40.9-1.14,9.92-4.55,18.91-11.09,26.55-.89,1.04-2.32,2.01-3.63,2.23-2.1,.34-4.34,.26-6.45-.07-20.5-3.17-35.18-14.15-44.5-33.65Zm-117.53-72.32c-11.79,7.37-24.32,10.1-37.67,9.17-10.88-.75-20.98-3.87-29.51-10.94-1.11-.92-2-2.76-2.03-4.2-.3-11.32,3.74-21.28,10.25-30.31,5.79-8.02,12.63-14.86,22.16-18.4,1.53-.57,3.11-1.03,5.06-1.67-6.81-5.23-13.63-9.6-21.12-12.89-.53-.23-1.48-.09-1.98,.26-8.11,5.58-15.36,12.07-20.42,20.63-7.42,12.56-11.17,25.94-8.34,40.6,4.76,24.66,32.47,38.89,54.04,36.44,9.76-1.11,17.52-6.16,25.13-11.69,.54-.39,.96-1.15,1.11-1.82,1.12-4.9,2.16-9.82,3.33-15.19Zm240.2-56.82c3.7,1.42,6.79,2.15,9.41,3.68,17.77,10.38,27.57,25.87,29.24,46.44,.2,2.47-1.05,4.04-2.89,5.4-14.6,10.78-30.96,12.67-48.12,8.87-6.56-1.45-12.77-4.48-19.01-6.73,1.1,4.43,2.31,9.39,3.57,14.33,.13,.5,.39,1.13,.79,1.37,5.25,3.23,10.2,7.27,15.87,9.44,16.31,6.25,31.52,2.38,45.53-7.04,11.26-7.57,18.31-18.08,19.03-31.85,1.26-23.99-9.71-41.9-28.8-55.42-.85-.6-2.65-.76-3.55-.27-6.9,3.71-13.69,7.62-21.06,11.78ZM207.37,233.73c-.47,.36-1.41,.93-2.17,1.69-5.6,5.55-11.31,11-16.7,16.75-14.9,15.89-27.55,33.36-36.89,53.13-.84,1.78-.85,3.13,.06,4.93,10.72,21.31,25.53,39.45,42.74,55.76,4.34,4.12,8.79,8.13,13.24,12.23-.78-4.97-1.42-9.65-2.29-14.29-.35-1.83-.83-3.87-1.92-5.3-11.21-14.68-20.22-30.6-27.61-47.49-.97-2.22-1.06-4.18-.2-6.46,7.03-18.71,16.34-36.16,28.3-52.18,.6-.8,1.26-1.73,1.4-2.67,.77-5.41,1.4-10.85,2.05-16.11Zm383.05,144.09c.23-.17,.84-.57,1.4-1.03,11.45-9.62,21.92-20.24,31.48-31.73,8.77-10.55,16.31-21.94,22.45-34.24,1.06-2.12,1.19-3.9,.04-5.99-1.99-3.6-3.69-7.37-5.68-10.97-12.52-22.68-29.59-41.66-48.39-59.21-.51-.48-1.17-.81-1.33-.91,.65,5.23,1.29,10.66,2.04,16.07,.12,.86,.65,1.72,1.18,2.44,11.94,16.24,21.31,33.87,28.6,52.64,.87,2.25,.78,4.22-.18,6.45-7.45,17.28-16.72,33.49-28.24,48.39-.6,.77-1.17,1.73-1.31,2.66-.76,5.13-1.38,10.28-2.05,15.43Zm-259.17,124.43c4.03,4.4,8.14,9,12.37,13.48,15.05,15.97,32.28,29.04,51.87,38.99,2.47,1.26,4.44,1.27,6.99,.03,24.98-12.22,45.28-30.16,63.04-51.22,.42-.49,.64-1.15,.73-1.32-5.27,.5-10.55,.96-15.82,1.52-.77,.08-1.65,.39-2.24,.87-14.09,11.55-29.83,20.31-46.43,27.62-2.11,.93-3.99,1.08-6.16,.08-16.14-7.42-31.43-16.23-45.27-27.44-.75-.6-1.78-1.08-2.72-1.18-5.34-.55-10.69-.96-16.36-1.45ZM465.73,111.13c-.31-.78-.34-.98-.46-1.11-17.95-18.87-37.71-35.35-61.25-46.97-3.61-1.78-6.63-2.26-10.07,.01-2.02,1.33-4.34,2.18-6.49,3.32-21.15,11.17-38.86,26.67-55.28,43.8-.08,.09-.01,.32-.01,.65,5.5-1.87,11.06-2.78,16.83-2.2,.8,.08,1.77-.53,2.52-1.04,13.81-9.32,28.69-16.52,44.39-22.02,1.6-.56,3.72-.64,5.3-.08,15.95,5.58,31.12,12.81,45.15,22.31,.66,.44,1.52,.92,2.25,.86,5.74-.4,11.36,.02,17.13,2.47Zm138.56,124.32c.16-.36,.39-.67,.45-1.02,3.67-19.65,3.76-39.32,.03-58.97-.18-.94-.98-2.04-1.81-2.52-5.02-2.9-10.04-5.83-15.23-8.39-10.43-5.14-21.37-8.83-32.77-11.03-.84,5.59-1.71,11.03-2.38,16.5-.07,.56,.96,1.64,1.67,1.86,9.88,3.03,18.77,7.98,26.97,14.15,1.48,1.12,2.72,3.11,3.19,4.93,2.51,9.68,3.55,19.52,2.5,29.52-.08,.81,.15,2.05,.71,2.48,5.47,4.21,11.04,8.29,16.68,12.49ZM242.64,153.48c-.17-.01-.46-.09-.72-.04-16.86,3.77-32.59,10.34-47.23,19.47-.86,.54-1.56,1.81-1.75,2.85-2.84,15.5-3.43,31.1-1.64,46.76,.5,4.33,1.31,8.63,2,13.1,5.79-4.33,11.28-8.39,16.7-12.53,.47-.36,.81-1.29,.75-1.9-1-10.19,.06-20.23,2.56-30.1,.46-1.81,1.74-3.74,3.21-4.89,3.31-2.59,6.8-5.04,10.52-6.97,5.85-3.04,11.95-5.6,17.98-8.38-.76-5.52-1.57-11.42-2.39-17.38Zm362.01,222.33c-5.45,3.96-10.61,7.82-15.89,11.48-1.52,1.06-2.02,2.09-1.82,3.92,1.07,9.9-.36,19.62-2.53,29.24-.24,1.08-1.09,2.24-1.99,2.92-4.03,3.05-7.98,6.28-12.33,8.79-5.61,3.24-11.59,5.86-17.42,8.76,.78,5.26,1.62,10.87,2.48,16.61,.61-.04,1.27,.01,1.88-.14,16.48-4.16,31.69-11.21,45.93-20.4,.88-.57,1.62-1.83,1.84-2.89,3.93-19.34,3.77-38.69-.13-58.29Zm-359.42,64.52c-.21-.1-.44-.25-.69-.33-10.75-3.52-20.22-9.28-28.75-16.61-1.12-.97-2.17-2.4-2.54-3.81-2.21-8.48-3.28-17.15-2.73-25.9,.25-3.99-.72-6.4-4.33-8.47-4.49-2.58-8.47-6.04-13.18-9.49-.7,5.4-1.44,10.36-1.97,15.34-1.56,14.56-.76,29.02,2.32,43.33,.22,1.04,1.03,2.22,1.91,2.81,13.75,9.14,28.57,15.92,44.63,19.9,.95,.23,1.92,.35,2.79,.5,.87-5.94,1.7-11.57,2.54-17.27Zm221.29,73.92c.96,.31,1.56,.58,2.19,.7,18.54,3.52,37.08,3.39,55.59-.11,1.2-.23,2.61-1.17,3.26-2.2,8.36-13.23,14.35-27.49,18.02-42.71,.27-1.14,.41-2.31,.58-3.31-6.26-1.07-12.23-2.09-18.36-3.13-.1,.26-.37,.75-.5,1.28-2.53,10.37-7.75,19.4-13.89,27.98-1.42,1.98-3.11,3.22-5.61,3.78-8.93,1.98-17.9,2.98-27.05,2.3-1.26-.09-3.09,.47-3.82,1.39-3.55,4.45-6.82,9.13-10.41,14.04Zm-214.51-47.72c.1,.9,.1,1.74,.3,2.54,3.89,15.53,9.89,30.19,18.38,43.79,.56,.9,1.76,1.76,2.79,1.96,3.85,.77,7.74,1.41,11.64,1.83,13.68,1.48,27.33,1.21,40.91-1.11,1.85-.32,3.69-.77,5.8-1.22-3.83-5.15-7.28-9.93-10.91-14.56-.53-.68-1.94-1.06-2.89-.96-9.73,.98-19.26-.37-28.7-2.52-1.43-.32-3.03-1.23-3.91-2.37-6.05-7.82-10.84-16.36-13.95-25.79-.54-1.65-1-3.33-1.45-4.8-6.11,1.09-11.89,2.11-18.02,3.2Zm18.97-317.96c3.28-8.84,8.35-16.69,14.11-24.1,1.05-1.36,2.81-2.76,4.42-2.99,8.23-1.19,16.51-1.96,24.76-3.02,1.3-.17,2.89-.78,3.69-1.73,3.5-4.16,6.76-8.51,10.09-12.81,.31-.4,.46-.91,.79-1.6-1.49-.18-2.68-.31-3.86-.48-17.04-2.42-34.03-2.15-50.92,1.19-1.34,.26-2.88,1.32-3.63,2.46-6.12,9.35-11.17,19.26-15.01,29.77-1.17,3.2-2.24,6.44-3.32,9.58,6.45,1.27,12.48,2.46,18.89,3.73Zm274.52-3.71c-.06-.28-.12-.64-.22-.97-4.19-13.89-10.47-26.8-18.15-39.06-.51-.81-1.68-1.48-2.65-1.68-14.71-3.05-29.56-3.53-44.48-2.12-3.66,.35-7.3,.98-11.39,1.54,4.13,5.39,7.84,10.3,11.67,15.12,.46,.58,1.61,.94,2.41,.89,8.4-.45,16.62,.69,24.81,2.44,2.59,.55,4.29,1.82,5.82,3.9,5.44,7.41,10.22,15.19,13.56,23.75,6.31-1.29,12.41-2.54,18.63-3.81Zm-209.01,136.73c-4.39-1.62-8.19-3.53-12.22-4.39-4.98-1.07-10.17-1.9-15.24-1.74-12.2,.38-23.06,5.03-33.21,11.65-9.33,6.09-18.81,11.94-28.23,17.88-.91,.58-1.88,1.06-2.25,1.26,10.4,7.41,20.81,14.88,31.28,22.28,11.95,8.44,24.94,13.6,39.89,12.41,6.92-.55,13.13-3.17,19.1-6.51-7.54,.7-14.96,.37-22.36-1.17-18.93-3.95-33.1-16.76-49.49-26.15,10.35-6.04,20.23-12.12,30.41-17.65,8.9-4.83,18.57-7.47,28.75-7.84,4.34-.15,8.69-.03,13.57-.03Zm-130.74,74.08c1.25-4.75,2.49-9.12,3.49-13.55,.24-1.07,0-2.49-.54-3.48-5.05-9.28-10.19-18.51-15.35-27.73-1.25-2.24-1.16-4.34-.2-6.7,4.2-10.37,9.3-20.24,15.48-29.57,.54-.81,1.23-1.94,1.04-2.73-1.23-5.12-2.69-10.19-4.08-15.31-.18,.16-.42,.31-.57,.53-10.62,15.2-19.45,31.34-25.64,48.85-.41,1.15-.21,2.78,.28,3.95,5.93,14.01,13.1,27.36,21.9,39.8,1.37,1.94,2.74,3.88,4.19,5.93Zm353.23-48.9c11.5,7.63,20.17,17.38,26.59,29.57,6.06-8.94,11.16-17.82,15.11-27.33,.4-.97,.22-2.48-.26-3.46-4.18-8.55-8.48-17.04-12.78-25.53-.52-1.03-1.23-1.96-2.1-3.33-6.08,12.8-15.1,22.36-26.57,30.08Zm33.13-50.34c-1.09,4.65-1.86,9-3.19,13.17-.71,2.22-.45,3.76,.78,5.64,6.11,9.35,11.28,19.18,15.33,29.61,.77,1.97,.92,3.73-.12,5.6-5.34,9.54-10.65,19.09-15.97,28.65-.34,.62-.96,1.39-.82,1.92,1.28,4.93,2.7,9.83,4.12,14.85,10.66-14.48,19.58-30.01,26.48-46.67,.37-.89,.11-2.25-.29-3.21-2.54-6.13-5.07-12.27-7.86-18.28-5.09-10.96-11.38-21.23-18.45-31.27Zm-379.6,20.21c-1.21,1.87-2.22,3.23-3.02,4.7-3,5.51-6.15,10.95-8.85,16.6-4.56,9.56-4.57,9.69,.31,19.09,3.39,6.52,7.22,12.81,11.17,19.75,6.35-12.86,15.19-22.45,26.7-30.02-11.37-7.83-20.32-17.38-26.31-30.12Zm141.84,226.58c.59,.52,1.23,1.16,1.95,1.7,12.62,9.52,26.29,17.24,40.67,23.72,1.02,.46,2.62,.34,3.68-.13,13.74-6.06,26.96-13.06,39.08-22,1.46-1.08,2.86-2.24,4.26-3.34-4.61-1.17-8.9-2.37-13.25-3.3-1.16-.25-2.68-.03-3.73,.54-8.71,4.71-17.36,9.54-26.01,14.36-1.82,1.01-3.53,.9-5.29-.14-8.04-4.76-16.14-9.42-24.12-14.28-1.49-.91-2.54-1.25-4.3-.66-4.15,1.38-8.44,2.34-12.92,3.53ZM502.19,174.92c8.81-6.58,19.17-9.06,30.27-9.27,1.97-.04,2.75,.62,2.61,2.55-.35,4.75-.39,9.55-1.06,14.26-1.05,7.42-4.26,14.06-8.63,20.36,3.6-.55,6.9-1.31,10.22-1.47,2-.09,2.95-.88,3.87-2.44,7.06-12.02,9.47-25.09,8.8-38.84-.13-2.64-.6-5.27-.91-7.93-5.25,0-10.05-.36-14.78,.07-10.15,.93-19.89,3.47-28.55,9.13-.81,.53-1.72,1.6-1.77,2.47-.19,3.72-.08,7.46-.08,11.1Zm-251.85-22.82c-.19,1.19-.47,2.11-.47,3.02-.04,6.07-.46,12.19,.07,18.22,.84,9.52,3.89,18.44,9.17,26.5,.38,.57,1.02,1.26,1.62,1.35,3.82,.56,7.66,.97,11.74,1.46-8.23-11.04-10.52-23.42-9.67-36.9,12.26-.49,23.32,2.2,33.13,9.49-.17-3.6-.5-6.87-.41-10.13,.06-2.09-.74-3.18-2.44-4.2-13.14-7.8-27.38-10.07-42.74-8.81Zm22.83,257.25c-3.88,.5-7.29,1.11-10.72,1.29-1.74,.09-2.66,.71-3.52,2.11-8.4,13.76-10.78,28.73-9.1,44.55,.17,1.58,.92,2.05,2.37,2.03,5.15-.07,10.33,.27,15.43-.2,9.2-.85,18.01-3.31,26.06-8.04,.67-.4,1.62-1.05,1.67-1.65,.31-3.84,.41-7.69,.59-11.85-9.41,6.46-19.77,8.19-30.64,8.14-2.12-.01-2.88-.69-2.73-2.74,.23-3.08,.16-6.19,.55-9.25,1.13-8.88,4.41-16.94,10.02-24.38Zm251.62,0c.35,.54,.56,.95,.84,1.31,7.28,9.5,9.57,20.51,9.77,32.17,.03,1.93-.49,2.9-2.68,2.88-7.25-.07-14.42-.65-21.24-3.3-3.49-1.36-6.83-3.11-10.2-4.67,.29,3.16,.82,6.32,.79,9.47-.02,2.1,.71,3.15,2.46,4.14,11.43,6.48,23.88,8.44,36.77,8.29,6.19-.07,6.42-.21,6.89-6.24,1.16-14.67-1.5-28.51-9.68-41-.45-.69-1.27-1.48-2.01-1.59-3.77-.58-7.56-.95-11.69-1.44ZM441.19,109c-.15-.18-.24-.36-.39-.46-12.91-8.24-26.74-14.57-41.15-19.67-.77-.27-1.86-.15-2.63,.18-8.68,3.7-17.42,7.29-25.95,11.31-5.23,2.47-10.14,5.63-15.37,8.58,5.02,1.53,9.54,3.03,14.13,4.22,1.35,.35,3.09,.17,4.37-.4,7.26-3.23,14.38-6.78,21.68-9.9,1.58-.68,3.96-.65,5.55,.03,7.56,3.22,14.98,6.8,22.46,10.21,.73,.34,1.67,.82,2.34,.62,4.99-1.48,9.94-3.12,14.97-4.73Zm111.04,66.88c-3.35,8.79-6.58,17.26-9.8,25.69,7.34,.56,14.79,2.16,21.54,5.73,6.7,3.53,13.05,7.75,19.4,11.58,.43-8.59-.37-17.59-2.53-26.47-.21-.86-.61-1.9-1.27-2.39-8.45-6.3-17.41-11.62-27.34-14.14Zm-306.77-.03c-9.72,2.82-18.9,7.72-27.16,14.3-.89,.71-1.41,2.19-1.64,3.39-.85,4.5-1.75,9.01-2.15,13.56-.36,4.14-.08,8.33-.08,12.72,11.91-10.71,25.7-16.93,40.96-18.34-3.3-8.51-6.55-16.9-9.94-25.64Zm-31.87,215.5c.75,7.25,1.36,14.52,2.35,21.73,.34,2.47,.94,5.56,2.6,7.07,6.18,5.63,13.22,10.15,20.96,13.43,2.17,.92,4.43,1.64,6.02,2.23,3.56-8.72,6.96-17.03,10.33-25.29-21.05-4.21-22.25-4.77-42.26-19.17Zm338.64,44.58c10.11-3.09,19.12-8.9,27.56-15.68,.66-.53,1.19-1.54,1.28-2.38,.87-8.18,1.65-16.38,2.42-24.57,.05-.56-.17-1.15-.14-1-6.52,4.08-12.91,8.48-19.68,12.19-6.85,3.75-14.51,5.3-21.68,6.05,3.41,8.44,6.78,16.8,10.25,25.4Zm-50.55,18.02c-2.16,15.93-9.09,29.69-21.03,41.34,9.31,.27,17.94-.59,26.43-2.66,.76-.18,1.64-.63,2.08-1.23,6.49-8.8,11.86-18.17,14.25-28.64-7.23-2.93-14.37-5.83-21.73-8.81Zm-102.86,21.29c-6.96,8.91-15.15,16.05-25.92,21.67,8.3,4.69,15.88,9.08,23.58,13.24,1.07,.58,2.98,.58,4.07,.02,6.66-3.4,13.21-7.01,19.76-10.61,1.34-.74,2.55-1.72,4.14-2.82-10.43-5.24-18.53-12.51-25.64-21.49Zm-102.97-21.19c-7.27,2.91-14.34,5.75-21.49,8.61,2.11,8.13,5.94,15.77,10.38,23.2,2.83,4.74,6.2,7.82,12,8.12,6.57,.34,13.11,1.17,19.67,1.79l.3-.9c-11.64-11.27-18.82-24.79-20.85-40.82ZM485.23,121.73l-.42,1.02c8.96,10.48,14.53,22.54,16.75,35.76,6.96-3.06,13.69-6.02,20.63-9.08-.04,.23,.05,.05,0-.09-2.92-8.63-7.91-16.1-13.2-23.39-.39-.54-1.2-.98-1.88-1.08-7.3-1.09-14.6-2.1-21.91-3.14Zm-209.89,27.64c6.94,3.07,13.74,6.07,20.66,9.13,2.21-13.31,7.64-25.41,17.03-36.24-8.17,.12-15.61,1.15-22.95,2.96-.5,.12-1.02,.53-1.33,.96-5.39,7.3-10.33,14.86-13.41,23.18Zm124-13.94c5.75-7.35,13.2-13.65,22.38-18.98-6.51-2.93-12.51-5.46-18.33-8.32-3.29-1.62-6.15-1.68-9.47,.01-5.7,2.9-11.6,5.4-17.01,7.89,7.52,6.51,14.83,12.83,22.43,19.41Z"/></svg>