<?xml version="1.0" encoding="UTF-8"?><svg id="a" xmlns="http://www.w3.org/2000/svg" viewBox="0 0 800 600.7"><path d="M254.07,442.91c-3.57,1.07-6.92,2.4-10.4,3.07-8.78,1.67-17.36,.44-25.66-2.72-10.8-4.11-20.37-10.24-29.31-17.54-4.9-4.01-6.64-9.28-7.61-15.14-2.16-13.09-2.69-26.18,1.38-38.95,1.74-5.46,4.8-10.5,7.28-15.72,.37-.77,.9-1.46,1.45-2.36-2.19-.86-4.24-1.62-6.24-2.47-12.05-5.07-20.3-14.32-27.23-24.96-4.38-6.73-8.22-13.78-10.33-21.55-.75-2.76-1.03-6.11-.19-8.77,4.89-15.51,13.24-28.91,25.67-39.56,5.34-4.58,11.65-7.51,18.53-9.77-1.15-1.91-2.22-3.68-3.29-5.45-5.42-8.93-7.99-18.68-8.42-29.07-.41-10.09,.12-20.1,2.81-29.85,.76-2.76,2.2-5.78,4.26-7.65,10.17-9.16,21.69-16.27,34.82-20.38,10.75-3.36,21.48-3.51,32.15,1.8-.09-.67-.04-1.08-.19-1.4-6.83-13.88-5.58-27.76-.03-41.64,3.45-8.62,7.81-16.77,13.42-24.16,1.73-2.28,4.18-4.63,6.79-5.54,18.42-6.38,37.16-7.97,55.87-1.45,5.71,1.99,10.88,5.53,16.33,8.37,1.41-2.76,2.92-5.92,4.61-8.98,5.88-10.66,14.8-18.36,24.99-24.53,6.36-3.85,13.17-7.05,20.02-9.96,2.65-1.13,6.31-1.63,8.95-.74,17.53,5.9,32.87,15.31,44.08,30.36,3.17,4.25,5.24,9.31,7.9,14.16,1.37-.93,2.93-2.02,4.5-3.08,9.66-6.48,20.44-9.16,31.93-9.49,11.17-.32,22.13,.93,32.84,4.21,4.13,1.27,7.32,3.61,9.79,7.17,7.26,10.5,13.09,21.66,16.15,34.13,2.57,10.48,1.51,20.6-3.12,30.35-.25,.53-.42,1.1-.72,1.88,3.55-1.09,6.79-2.42,10.16-3.06,9.75-1.86,19.06,0,28.07,3.87,10.11,4.33,19.37,10.07,27.64,17.29,2.02,1.76,3.89,4.32,4.59,6.85,4.47,16.07,5.29,32.35,.41,48.44-1.86,6.14-5.36,11.77-7.82,17.02,5.66,3.34,12.34,6.21,17.74,10.66,12.62,10.39,20.7,24.08,25.42,39.66,.74,2.45,.64,5.56-.17,8.01-5.09,15.4-13.29,28.88-25.65,39.6-4.78,4.15-10.4,6.86-16.31,9.01-.48,.17-.95,.34-1.62,.58,1.48,2.49,2.92,4.78,4.22,7.14,6.29,11.41,7.97,23.81,7.18,36.54-.41,6.64-1.62,13.26-3.01,19.78-.53,2.5-2.1,5.2-4.01,6.92-10.5,9.48-22.34,16.86-35.95,20.97-9.63,2.91-19.28,2.69-28.66-1.38-.69-.3-1.43-.47-2.54-.82,3.8,8.04,5.92,16.01,5.22,24.57-.57,7.02-2.54,13.71-5.68,19.91-3.52,6.96-7.6,13.64-11.57,20.37-2.29,3.88-5.84,6.18-10.17,7.47-16.84,5.03-33.86,6.95-50.96,1.91-6.15-1.81-11.85-5.16-17.86-7.86-2.46,6.66-5.44,13.63-10.52,19.35-11.33,12.73-25.37,21.35-41.56,26.45-2,.63-4.55,.73-6.5,.06-18.39-6.29-34.53-15.93-45.56-32.49-2.84-4.26-4.74-9.16-7.15-13.91-.74,.45-1.73,.99-2.66,1.62-9.64,6.54-20.42,9.2-31.92,9.51-11.62,.31-23.01-1.02-34.08-4.74-3.49-1.17-6.6-2.79-8.86-5.86-8.05-10.95-14.2-22.83-17.55-36.05-2.39-9.41-.99-18.51,2.78-27.33,.37-.86,.72-1.73,1.11-2.69Zm61.71-286.2l-.08-.06c.59-.41,1.42-.68,1.74-1.24,4.09-7.29,7.97-14.69,12.17-21.91,6.36-10.94,9.4-23.01,12.52-35.38-2.5-1.49-4.88-3.17-7.47-4.42-18.77-9.11-37.97-8.03-57.33-2.2-.86,.26-1.82,.87-2.31,1.6-8.21,12.18-15.48,24.82-17.3,39.75-.72,5.91-.35,11.84,.97,17.67,.34-.04,.44-.02,.52-.06,.39-.2,.78-.41,1.16-.61,17.31-9.11,33.97-7.83,50,3.18,1.8,1.23,3.6,2.46,5.41,3.69Zm39.25,274.78c-12.25,4.17-24.21,3.94-36.27,1.58q.42-3.7,3.5-3.41c2.89,.28,5.78,.62,8.67,.82,8.25,.55,16.27-.57,24.24-3.4-.76-5.43-1.49-10.67-2.23-16-10.08,4.11-21.27,2.41-29.55,8.52-1.84-11.44-5.19-22.64-3.76-34.25,.47-.05,.75-.15,.99-.1,1.03,.23,2.06,.47,3.07,.75,11.27,3.15,21.9,1.91,31.9-4.41,3.43-2.16,5.83-4.99,7.28-8.73,2.28-5.89,4.62-11.76,6.9-17.55-10.58,1.54-21.78,.53-32.11,5.71,5.24-9.38,6.04-19.64,8.13-29.29-5.91,1.78-11.9,3.39-17.76,5.41-3.28,1.13-6.93,2.26-9.36,4.52-5.77,5.39-8.95,12.34-9.31,20.37-.26,5.83,1.42,11.29,3.49,16.65,1.22,3.17,1.06,3.42-2.41,3.31-2.2-.07-4.39-.28-6.58-.53-7.58-.88-15.29-1.27-22.27-4.87-2.54-1.31-5.08-2.39-7.6-1.27,2.06-5.02,4.37-10.02,6.16-15.2,2.13-6.17,3.82-12.5,5.81-19.14-4.57-2.36-9.76-5.04-15-7.75-3.61,5.1-6.07,10.31-7.66,15.94-2.54,8.97-2.52,18.08-1.57,27.25,.13,1.21,.67,2.8-1.45,3.01-1.89,.19-2.24-1.11-2.29-2.5-.24-6.4-.55-12.8-.54-19.2,0-2.67,.75-5.34,1.15-7.98-12.56-4.01-14.64-5.56-28.09-21.06-1.26,6.62-4.96,11.79-9.35,16.67,.55,.26,.93,.49,1.33,.64,9.96,3.63,16.94,10.62,20.51,20.33,1.91,5.2,4.57,8.54,9.54,10.75,8.49,3.78,16.63,8.39,25.2,11.95,8.29,3.44,17.17,3.46,26.02,2.52,7.16-.76,6.65-.61,5.84,6.59-.9,8.03-.81,15.98,1.32,23.84,2.54,9.41,7.97,17.37,12.86,25.59,.34,.56,1.2,.94,1.9,1.14,10.3,3.02,18.52,8.8,24.05,18.1,1.59,2.67,2.81,5.56,4.25,8.43,5.83-5.64,11.91-10.73,20.54-12.02-9.99-8.49-18.01-17.92-19.52-31.74Zm160.41-90.32c1.18,2.51,2.44,4.71,3.27,7.08,1.09,3.14,1.67,6.46,2.78,9.6,2.11,5.97,4.43,11.87,6.48,17.29-1.29,.1-3.52-.3-5.18,.49-7.28,3.46-14.97,5.01-22.91,5.67-3.63,.3-7.27,.56-10.89,.83-.12-.81-.26-1.1-.18-1.32,.42-1.25,.88-2.48,1.34-3.71,2.81-7.52,4.12-15.16,1.22-22.93-2.78-7.43-6.54-14.02-15.04-16.36-6.71-1.85-13.34-4.03-19.85-6.01,1.84,9.84,3.1,20.1,8.28,29.47-10.31-5.5-21.5-4.36-32.03-5.85,2.22,5.81,4.29,11.77,6.8,17.55,1.05,2.42,2.59,5.1,4.68,6.5,4.03,2.71,8.45,5.07,13.01,6.72,7.65,2.77,15.47,1.53,23.11-.57,1.91-.52,2.7-.11,2.54,1.87-.47,5.96-.9,11.93-1.42,17.89-.42,4.87-3.69,9.37-1.86,14.76-9.16-6.55-20.48-5.12-30.46-9.17-.22,.96-.48,1.79-.58,2.63-.4,3.41-.42,6.91-1.23,10.21-.75,3.07,.6,3.66,3.05,4.34,9.33,2.58,18.75,2.86,28.27,1.63,4.25-.55,4.65-.31,4.8,3.44-12.16,1.98-24.26,2.4-36.3-1.72-1.56,13.82-9.71,23.25-19.72,31.71,8.86,1.41,14.93,6.71,20.74,12.33,4.83-14.08,14.5-22.72,28.44-26.89,.89-.27,1.85-1,2.33-1.79,2.47-4.06,4.84-8.18,7.16-12.33,4.6-8.23,6.92-17.11,6.8-26.52-.06-4.65-.64-9.3-1.07-13.95-.2-2.14,.82-2.92,2.77-2.81,2.37,.14,4.75,.33,7.12,.53,8.74,.74,17.33-.07,25.3-3.82,9.14-4.31,18.02-9.16,27.06-13.67,1.67-.83,2.45-1.99,2.92-3.71,2.26-8.34,6.66-15.34,13.72-20.39,2.93-2.1,6.29-3.59,9.49-5.38-4.04-4.52-7.84-9.26-9.22-15.82-7.19,10.09-15.77,17.84-27.64,20.87,.49,2.97,1.31,5.57,1.28,8.17-.08,6.49-.45,12.99-.97,19.46-.07,.82-1.72,1.51-2.64,2.26-.32-.88-.71-1.75-.94-2.65-.12-.49-.01-1.06,.06-1.58,.96-6.67,1.07-13.32-.07-19.99-1.37-8.07-4.22-15.5-9.08-22.22-5.31,2.68-10.46,5.28-15.56,7.85Zm-141.88-203.81c-3.63-1.74-7.35-3.11-10.61-5.2-3.34-2.14-6.23-4.99-9.43-7.62-3.71,11.58-11.48,19.91-22.7,24.01-6.27,2.29-9.67,6.24-12.38,11.63-.59,1.18-1.3,2.3-1.98,3.43-5.35,8.93-7.8,18.65-7.52,28.99,.12,4.47,.82,8.93,1.38,13.38,.27,2.12-.27,3.26-2.6,3.09-1.58-.12-3.18-.1-4.75-.27-7.97-.85-15.95-.58-23.54,1.93-11.63,3.85-22.53,9.41-32.9,15.95-.68,.43-1.09,1.48-1.34,2.33-2.51,8.43-6.89,15.65-14.08,20.83-3.07,2.21-6.59,3.8-9.48,5.42,3.16,4.95,6.39,10.01,9.47,14.84,6.46-9.72,15.11-17.63,27.36-20.61,0-.47,.04-.65,0-.81-2.36-8.87-1.94-17.78-.37-26.71,.29-1.66,1.15-2.77,2.84-1.79,.61,.36,.86,1.75,.86,2.67,.04,7.02-.49,14.09,.07,21.06,.65,8,3.95,15.2,8.9,21.68,5.37-2.63,10.6-5.18,15.35-7.51-1.71-4.65-3.57-8.84-4.78-13.2-1.84-6.62-3.48-13.27-7.58-18.98-.23-.31-.26-.76-.29-.83,2.04-.24,4.21,0,5.9-.79,6.49-3.03,13.32-4.45,20.37-5.04,4.36-.37,8.73-.66,13.09-.98,.09,.74,.22,1.03,.14,1.25-.21,.67-.5,1.31-.77,1.96-5.02,12.22-3.91,23.63,4.9,33.75,1.75,2.01,4.32,3.66,6.84,4.57,5.78,2.07,11.76,3.55,17.65,5.33,1.52,.46,2.99,1.12,4.27,1.61-1.98-10.09-2.94-20.33-8.15-29.63,10.39,5.1,21.53,3.63,32.16,4.84-2.51-5.64-4.86-11.43-7.66-16.98-1.35-2.68-3.13-5.5-5.47-7.25-8.51-6.4-18.15-8.65-28.67-6.29-2.81,.63-5.58,1.45-8.61,2.24-.15-.86-.46-1.63-.39-2.36,.53-6.31,1.11-12.62,1.69-18.93,.42-4.63,3.49-8.96,1.44-14.09,9.23,6.42,20.5,4.74,30.52,8.75,.85-5.44,1.66-10.62,2.48-15.86-1.01-.33-1.74-.61-2.48-.82-10.01-2.84-20.15-2.89-30.37-1.51-3.29,.45-3.29,.43-3.51-3.36,12.19-2.39,24.32-2.74,36.41,1.41,2.04-12.79,9.49-21.83,18.31-29.54Zm167.73,81.41c-2.83-1.33-6.22-2.8-9.5-4.48-10.63-5.45-21.94-6.7-33.63-5.45-6.86,.73-7,.54-6.02-6.36,1.27-8.96,1.33-17.9-1.27-26.7-2.6-8.81-7.96-16.21-12.38-24.09-.31-.55-1.28-.76-1.96-1.08-4.2-1.96-8.63-3.52-12.55-5.92-7.67-4.7-12.6-11.79-15.81-20.46-5.67,6.17-11.96,10.9-20.43,12.62,9.71,8.15,16.97,17.49,19.21,29.96,.74-.14,1.19-.16,1.6-.3,10.83-3.6,21.82-3.43,32.88-1.36,.73,.14,1.87,1.2,1.83,1.76-.08,1.19-.39,2.26-2.45,2.11-6.65-.5-13.36-.92-20.01-.62-4.65,.2-9.25,1.62-13.94,2.51,.84,5.69,1.58,10.77,2.33,15.89,3.11-.76,5.96-1.72,8.89-2.13,6.82-.95,13.58-1.99,19.7-5.45,.55-.31,1.16-.53,1.17-.54,1.24,11.64,4.57,23.12,3.69,34.85-.45,.12-.54,.17-.61,.15-.84-.25-1.67-.51-2.51-.78-6.54-2.1-13.23-3.31-20.01-1.7-8.23,1.96-15.8,5.13-19.66,13.53-2.67,5.81-5.28,11.64-7.79,17.17,3.49-.19,7.24-.56,10.99-.58,6.05-.04,11.91-.91,17.57-3.09,1.17-.45,2.4-.76,3.6-1.13l.5,.41c-5.59,9.02-6.73,19.26-8.57,28.9,6.9-2,13.96-3.84,20.86-6.14,2.64-.88,5.46-2.33,7.31-4.34,9.2-10.01,10.76-21.51,5.75-34.03-.4-.99-.65-2.04-1.14-3.63,4.49,.3,8.48,.28,12.35,.9,5.78,.93,11.55,2.1,17.21,3.59,3.42,.9,6.42,3.53,10.28,1.92-1.81,3.61-3.87,6.83-5.1,10.35-2.68,7.65-3.75,15.86-8.53,22.82,5.53,2.69,10.72,5.23,15.88,7.75,5.04-5.96,9.28-16.81,9.48-25.41,.14-5.79-.4-11.59-.47-17.38-.01-1.21,.72-2.42,1.24-4.02Zm1.79-68.27c1.53-7.26,1.86-14.49,.41-21.71-2.6-12.99-8.72-24.41-16.17-35.18-.81-1.17-2.38-2.07-3.79-2.54-11.11-3.72-22.61-4.4-34.17-3.61-9.98,.68-19.29,3.72-27.62,9.46-1.23,.85-1.76,1.56-1.25,3.21,2.01,6.45,3.03,13.32,5.85,19.38,5.84,12.56,12.59,24.7,18.98,37,.04,.07,.31,0,.6,0-.12-18.21,7.28-32.59,22.07-43.19,.19,9.3-1.63,18.16-6.85,25.77-3.18,4.65-7.66,8.4-11.5,12.6-1.23,1.35-2.28,2.85-3.42,4.28l.56,.42c17.46-13.72,36.06-16.88,56.29-5.91Zm.22,298.15c-9.24,5.22-18.68,7.81-29.11,6.46-10.36-1.34-19.29-5.49-27.04-13.09,.61,3.18,1.27,4.12,5.74,7.78,5.95,4.88,10.14,10.97,12.58,18.23,1.78,5.3,3.09,10.73,2.8,17.05-14.81-10.87-22.61-24.73-22.53-42.86-1.47,2.14-2.63,4.19-3.81,6.23-9.06,15.64-17.39,31.57-21.25,49.46-.49,2.25-.18,3.42,1.89,4.3,3.95,1.68,7.72,3.94,11.8,5.14,16.87,4.97,33.59,3.21,50.13-1.83,1.07-.33,2.12-1.29,2.8-2.23,5.97-8.35,10.74-17.33,14.14-27.02,3.12-8.91,3.7-18,1.86-27.62Zm-227.92-6.53c-17.79,14.92-36.41,17.71-56.67,6.4-1.46,5.99-1.51,11.92-.4,17.85,2.56,13.66,8.75,25.72,16.62,36.99,.81,1.16,2.4,2.03,3.81,2.48,11.44,3.72,23.22,4.89,35.18,4.12,9.44-.61,18.28-3.33,26.44-8.25,1.43-.86,1.7-1.65,1.25-3.11-1.91-6.12-3.54-12.33-5.66-18.37-4.52-12.94-12.02-24.4-18.43-36.4-.25-.46-.63-.86-1.31-1.77,.01,18.52-7.71,32.27-22.76,42.9,.32-9.19,2.08-17.34,6.67-24.46,2.68-4.15,6.44-7.61,9.85-11.26,1.93-2.07,4.58-3.54,5.42-7.12Zm-59.73-224.56c-16.39,.02-38.75-11.33-40.94-21.14,.45-.03,.88-.1,1.32-.08,14.08,.42,26.45,4.5,35.39,16.23,1.29,1.69,3.29,2.82,4.96,4.21l.44-.55c-13.51-16.94-16.81-35.22-7.2-55.31-.76-.19-1.42-.46-2.09-.52-6.62-.58-13.19-.49-19.65,1.36-12.73,3.65-23.8,10.37-34.06,18.52-1.14,.9-2.23,2.4-2.48,3.78-.98,5.26-1.88,10.57-2.31,15.9-1.13,14.08,1.27,27.49,8.21,39.98,1.35,2.44,2.55,3.14,5.52,2.25,12.19-3.68,23.68-8.88,34.84-14.92,6.01-3.26,12.05-6.46,18.07-9.69Zm290.6,.02c2.91,1.61,5.81,3.25,8.74,4.82,14.55,7.84,29.08,15.7,45.17,20.08,1.74,.47,2.59,.23,3.34-1.3,1-2.05,2.21-4.01,3.18-6.07,6.88-14.63,6.76-29.91,4.68-45.53-.8-6.01-3.65-9.74-8.52-12.96-10.77-7.13-21.66-13.83-34.67-16-5.22-.87-10.46-.76-15.87,.21,4.73,9.17,6.81,18.55,5.13,28.57-1.65,9.85-5.65,18.63-11.84,26.6,2.04-1.01,3.92-2.16,5.17-3.79,6.97-9.08,16.49-13.48,27.46-15.24,3.03-.48,6.12-.56,9.18-.82-10.13,14.48-23.96,20.96-41.15,21.42ZM254.12,381.56c-2.33-1.16-4.65-2.34-7-3.47-14.93-7.2-29.24-15.75-45.24-20.66-1.9-.58-3-.39-3.78,1.29-2.26,4.84-4.99,9.55-6.58,14.6-4.23,13.47-3.21,27.12-.25,40.7,.24,1.11,.94,2.33,1.79,3.08,9.71,8.49,20.57,15.04,32.87,19.05,7.7,2.51,15.58,3.19,23.96,1.86-5.41-9-6.8-18.51-5.33-28.44,1.45-9.83,5.12-18.74,11.77-26.39-6.68,4.38-11.22,11.27-18.79,14.38-7.37,3.03-14.92,4.56-23.16,4.45,6.46-10.43,19.89-20.26,39.74-20.45Zm298,57.24c6.15-.38,11.85-.13,17.31-1.17,15-2.87,27.63-10.59,39.01-20.49,.97-.84,1.65-2.29,1.95-3.58,2.03-8.63,2.63-17.4,2.17-26.23-.55-10.48-3.67-20.17-9.3-29.06-.86-1.35-1.65-1.68-3.17-1.08-4.5,1.77-9.2,3.07-13.56,5.12-10.57,4.98-20.99,10.29-31.46,15.47-2.55,1.26-5.08,2.56-7.62,3.84,16.81,.14,30.35,6.26,39.9,20.54-5.77-.42-11.44-1.1-16.95-2.43-7.87-1.89-14.04-6.69-19.53-12.49-1.55-1.64-3.48-2.93-5.23-4.38l-.43,.55c14.68,20.82,16.19,32.01,6.92,55.4Zm-199.64,66.6c.42,.98,.65,1.63,.97,2.25,9.86,19.22,26.42,30.36,45.93,37.83,1.44,.55,3.5,.23,5.03-.33,12.54-4.66,23.64-11.67,33.22-21.01,5.41-5.28,9.26-11.63,12.26-18.25-4.86-1.05-9.73-1.59-14.2-3.22-4.56-1.68-9.01-4.04-12.99-6.83-3.93-2.75-7.5-6.16-10.71-9.74-3.2-3.56-5.77-7.69-8.62-11.57,6.51,15.22,5,29.96-2.32,45.21-7.28-15.18-8.88-29.9-2.3-45.15-10.64,17.53-24.87,29.29-46.26,30.83Zm-.23-410.64c20.67,1.73,35.06,12.73,46.01,29.35-6-15.02-4.56-29.36,2.74-43.98,7.54,14.72,8.91,29.12,2.65,44.04,11.34-16.4,25.66-27.81,46.34-29.49-.36-.7-.56-1.09-.76-1.47-9.91-19.16-26.62-30.19-45.85-38.11-1.42-.58-3.52-.38-5.01,.2-12.36,4.8-23.34,11.88-33.03,20.91-5.54,5.16-9.54,11.47-13.09,18.55Zm-173.13,205.02c13.94-7.39,27.4-8.48,41.38-2.45-7.47-5.21-13.76-11.34-18.59-18.93-4.85-7.62-7.39-15.96-7.67-25.1-.76,.24-1.02,.29-1.24,.4-19.21,9.35-30.13,25.55-37.06,45-.29,.83-.27,1.95,.04,2.78,5.91,16.01,14.65,30.03,28.88,40.02,2.9,2.03,6.12,3.6,9.49,5.54,.91-19.87,11.47-33.44,26.02-44.85-13.97,5.84-27.43,5.13-41.25-2.42Zm428.08,47.06c1.58-.77,2.85-1.33,4.07-2,17.45-9.59,27.01-25.42,33.99-43.24,.42-1.08,.19-2.61-.2-3.77-4.02-11.83-10.43-22.26-18.87-31.43-5.24-5.7-11.57-9.88-18.99-13.15-.19,9.24-2.71,17.52-7.5,25.13-4.76,7.56-11,13.65-18.33,18.94,14.05-6.1,27.48-4.67,40.52,2.57-13.25,7.06-26.79,8.43-40.86,2.33,14.87,11.26,25.34,24.96,26.18,44.62Zm-225.61,4.92c-4.34,8.41-7.66,16.22-9.77,24.5-.6,2.34-.86,4.89-.65,7.29,.78,9.02,5.74,15.82,11.99,21.94,6.14,6.02,13.84,10.51,17.6,17.79,3.38-3.51,6.63-7.18,10.2-10.51,5.72-5.33,12.06-10.05,16.1-16.99,4.34-7.46,5.82-15.22,2.49-23.47-2.26-5.61-4.6-11.2-6.95-16.77-.46-1.1-1.14-2.11-1.91-3.51-.45,1.01-.79,1.61-1,2.25-2.02,6.19-5.54,11.5-9.25,16.79-3.12,4.44-5.68,9.27-8.48,13.93-.32,.54-.58,1.11-.83,1.61-2.38-4.11-4.34-8.28-7.01-11.93-5.04-6.9-10.09-13.73-12.52-22.92Zm19.59-178.22c-1.65,2.15-3.11,4.35-4.87,6.26-1.79,1.93-3.88,3.59-5.85,5.35-2.23,2-4.58,3.89-6.7,5.99-11.58,11.49-16.39,22.24-9.78,37.63,2.33,5.44,4.85,10.81,7.59,16.88,.74-2.06,1.01-3.38,1.65-4.5,5.85-10.35,11.76-20.67,17.95-31.52,4.54,13.01,15.58,21.99,19.37,35.37,3.14-6.21,5.79-12.49,8.48-18.75,4.07-9.48,2.64-18.5-3.39-26.41-4.18-5.47-9.49-10.11-14.47-14.94-3.64-3.53-7.89-6.48-9.97-11.37Zm-52.27,104.72c-6.41-3.8-13.74-6.22-21.31-7.85-2.96-.64-6.15-1.09-9.11-.71-9.19,1.19-15.77,6.81-21.57,13.6-4.8,5.62-8.35,12.37-14.56,16.06,2.55,2.45,5.13,4.69,7.43,7.18,4.59,4.98,8.64,10.52,13.62,15.05,6.92,6.29,15.19,9.15,24.63,6.24,4.78-1.47,9.54-3.05,14.21-4.81,2.66-1.01,5.14-2.5,7.37-3.61-10.92-6.81-21.71-13.54-32.17-20.06,10.25-6.87,20.86-13.98,31.47-21.09Zm135.36,21.09c-4.92,3.14-10.21,6.55-15.54,9.89-5.39,3.38-10.82,6.69-16.35,10.1,6.37,3.75,13.33,6.36,20.57,8.16,3.12,.78,6.45,1.46,9.59,1.19,9.07-.8,15.69-6.08,21.46-12.71,4.93-5.67,8.76-12.37,14.97-16.01-3.28-3.69-6.49-7.36-9.76-10.98-3.95-4.36-7.6-9.08-12-12.93-5.98-5.24-13.19-8.03-21.26-6.03-6.12,1.52-12.07,3.72-18.04,5.78-1.83,.63-3.49,1.78-5.05,2.6,5.48,3.53,10.81,6.88,16.05,10.37,5.32,3.55,10.54,7.23,15.37,10.56Zm-168.4-139.98c-1.81-1.11-2.88-1.84-4.02-2.46-8.52-4.6-17.7-6.78-27.32-7.05-20.41-.58-34.26,12.89-34.44,33.3-.11,11.71,3.09,22.51,8.93,32.81,7.27-3.55,13.71-7.22,13.72-16.99,0-9.89,.66-19.72-3.9-28.94-.25-.5-.26-1.11-.44-1.91,3.34,1.18,6.3,2.53,9.4,3.27,8.61,2.06,17.33,1.15,26.02,.51,.79-.06,1.74-.58,2.27-1.19,3.24-3.65,6.38-7.38,9.77-11.35Zm226.71,57.07c1.76-3.69,3.34-6.64,4.59-9.72,4.04-9.96,5.98-20.27,3.96-30.97-2.43-12.87-9.84-21.26-22.79-24.51-8.08-2.03-16.06-1.46-24.03,.41-6.27,1.46-12.19,3.77-18.32,7.48,3.23,3.89,6.19,7.57,9.3,11.12,.7,.8,1.87,1.56,2.88,1.65,11.43,1.01,22.88,1.98,33.67-3.41,.35-.18,.78-.21,1.62-.42-1.05,2.88-2.18,5.34-2.85,7.91-2.36,9.1-1.95,18.36-.91,27.56,.23,2,1.51,4.28,3.01,5.64,2.9,2.62,6.3,4.68,9.87,7.25Zm-141.71,240.59c-.55-3.6-3.11-5.54-5.43-7.65-2.22-2.01-4.53-3.92-6.7-5.98-5.52-5.23-9.81-11.28-11.85-18.71-.66-2.38-1.03-4.84-1.61-7.59-4.36,6.08-10.02,9.97-16.4,12.95,1.15,8.41,4.6,15.55,10.05,21.82,5.58,6.42,11.86,11.68,20.87,11.94,7.57,.22,15.17,.37,22.72-.08,3.57-.21,7.54-1.13,10.5-3.03,10.58-6.77,17.5-16.36,20.11-28.84,.28-1.33,.03-1.97-1.33-2.59-5.7-2.58-10.55-6.31-14.35-11.34-.22-.3-.58-.49-.56-.47-1.04,3.73-1.85,7.52-3.16,11.12-2.76,7.62-8.3,13.16-14.25,18.36-3.31,2.89-7.41,5.12-8.59,10.07Zm132.94-25.46c-3.06-1.09-5.69-2.29-8.44-2.95-7-1.69-14.15-1.15-21.28-1.31-8.8-.2-13.7,5.75-16.83,12.7,8.71,6.59,29.29,12.14,42.82,7.78,9.72-3.13,16.27-9.14,19.49-18.78,3.87-11.61,2.92-23.09-1.39-34.34-1.42-3.71-3.4-7.2-5.28-11.12-2.94,1.81-5.46,3.09-7.66,4.79-2.75,2.12-5.25,4.7-5.63,8.34-1.16,11.11-1.4,22.17,3.54,32.65,.28,.59,.38,1.27,.66,2.26Zm-265.66,.04c.19-.72,.24-1.15,.41-1.51,4.36-9.12,4.64-18.86,4.24-28.67-.14-3.43-.39-6.86-2.74-9.71-2.99-3.63-6.87-5.9-11.09-7.67-.32,.3-.54,.45-.69,.66-.31,.43-.61,.86-.86,1.33-6.28,11.58-8.95,23.88-6.59,36.93,2.48,13.73,10.41,22.59,24.32,25.56,7.94,1.7,15.77,.8,23.5-1.31,5.84-1.59,11.37-3.91,16.54-7.14-.8-1.35-1.41-2.53-2.15-3.62-3.71-5.51-8.17-9.71-15.52-9.02-1.48,.14-2.99-.11-4.49-.16-7.98-.24-15.84,.21-23.18,3.84-.43,.21-.94,.27-1.71,.49Zm158.32-250.1c4.04-5.71,8.97-9.35,14.58-12.06,1.62-.78,1.82-1.58,1.45-3.23-2.06-9.3-7.22-16.68-13.91-23.19-3.6-3.51-7.7-6.04-12.74-6.98-8.05-1.5-16.16-1.56-24.22-.7-4.13,.44-8.73,1.11-12.09,3.27-10.74,6.92-17.99,16.61-20.36,29.73,6.39,2.74,11.78,6.75,16.05,12.32,.63-2.72,1.1-5.14,1.76-7.5,2.83-10.12,9.93-16.99,17.73-23.38,2.43-1.99,4.51-4.4,6.68-6.55,.65,3.1,3.73,4.95,6.47,7.07,10.11,7.82,17.43,17.33,18.6,31.19Zm-167.01,72.21c-5.82,1.47-11.21,4.32-15.9,8.4-8.48,7.36-14.01,15.98-13.11,27.95,.58,7.8,.25,15.68,.04,23.51-.15,5.47,1.36,10.28,4.8,14.42,2.64,3.17,5.37,6.32,8.42,9.09,4.67,4.24,10.19,7.02,16.17,8.4,2.42-4.82,4.73-9.4,7.07-14.06-12.55-5.69-20.39-15.75-25.4-28.25-.7-1.75-1.05-4.1-.47-5.81,4.35-12.91,12.09-23.13,24.47-29.42,.5-.25,.97-.58,1.11-.67-2.44-4.59-4.77-8.99-7.2-13.56Zm275.46,77.73c2.49,4.82,4.86,9.38,7.28,14.08,.42-.09,1.03-.18,1.6-.36,9.51-3.05,16.73-9.12,22.59-17.03,2.8-3.78,4.56-7.83,4.55-12.65-.04-9.86,.18-19.73,.05-29.59-.04-2.77-.33-5.79-1.48-8.25-5.55-11.85-14.48-20.07-26.91-24-2.51,4.66-4.94,9.16-7.4,13.74,.21,.12,.5,.3,.8,.46,11.93,6.04,19.48,15.84,24.33,28.03,1.01,2.55,1.01,4.84-.04,7.36-5.17,12.44-12.83,22.6-25.37,28.21Zm-135.84,137.87c-2.48,0-4.41,.12-6.32-.02-4.02-.3-8.08-.42-12.02-1.19-4.27-.83-8.16-.53-11.94,1.66-5.87,3.4-10.88,7.75-14.93,13.21-.9,1.22-1.84,2.41-2.98,3.9-2.62-17.79-11.9-31.13-23.38-33.34,2.59,3.97,4.76,7.79,7.4,11.27,4.63,6.12,8.12,12.73,9.95,20.19,.75,3.07,1.5,6.14,2.29,9.2,.99,3.87,1.51,4.32,5.43,4.23,8.09-.18,15.54-2.6,22.52-6.63,9.56-5.51,16.64-13.67,23.98-22.48Zm75.42-15.54c-14.68,6.1-22.77,16.77-22.83,33.66-1.37-1.75-2.13-2.68-2.85-3.64-4.14-5.58-9.16-10.2-15.12-13.79-2.94-1.76-6.13-3.19-9.51-2.29-6.74,1.79-13.58,1.65-20.43,1.73-.09,0-.17,.25-.56,.88,5.39,5.36,10.6,11.12,16.42,16.17,8.02,6.95,17.47,11.13,28.18,11.88,6.29,.44,6.44,.31,7.62-5.86,2.14-11.14,6.11-21.38,13.55-30.16,2.18-2.58,3.71-5.71,5.53-8.59Zm-76.39-324.9c-2.01-2.18-4.46-4.92-7-7.58-10.14-10.67-22.16-17.76-37-19.59-5.23-.65-6.23-.19-7.28,4.95-2.13,10.49-5.81,20.21-12.63,28.66-2.55,3.16-4.47,6.83-7.08,10.9,14.88-6.78,23.15-17.32,23.7-33.44,1.54,1.75,2.62,3.33,3.72,4.89,3.78,5.34,8.61,9.49,14.28,12.73,3.04,1.74,6.26,2.33,9.67,1.78,6.65-1.07,13.29-2.23,19.62-3.29Zm76.37,16.56c-2.75-4.23-5.28-8.62-8.3-12.64-4.57-6.09-7.72-12.72-9.24-20.17-.54-2.66-1.4-5.26-1.92-7.92-.44-2.26-1.86-3.22-3.91-3.04-3.32,.28-6.67,.56-9.9,1.32-16.18,3.84-27.57,14.63-37.64,26.06,5.61,.75,11.67,1.16,17.53,2.48,4.3,.97,8.12,.89,11.94-1.2,6.13-3.34,11.26-7.8,15.19-13.6,.88-1.29,1.79-2.55,2.68-3.83l.69-.23c.16,16.18,8.49,26.59,22.87,32.77Zm-58.29,169.23c-.16-6.42,2.46-11.56,6.54-16.17-3.92-4.54-6.34-9.59-6.54-15.7-5.87,.04-10.81-2.01-14.61-5.11-3.82,1.61-7.07,3.64-10.58,4.27-3.7,.66-5.4,1.59-6.03,5.75-.57,3.78-3.15,7.26-5.04,11.27,3.72,4.11,6.12,9.45,6.25,15.7,5.94,.29,10.64,2.86,14.87,6.55,4.34-3.73,9.15-6.11,15.14-6.57Zm145.41,55.18c3.46-2.4,7.03-4.66,10.36-7.22,4.38-3.36,9.04-6.06,14.34-7.66,3.36-1.01,6.73-2.04,10.07-3.11,3.7-1.18,4.23-1.84,4.1-5.65-.31-9.67-3.24-18.62-8.81-26.41-4.56-6.38-10.02-12.12-15.07-18.14-.24,.11-.48,.23-.73,.34,.16,2.32,.11,4.68,.52,6.96,.84,4.67,1,9.24-.46,13.83-1.28,4.02-.77,8,1.78,11.3,3.21,4.17,6.83,8.02,10.29,12,.65,.74,1.37,1.43,2.28,2.37-14.12,1.16-22.87,7.12-28.67,21.39Zm-335.6-68.57c-2.96,3.1-5.63,5.87-8.27,8.66-8.27,8.77-14.18,18.83-16.05,30.88-1.47,9.51-1.62,9.85,7.4,12.25,8.52,2.27,16.34,5.8,23.11,11.61,2.39,2.05,5.33,3.46,8.55,5.49-5.82-13.09-15-20.6-29.73-21.7,1.97-1.76,3.4-2.82,4.55-4.13,2.72-3.1,5.47-6.2,7.91-9.52,2.81-3.82,3.67-8.12,1.96-12.73-1.42-3.85-1.1-7.76-.47-11.71,.47-2.94,.68-5.92,1.03-9.1Zm-14.85-48.44l.38-.95c14.2-.8,23.22-8.59,28.88-20.94-3.41,1.84-6.85,3.69-9.83,6.1-5.3,4.3-11.28,7.07-17.75,8.97-2.78,.81-5.53,1.71-8.32,2.5-2.6,.74-3.71,2.41-3.59,5.08,.37,8.23,2.7,15.86,6.64,23.07,4.53,8.29,11.46,14.46,18.11,20.93,0-1.03,.15-2.02-.02-2.95-1.12-6.2-1.78-12.36,.55-18.46,.18-.47,.11-1.05,.13-1.57,.2-5.48-2.86-9.53-6.21-13.27-2.74-3.06-5.97-5.7-8.98-8.52Zm379.11-.97l.62,1.09c-.82,.5-1.8,.85-2.43,1.53-3.52,3.81-7.12,7.55-10.36,11.59-2.99,3.71-3.44,7.99-2.28,12.72,.8,3.24,.74,6.73,.76,10.11,.01,2.71-.44,5.43-.69,8.14l.84,.37c3.09-3.24,6.23-6.44,9.26-9.73,8.42-9.14,13.6-19.77,14.62-32.28,.38-4.69-.43-5.96-4.86-7.3-.67-.2-1.34-.4-2.02-.58-9.16-2.47-17.8-5.91-25.1-12.26-2.07-1.8-4.73-2.92-7.12-4.36,5.72,12.41,14.67,20.26,28.76,20.96Zm-41.8,47.33c-1.6,1.33-3.84,2.68-5.42,4.58-5.81,7.01-12.24,13.07-21.28,15.23,3.25,2.92,6.31,5.79,9.54,8.47,.54,.45,1.93,.37,2.66,0,9.33-4.6,15.88-11.88,20.8-20.99,2.59-4.78,3.33-9.04,.06-13.66-1.11-1.56-1.8-3.42-2.81-5.06-4.78-7.77-11.42-13.43-19.42-17.12-3.66,3.31-7.13,6.46-10.63,9.63,7.16,1.42,12.9,5.21,17.82,10.53,2.76,2.99,5.86,5.67,8.68,8.37Zm-268.38-18.94c-3.62-3.25-7.13-6.39-10.71-9.6-9.29,4.09-16.48,10.61-21.16,19.66-5.55,10.74-5.3,7.89,.2,18.43,4.33,8.28,11.03,14.27,19.3,18.55,1.09,.57,1.93,1.1,3.2-.18,2.82-2.86,5.95-5.41,8.92-8.06-6.46-1.66-12.04-5.29-16.76-10.37-3.23-3.47-6.62-6.79-9.5-9.74,2.62-2.6,5.71-5.52,8.63-8.6,4.92-5.19,10.69-8.79,17.89-10.1Zm141.99,66.63c1.54,.56,3.21,1.48,4.98,1.76,9.74,1.52,19.49,2.89,29.23,4.3-4.56-10.45-3.41-22.61-9.72-32.67-6.89,2.47-13.9,3.35-21.62,1.42,4.66,5.28,8.92,10.1,13.19,14.92l-.61,.63c-4.89-4.21-9.77-8.42-14.61-12.59,.28,3.7,.85,7.29,.72,10.85-.13,3.64-.96,7.26-1.54,11.37Zm-66.46-26.7c-6.14,10.3-5.43,22.27-9.69,33.07,11.32-3.49,23.58-.97,34.44-6.73-2.69-7.1-2.71-14.36-.9-22.09-5.34,4.61-10.26,8.86-15.19,13.11l-.55-.56c4.33-4.94,8.67-9.88,13.3-15.15-7.64,1.65-14.62,1.14-21.41-1.65Zm82.26-61.05l.62,.63c-4.36,5.19-8.73,10.37-13.5,16.04,6.8-1.58,12.93-1.87,18.87,.36,2.43,.91,3.58,.28,4.2-2.02,2.61-9.77,5.23-19.54,7.88-29.45-11.45,3.26-23.75,.57-34.77,6.18,2.71,7.28,3.15,14.73,1.18,22.76,5.56-5.18,10.54-9.84,15.53-14.49Zm-60.89,16.49c-4.9-5.79-9.35-11.06-13.8-16.33l.7-.62c5.19,4.84,10.39,9.67,15.82,14.73-2.18-7.78-1.53-15.19,1.15-22.67-1.48-.57-2.73-1.33-4.07-1.53-10.13-1.52-20.28-2.94-30.08-4.34,1.3,6.18,2.45,12.37,3.94,18.47,1,4.07,2.4,8.06,3.82,12.01,.22,.61,1.69,1.38,2.25,1.18,6.49-2.39,13.06-2.51,20.27-.91Zm194.07-4.28c1.44-6.75,5.7-11.34,9.89-16.13-13.12-4.64-20.85-13.88-24.49-26.83-.14-.49-.37-1.1-.76-1.34-3.99-2.45-8.01-4.84-12.49-7.52,2.2,10.42,2.36,20.14,.09,29.94,12.37,3.24,20.93,11.19,27.75,21.87Zm-266.89-94.42c-9.56,1.62-18.76,1.21-28.02-.43,2.07,9.34,2.6,18.45,.71,27.72h29.11c-.57-4.25-1.43-8.75-1.73-13.29-.31-4.63-.07-9.29-.07-14Zm220.71,26.66c-1.87-8.74-1.11-17.92,.44-26.72-4.78,.36-9.33,.91-13.89,.99-4.51,.08-9.02-.33-13.09-.5-.64,8.96-1.29,18.12-1.93,27.12,9.51-.3,18.97-.6,28.47-.89Zm-248.73,219.9c9.44-1.71,18.58-2.04,27.3-.33,.71-9.21,1.4-18.28,2.08-27.11-9.48,.27-18.98,.54-28.49,.82,2.05,8.48,.87,17.43-.89,26.63Zm248.62-26.59c-9.62-.3-19.06-.6-28.37-.89,.63,8.95,1.28,18.04,1.92,27.21,8.88-1.96,18.11-1.46,27.4,.22-1.95-9.06-2.7-17.94-.96-26.54Zm-139.49-148.2c4.83,4.18,9.56,8.28,14.16,12.27,.32-6.01,.65-12.39,.99-18.77h.68c.5,6.45,1,12.92,1.46,18.88,4.65-4.09,9.3-8.18,14.08-12.38-3.45-10.06-10.25-18.64-15.8-27.91-5.62,9.25-12.34,17.83-15.58,27.9Zm15.72,127.55c5.52-9.31,12.71-17.5,15.86-27.32-4.93-4.41-9.7-8.67-14.22-12.7-.49,6.59-1.02,13.56-1.54,20.53l-.69-.03c-.32-6.99-.65-13.99-.94-20.37-4.52,3.94-9.29,8.09-14.24,12.4,3.01,10,10.19,18.27,15.78,27.49Zm-47.6-60.62c4.45-5.5,8.38-10.37,12.25-15.16-5.91-.38-12.3-.78-18.69-1.19v-.81c6.73-.42,13.46-.84,20.76-1.3-6.5-3.84-10.53-9.17-14-15.91-9.07,6.08-17.88,11.99-26.8,17.97,9.12,5.64,17.98,11.13,26.49,16.4Zm101.75-17.21l-.02,.83c-6.37,.44-12.74,.88-18.53,1.28,3.89,4.86,7.76,9.69,12.11,15.12,8.42-5.27,17.31-10.83,26.37-16.5-8.96-5.94-17.77-11.78-26.82-17.78-3.34,6.82-7.63,11.9-13.68,15.95,7.22,.39,13.9,.74,20.57,1.1Zm56.64,45.03c-4.92,2.13-9.79,4.25-14.57,6.32,.88,3.24,1.32,6.64,2.71,9.58,3.03,6.41,14.13,11.78,21.67,10.83-4.94-8.35-4.28-18.66-9.81-26.72Zm-222.04-.17c-2.9,8.98-5.82,18-8.79,27.19,6.47-.25,12.48-2.25,17.45-6.8,1.7-1.56,3.34-3.46,4.28-5.53,1.16-2.58,1.57-5.5,2.29-8.26-4.82-2.08-9.69-4.19-15.23-6.59Zm15.1-94.18c-1.47-5.56-3.02-10.86-8.11-14.35-4.88-3.35-10.1-5.03-16.2-5.13,4.43,8.37,4.22,18.17,9.57,25.89,4.99-2.17,9.88-4.3,14.74-6.41Zm207.03,6.32c5.34-7.71,5.48-17.48,9.74-25.77-12.48-.33-21.72,7.16-24.2,19.46l14.47,6.3Zm-112.75,191.9c.58-14.4-8.84-31.42-19.67-35.45-.79,15.94,7.81,26.52,19.67,35.45Zm4.02-.37c14.76-9.8,21.19-24.88,19.04-34.9-12.29,7.34-19.85,21.19-19.04,34.9Zm-75.79-34.42c8.52-1.74,16.7-3.41,25.19-5.15-1.68-5.29-3.14-9.89-4.53-14.28-3.5,.62-6.42,1.12-9.33,1.69-.58,.11-1.23,.34-1.67,.72-5.2,4.51-8.44,10.15-9.66,17.02Zm-.35-226.88c1.61,8.93,6.48,18.71,20.78,19.32,1.38-4.44,2.78-8.94,4.39-14.1-8.6-1.79-16.86-3.5-25.17-5.22Zm147.55,226.78c-1.09-6.63-4.42-12.31-9.51-17.03-.25-.23-.58-.46-.9-.52-3.23-.6-6.47-1.17-9.97-1.79-.82,2.39-1.73,4.85-2.49,7.35-2.13,6.98-2.11,7.06,5.16,8.58,5.81,1.22,11.66,2.26,17.71,3.42Zm-75.38-260.84c-11.95,6.11-22.42,24.71-19.48,34.61,12.54-7.84,18.34-18.37,19.48-34.61Zm23.34,34.71c.8-13.4-8.97-30.59-19.48-34.56-.32,13.69,7.25,27.21,19.48,34.56Zm52.48-.69c-8.41,1.78-16.69,3.52-25.2,5.32,1.67,5.21,3.1,9.68,4.57,14.24,5.15-1.62,10.55-1.19,14.13-6.05,3.11-4.23,5.58-8.55,6.5-13.51Zm-103.62,10.96c0-3.64,5.48-4.12,4.07-7.89-1.11-2.95-3.25-5.61-5.29-8.1-2.98-3.64-6.87-6.13-11.14-7.88-.84,5.01-1.69,9.76-2.37,14.53-.1,.71,.41,1.91,.99,2.23,4.3,2.34,8.69,4.52,13.75,7.11Zm-.59,205.44c-4.75,2.47-9.4,4.88-14,7.27,.7,5.45,1.38,10.8,2.06,16.16,6.47-2.12,14.63-9.88,16.93-16.17,.22-.59,.12-1.59-.25-2.05-1.43-1.76-3.04-3.37-4.74-5.21Zm55.06,6.5c3.69,7.81,9.51,13.33,17.41,17.07,.69-5.49,1.37-10.69,1.96-15.89,.04-.37-.39-.98-.76-1.17-4.26-2.22-8.56-4.38-12.87-6.57-1.88,2.15-3.72,4.26-5.74,6.56Zm17.44-235.74c-7.59,3.57-13.22,8.62-16.73,15.88-.26,.54-.38,1.51-.08,1.88,1.59,1.96,3.33,3.79,5.05,5.7,4.75-2.45,9.47-4.88,14-7.22-.75-5.45-1.47-10.65-2.25-16.25Zm62.03,101.4c1.43,1.81,2.74,3.57,4.16,5.23,.38,.45,1.19,.95,1.66,.84,7.19-1.62,12.92-5.5,17.53-11.38-5.08-2.51-9.92-4.91-14.88-7.36-2.76,4.13-5.58,8.35-8.47,12.67Zm-232.06-5.34c4.7,5.41,9.97,9.48,16.82,11.11,.62,.15,1.64,.07,2-.33,1.57-1.73,2.96-3.62,4.44-5.48-2.78-4.27-5.51-8.45-8.27-12.69-4.96,2.44-9.8,4.83-14.98,7.38Zm110.62-16.35c-2.25,6.36-2.69,12.38-1.48,18.55,.47,2.37,1.6,3.86,4.09,3.09,3.13-.97,6.36-1.94,9.16-3.59,3.05-1.79,3.16-3.33,1.28-6.33-3.15-5.03-7.79-8.43-13.05-11.73Zm34-.26c-3.26,2.66-6.36,4.81-8.98,7.45-1.8,1.81-3.15,4.19-4.22,6.54-.42,.93,.09,2.83,.85,3.64,2.85,2.99,6.55,4.23,10.67,4.39,1.95,.08,2.89-.72,3.27-2.58,1.31-6.35,.92-12.55-1.61-19.44Zm-34.36,92.84c5.54-3.25,10.45-6.71,13.49-12.27,.94-1.73,.8-3.06-.6-4.47-2.92-2.94-6.4-4.7-10.5-4.85-1-.04-2.63,.95-2.96,1.84-2.42,6.54-1.74,13.05,.57,19.74Zm-26.2-28.01c6.03,2.15,11.81,3.4,17.94,1.7,1.85-.51,2.49-1.58,2.55-3.42,.12-4.09-1.25-7.56-4.01-10.52-2.66-2.87-3.6-2.98-6.6-.56-4.16,3.36-7.25,7.59-9.88,12.8Zm-.44-36.83c2.99,5.64,6.41,10.43,11.73,13.63,1.59,.96,2.83,.86,4.14-.51,3.03-3.18,4.72-6.89,5-11.29,.11-1.82-.67-2.73-2.36-3.21-6.25-1.76-12.3-1.16-18.51,1.38Zm87.99,36.79c-2.87-5.47-6.22-10.1-11.04-13.57-1.63-1.17-3.05-1.05-4.46,.32-3.3,3.2-5.17,7-5.07,11.7,.04,1.77,.78,2.69,2.49,3.14,6.1,1.63,11.94,.71,18.07-1.59Zm.22-36.78c-6.35-2.59-12.56-3.28-18.86-.92-.84,.31-1.79,1.82-1.75,2.73,.2,4.45,1.91,8.33,5.17,11.48,1.27,1.23,2.49,1.37,3.98,.43,5.23-3.31,8.73-8.01,11.45-13.71Zm-156.73,57.57c2.78-4.38,5.54-8.72,8.27-13.01-1.21-1.47-2.2-2.95-3.47-4.13-.65-.6-1.86-1.08-2.68-.93-6.89,1.29-12.45,4.85-17.02,10.26,5.01,2.63,9.88,5.18,14.91,7.81Zm216.94-13.15c2.85,4.41,5.65,8.73,8.47,13.1,4.97-2.56,9.77-5.03,14.58-7.51-2.93-4.16-7.76-7.54-13.79-9.67q-4.51-1.59-7.54,2.11c-.55,.67-1.14,1.3-1.72,1.96Zm-86.64,20.28c2.15-6.42,2.64-12.68,.73-19.03-.55-1.82-1.67-2.6-3.77-2.35-3.46,.42-6.33,1.91-9.04,3.96-2.15,1.63-2.38,3.45-1.04,5.71,3.09,5.26,7.65,8.79,13.12,11.7Zm-104.21-9.19c-4.92-2.53-9.93-5.1-14.97-7.68-2.29,3.49-4.83,7.35-7.53,11.47,4.62,2.01,9.09,4.02,13.62,5.87,.55,.23,1.74-.16,2.14-.66,2.39-3.02,4.64-6.16,6.75-9Zm173.3-.15c2.12,2.88,4.41,6.08,6.81,9.18,.35,.45,1.42,.81,1.91,.61,4.58-1.86,9.11-3.85,13.69-5.81-2.79-4.25-5.33-8.12-7.61-11.58-5.05,2.59-10,5.13-14.8,7.6Zm22.63-76.25c-5.28-2.25-10.15-4.32-14.79-6.29-2.81,3.59-5.32,6.78-7.57,9.66,4.89,2.7,9.68,5.34,14.66,8.09,2.37-3.52,4.9-7.29,7.7-11.46Zm-218.67,.09c2.81,4.18,5.3,7.88,7.55,11.22,5.24-2.77,10.22-5.42,14.99-7.94-2.02-2.6-4.17-5.49-6.48-8.25-.47-.56-1.72-1.06-2.31-.82-4.55,1.8-9.03,3.78-13.74,5.79Zm71.82-45.55c1.52-4.6,3.07-9.32,4.67-14.18-3.98-2.13-8.19-4.39-12.36-6.62-1.49,4.6-2.91,9-4.29,13.27,4.03,2.53,8.08,5.08,11.99,7.53Zm87-7.44c-1.39-4.34-2.8-8.75-4.24-13.24-4.22,2.22-8.37,4.42-12.25,6.46,1.63,4.96,3.2,9.71,4.68,14.21,3.87-2.43,7.79-4.9,11.82-7.43Zm-82.17,192.18c-1.7-4.89-3.29-9.46-4.82-13.84-3.91,2.32-7.88,4.69-11.82,7.03,1.39,4.25,2.83,8.61,4.38,13.33,4.25-2.26,8.4-4.46,12.26-6.51Zm65.77-.18c3.89,2.12,7.93,4.31,11.92,6.48,1.56-4.72,3.01-9.11,4.38-13.23-4.01-2.38-7.94-4.72-11.66-6.93-1.49,4.39-3,8.85-4.64,13.68Zm-145.53-114.3c-9.87-1.66-21.76,4.07-27.25,13.02,8.59,1.55,22.1-4.83,27.25-13.02Zm251.74,13.02c-6.27-9.2-18.8-15.26-26.74-12.93,4.27,7.8,17.87,14.38,26.74,12.93Zm.14,3.77c-11.23,2.16-21.47,4.67-28.26,14.97,12.3,.21,20.86-5.45,28.26-14.97Zm-250.77,14.94c-7.01-10.1-17.07-12.88-28.3-14.89,7.38,9.42,15.9,15.19,28.3,14.89Zm-4.07,57.92c2.56,1.68,14.52,3.76,18.75,3.26-.58-1.83-1.29-3.63-1.71-5.5-.43-1.89-.57-3.85-.86-5.93-5.59,4.86-8.72,6.42-16.18,8.17Zm212.56,3.56c5.94-.8,12.09-1.17,17.92-3.36-6.13-1.25-11.36-4.02-15.65-8.4-.79,4.09-1.51,7.84-2.27,11.76Zm18.33-151.13l.05-.79c-6.13-.91-12.25-1.82-18.23-2.71,.7,4.12,1.35,7.93,2.02,11.8,4.39-4.64,10.02-6.97,16.17-8.3Zm-212.54-3.45c-6.3,.91-12.4,1.78-18.5,2.66l.08,.84c6.35,.79,11.58,3.92,16.16,7.94,.74-3.75,1.45-7.32,2.27-11.44Zm166.19,172.09c2.48,4.02,4.96,8.04,7.49,12.15,.39-4.46,.77-8.88,1.17-13.38-3.19,.45-6.04,.85-8.66,1.22Zm-145.68,12.03c2.61-4.17,5.09-8.13,7.47-11.94-2.69-.39-5.49-.79-8.53-1.22,.37,4.55,.71,8.87,1.06,13.16Zm153.05-215.21c-2.48,3.84-4.92,7.64-7.25,11.26,2.6,.5,5.42,1.04,8.41,1.62-.38-4.25-.76-8.52-1.16-12.88Zm-153.06,.52c-.33,4.18-.66,8.3-.99,12.46,3-.64,5.69-1.21,8.12-1.72-2.28-3.44-4.62-6.97-7.13-10.74Z"/><path d="M315.78,156.71c-1.43-1.95-2.52-4.33-4.35-5.77-11.28-8.93-16.61-20.81-17.83-34.83-.08-.92-.01-1.85-.01-3.34,1.36,.91,2.33,1.44,3.17,2.13,12.58,10.31,18.99,23.66,19.43,39.88,.02,.62-.32,1.24-.49,1.86l.08,.06Z"/><path d="M401.21,291.53c3.93,.02,7.11,3.26,7.12,7.24,0,4.18-3.13,7.29-7.33,7.26-4.01-.03-7.11-3.18-7.09-7.24,.02-4.25,3.07-7.28,7.3-7.27Z"/></svg>