<?xml version="1.0" encoding="UTF-8"?><svg id="a" xmlns="http://www.w3.org/2000/svg" viewBox="0 0 800 600.7"><path d="M145.65,296.82c11.65-4.06,19.81-12.36,27.75-21.09,9.21-10.12,19.81-18.44,32.88-23.15,.94-.34,1.89-.66,2.83-1,.04-.02,.05-.12,0,.04-3.95-2.87-8.14-5.38-11.7-8.59-12.11-10.92-18.2-25.12-21.29-40.8-.95-4.84-1.46-9.79-2.83-14.5-1.51-5.2-3.76-10.18-5.39-14.44,3.76,0,8.37,.05,12.98-.01,7.61-.1,14.73-2.42,21.81-4.93,8.19-2.89,16.39-5.64,25.15-6.35,7.65-.62,14.93,.46,21.9,3.67,.39,.18,.8,.29,.68,.25-.46-5.39-1.67-10.93-1.2-16.32,.53-6.11,2.05-12.26,4.05-18.08,4.4-12.78,9.81-25.27,7.72-39.23,4.51,2.9,8.62,5.91,13.05,8.31,8.28,4.49,17.49,5.53,26.67,6.66,12.92,1.59,25.38,4.63,35.75,13.15,2.66,2.19,5.03,4.74,7.67,7.26,.5-2.05,.93-4.14,1.51-6.19,3.61-12.6,10.47-23.32,19.51-32.62,5.93-6.1,12.37-11.69,18.59-17.5,6.76-6.31,12.44-13.39,15.68-22.16,.27,.03,.55,0,.58,.08,4.76,11.17,12.87,19.62,21.9,27.38,10.46,8.99,20.34,18.6,26.61,31.09,2.91,5.8,4.57,12.24,6.8,18.38,.18,.51,.36,1.02,.65,1.82,6.96-8.76,15.78-14.57,26.29-17.26,8.02-2.06,16.28-3.27,24.5-4.42,11.63-1.63,22.09-5.6,30.73-13.76,.24-.23,.55-.39,.71-.51,.29,4.74-.08,9.57,1,14.06,1.89,7.87,4.52,15.57,7.11,23.25,2.87,8.54,5.5,17.09,4.5,26.24-.37,3.41-1.2,6.77-1.74,9.7,4.33-.99,8.93-2.36,13.63-3.03,10.44-1.5,20.26,1.46,30.05,4.66,6.49,2.12,13.05,4.08,19.68,5.73,5.93,1.47,11.99,1.07,18,.13,.68-.11,1.4-.01,2.51-.01-5.42,7.79-6.82,16.61-8.53,25.39-1.35,6.96-2.89,13.97-5.32,20.61-5.23,14.3-14.17,25.69-28.67,32.69,1.23,.48,2.01,.8,2.79,1.1,12.67,4.8,23.18,12.72,32.38,22.51,2.44,2.6,4.84,5.25,7.27,7.87,5.87,6.34,12.83,11.03,21.1,13.68-.15,.34-.19,.58-.29,.62-9.76,3.48-17.38,9.83-24.1,17.56-9.08,10.43-19.3,19.51-31.98,25.44-2.11,.99-4.29,1.81-6.64,2.79,.36,.29,.59,.54,.88,.69,16.26,8.57,24.99,22.88,29.79,39.91,2,7.09,2.94,14.48,4.56,21.69,1.32,5.9,3.4,11.53,7.57,16.81-13.1-2.17-24.17,2.34-35.15,7.56-9.19,4.37-18.68,7.85-28.99,8.61-7.34,.54-14.35-.66-21.22-3.55,.83,3.76,1.77,7.33,2.4,10.96,1.71,9.85-.52,19.24-3.53,28.54-2.6,8.07-5.52,16.07-7.48,24.3-1.3,5.44-1.18,11.22-1.7,16.84-.02-.01-.5-.19-.82-.52-8.38-8.65-18.89-12.84-30.55-14.74-9.9-1.61-19.91-2.79-29.35-6.52-7.97-3.15-14.85-7.82-20.37-14.43-.33-.4-.69-.79-1.23-1.4-.67,3.14-1.14,6.01-1.92,8.8-4.28,15.44-13.7,27.5-25.32,38.05-4.47,4.06-9.26,7.77-13.65,11.91-3.11,2.94-6.04,6.16-8.58,9.59-2.53,3.41-4.48,7.24-6.49,10.57-2.78-4.22-5.26-9.2-8.86-13.16-5.64-6.21-11.93-11.85-18.15-17.52-11.29-10.3-20.99-21.7-25.97-36.45-1.22-3.62-2-7.38-3.02-11.26-1.76,1.85-3.51,3.89-5.47,5.7-8.79,8.11-19.6,11.78-31.08,13.93-7.18,1.34-14.42,2.41-21.56,3.94-8.67,1.86-16.27,5.92-22.67,12.12-.44,.42-.91,.8-1.72,1.49,.68-7.68,.37-14.88-1.69-21.84-1.84-6.2-3.96-12.33-6.2-18.41-4.77-12.94-6.72-25.97-2.08-39.39,.05-.14-.06-.34-.08-.43-3.87,.88-7.69,2.02-11.6,2.59-11.36,1.66-21.9-1.59-32.21-5.87-5.81-2.41-11.53-5.06-17.38-7.38-6.64-2.64-13.59-3.54-20.72-3.17-.88,.05-1.77,0-3,0,6.59-9.06,7.65-19.6,9.76-29.85,3.15-15.32,8.81-29.47,20.85-40.14,3.71-3.29,8.02-5.89,12.06-8.81-15.9-5.49-28.18-16.21-39.19-28.62-6.73-7.58-14.34-13.83-24.19-17.28Zm253.79,243.24c2.38-2.71,4.38-5.48,6.86-7.72,5.23-4.72,10.74-9.11,16.07-13.71,14.33-12.36,23.9-27.52,26.94-46.41,.73-4.51,.95-9.1,1.43-13.83,.48,.89,.91,1.69,1.34,2.47,3.34,6.06,7.39,11.54,12.84,15.91,8.66,6.95,18.83,10.29,29.52,12.33,7.26,1.39,14.64,2.2,21.81,3.96,4.95,1.21,9.61,3.6,14.48,5.49,.2-1.23,.26-2.71,.69-4.07,2.25-7.22,4.29-14.53,6.97-21.6,6.66-17.59,6.62-34.62-3.29-51.08-.11-.18-.01-.48-.01-.7,4.02,1.99,7.86,4.31,11.99,5.85,13.66,5.12,27.11,3.18,40.42-1.7,10.56-3.87,19.92-10.91,31.26-11.68-1.03-5.53-2.28-10.84-2.97-16.23-3.24-25.29-15.8-43.75-39.33-54.3-1.79-.8-3.63-1.51-5.44-2.26,.13-.31,.15-.43,.18-.44,20.19-3.51,36.64-13.46,50-28.85,4.42-5.09,9.13-9.91,13.43-14.55-3.86-4.08-8.28-8.32-12.21-12.98-12.67-15.03-28.13-25.39-47.62-29.29-1.28-.26-2.55-.51-4.01-.8,.31-.31,.36-.4,.44-.43,.6-.23,1.21-.42,1.8-.66,17.76-7.13,30.95-18.78,38.4-36.88,4.54-11.01,3.57-22.98,7.42-33.64-4.42-.71-8.75-1-12.82-2.15-7.63-2.16-15.04-5.08-22.68-7.23-16.61-4.67-32.57-3.87-47.11,6.61-.16,.12-.45,.05-.96,.1,.46-.84,.79-1.45,1.13-2.07,5.98-10.84,8.36-22.33,4.85-34.36-3.42-11.74-7.55-23.28-11.14-34.2-5.41,1.59-10.88,3.67-16.55,4.77-7.79,1.51-15.8,1.91-23.58,3.43-13.41,2.61-24.98,8.67-33.43,19.79-2.02,2.65-3.87,5.43-5.57,7.83-.87-5.38-1.33-11.01-2.72-16.41-4.5-17.5-15.12-31-28.62-42.54-7.07-6.04-14.61-11.63-19.49-19.36-3.44,3.69-6.76,7.58-10.43,11.08-3.9,3.72-8.2,7.03-12.24,10.61-12.99,11.5-22.39,25.29-26.33,42.38-1.07,4.64-1.48,9.43-2.23,14.39-.35-.5-.62-.84-.83-1.21-8.81-14.98-22.07-23.59-38.95-26.7-6.91-1.27-14.01-1.52-20.88-2.91-6.36-1.29-12.53-3.5-18.86-5.33-.18,.99-.29,2.66-.79,4.2-2.63,8.06-5.25,16.13-8.07,24.13-5.05,14.36-4.5,28.16,3.62,41.34,.2,.32,.23,.73,.51,1.66-16.63-12.21-34.12-11.7-52.24-6.01-10.28,3.23-20.14,8.21-31.55,7.58,.67,2.35,1.42,4.32,1.77,6.37,.93,5.49,1.28,11.1,2.58,16.5,4.85,20.17,15.88,35.71,34.85,45.02,2.99,1.47,6.06,2.77,9.08,4.14-.09,.23-.11,.36-.17,.39-.25,.1-.51,.2-.77,.24-17.08,2.38-31.66,9.81-43.76,21.99-6.8,6.85-13.24,14.05-18.8,19.98,3.5,4.04,7.4,8.41,11.15,12.9,11.62,13.86,25.68,24.08,43.24,29.1,2.97,.85,6,1.48,9.2,2.26-.41,.35-.52,.51-.68,.57-1.02,.4-2.05,.78-3.06,1.18-22.4,8.83-35.66,25.38-40.69,48.66-1.59,7.34-2.41,14.85-3.61,22.44,7.13,.62,13.88,3.85,20.68,7,4.05,1.88,8.14,3.73,12.34,5.25,12.97,4.67,26.14,6.24,39.37,1.17,3.93-1.51,7.57-3.76,11.34-5.68,.04,.08,.13,.18,.1,.22-.37,.73-.73,1.46-1.12,2.18-6.39,11.56-9.11,23.76-5.41,36.7,3.65,12.73,7.79,25.32,11.71,37.97,6.01-3.27,12.63-5.42,19.64-6.53,7.12-1.12,14.27-2.2,21.29-3.8,14.22-3.25,26.24-10.01,34.16-22.8,1.27-2.05,2.4-4.18,3.65-6.37,.56,4.84,.8,9.51,1.69,14.05,.91,4.63,2.19,9.24,3.8,13.68,5.47,15.13,15.93,26.5,28.07,36.53,6.2,5.13,12.65,10.01,16.92,17.05Z"/><path d="M239.23,498.41c-3.17-.06-5.5-2.42-5.47-5.54,.03-3.12,2.69-5.78,5.74-5.74,2.85,.03,5.55,2.8,5.55,5.7,0,3.15-2.6,5.64-5.82,5.58Z"/><path d="M364.01,63.06c-.05-3.14,2.51-5.75,5.65-5.79,2.89-.03,5.64,2.6,5.77,5.5,.13,2.85-2.72,5.66-5.82,5.76-3.01,.09-5.56-2.4-5.61-5.47Z"/><path d="M436.47,62.98c.01,2.93-2.88,5.57-6.04,5.52-2.87-.05-5.34-2.62-5.35-5.56,0-3.01,2.55-5.64,5.55-5.7,3.06-.07,5.83,2.65,5.84,5.74Z"/><path d="M644.23,261.69c2.9-.09,5.82,2.77,5.86,5.74,.04,2.76-2.51,5.44-5.34,5.61-3.03,.18-5.91-2.49-5.96-5.54-.05-2.94,2.55-5.72,5.44-5.81Z"/><path d="M436.41,548.12c-.06,2.77-2.94,5.55-5.78,5.56-2.95,.02-5.59-2.64-5.6-5.61-.01-3.06,2.74-5.72,5.84-5.64,2.97,.07,5.6,2.77,5.54,5.69Z"/><path d="M375.43,548.24c-.04,2.75-2.98,5.5-5.86,5.48-3-.02-5.55-2.63-5.54-5.66,0-3.02,2.54-5.57,5.58-5.6,3.02-.04,5.86,2.78,5.82,5.78Z"/><path d="M561.04,117.95c-3.2,0-5.82-2.58-5.75-5.68,.07-2.96,2.69-5.54,5.64-5.57,2.89-.03,5.52,2.61,5.58,5.61,.06,3-2.5,5.64-5.48,5.64Z"/><path d="M161.07,267.44c.07,2.95-2.58,5.64-5.59,5.66-2.79,.02-5.43-2.53-5.58-5.4-.16-3.08,2.48-5.9,5.59-5.97,2.84-.06,5.51,2.67,5.58,5.71Z"/><path d="M160.85,325.66c-.03,3.15-2.46,5.55-5.6,5.53-2.96-.02-5.47-2.49-5.48-5.39,0-3.18,2.62-5.9,5.68-5.88,3.03,.01,5.43,2.57,5.4,5.75Z"/><path d="M198.52,446.36c.05,2.95-2.56,5.55-5.63,5.6-3.06,.04-5.66-2.49-5.65-5.52,0-3,2.61-5.63,5.6-5.66,2.98-.02,5.64,2.59,5.68,5.58Z"/><path d="M650.18,325.61c.04,2.84-2.45,5.4-5.35,5.52-3.01,.12-5.74-2.36-5.85-5.32-.11-3.06,2.64-5.95,5.61-5.89,2.87,.06,5.56,2.79,5.6,5.69Z"/><path d="M607.36,146.16c3.16,.01,5.54,2.41,5.51,5.56-.02,2.84-2.84,5.49-5.79,5.46-3.05-.04-5.6-2.67-5.5-5.67,.1-3.1,2.54-5.36,5.77-5.35Z"/><path d="M560.87,487.13c3.05,.05,5.7,2.9,5.57,5.99-.12,2.97-2.61,5.34-5.56,5.29-3.05-.05-5.62-2.64-5.58-5.63,.03-3.08,2.63-5.71,5.57-5.66Z"/><path d="M188.17,151.68c-.01-3.24,2.21-5.49,5.46-5.52,3.24-.03,5.53,2.19,5.58,5.4,.04,3.02-2.42,5.54-5.48,5.61-3.06,.07-5.54-2.39-5.56-5.5Z"/><path d="M244.8,112.39c.03,3.08-2.44,5.57-5.53,5.57-3.04,0-5.53-2.51-5.52-5.58,0-3.12,2.43-5.59,5.51-5.62,2.9-.03,5.52,2.63,5.54,5.64Z"/><path d="M601.87,446.56c-.02-3.26,2.45-5.76,5.64-5.71,2.93,.05,5.41,2.69,5.4,5.74-.01,2.96-2.61,5.38-5.72,5.34-3.05-.04-5.3-2.32-5.32-5.37Z"/><path d="M296.47,523.82c0,3.21-2.26,5.42-5.51,5.4-3.21-.02-5.52-2.31-5.5-5.47,.01-3.09,2.45-5.5,5.55-5.51,3.06,0,5.46,2.45,5.47,5.58Z"/><path d="M503.95,85.24c-.06-3.26,2.36-5.79,5.56-5.79,2.88,0,5.36,2.42,5.5,5.36,.14,2.97-2.56,5.72-5.7,5.81-2.85,.08-5.3-2.39-5.36-5.38Z"/><path d="M509.34,529.28c-3.09,0-5.38-2.27-5.4-5.34-.02-3.2,2.31-5.66,5.4-5.71,3.02-.05,5.62,2.5,5.64,5.53,.02,2.98-2.58,5.52-5.64,5.52Z"/><path d="M296.41,85.14c-.04,3.02-2.63,5.46-5.72,5.4-2.96-.06-5.25-2.48-5.25-5.54,0-3.1,2.47-5.55,5.57-5.55,3.02,0,5.44,2.55,5.4,5.7Z"/><path d="M326.26,516.18c-2.92-.05-5.07-2.16-5.08-4.97,0-2.86,2.32-5.08,5.31-5.08,2.88,0,5.17,2.4,5.06,5.29-.1,2.72-2.43,4.81-5.29,4.76Z"/><path d="M331.53,95.87c.03,2.55-2.45,5.08-5.07,5.17-2.6,.09-5.16-2.36-5.2-4.97-.04-2.79,2.41-5.28,5.19-5.29,2.64,0,5.04,2.4,5.07,5.09Z"/><path d="M468.91,511.14c.04-2.94,2.09-4.99,4.99-5,2.96,0,5.1,2.25,5,5.27-.09,2.72-2.46,4.98-5.19,4.95-2.76-.03-4.84-2.3-4.8-5.23Z"/><path d="M468.9,96.12c-.05-3.09,2.1-5.4,4.95-5.36,2.74,.04,4.99,2.37,4.97,5.16,0,2.72-2.42,5.16-5.06,5.11-2.67-.05-4.83-2.23-4.87-4.9Z"/><path d="M629.32,344.29c-.04,2.38-1.99,4.17-4.52,4.13-2.57-.04-4.26-1.78-4.2-4.33,.05-2.45,2-4.34,4.4-4.28,2.29,.05,4.36,2.2,4.33,4.48Z"/><path d="M624.79,251.7c-2.49-.06-4.24-1.92-4.16-4.44,.08-2.4,2.13-4.32,4.5-4.18,2.23,.13,4.14,2.16,4.1,4.37-.04,2.4-2.03,4.31-4.44,4.26Z"/><path d="M175.32,348.43c-2.5,.01-4.23-1.76-4.21-4.34,.02-2.44,1.68-4.22,4.03-4.32,2.39-.1,4.37,1.82,4.4,4.26,.03,2.49-1.79,4.39-4.22,4.4Z"/><path d="M175.31,251.7c-2.35,0-4.11-1.77-4.16-4.16-.05-2.47,1.78-4.42,4.2-4.49,2.33-.06,4.42,2.01,4.39,4.35-.03,2.39-2.01,4.31-4.43,4.3Z"/><path d="M229.45,459.2c2.41-.07,4.26,1.6,4.36,3.94,.11,2.5-1.65,4.43-4.11,4.5-2.42,.07-4.26-1.58-4.37-3.94-.12-2.54,1.61-4.43,4.11-4.5Z"/><path d="M566.15,463.37c0-2.47,1.91-4.45,4.23-4.4,2.36,.06,4.17,2.04,4.13,4.53-.04,2.33-1.83,4.13-4.14,4.16-2.5,.03-4.23-1.72-4.22-4.29Z"/><path d="M355.4,524.97c.03,2.48-1.76,4.27-4.29,4.29-2.5,.02-4.14-1.52-4.22-3.97-.08-2.57,1.59-4.39,4.08-4.47,2.55-.08,4.4,1.65,4.42,4.15Z"/><path d="M449.2,89.06c-2.55-.02-4.35-1.82-4.28-4.28,.06-2.36,2.06-4.17,4.52-4.11,2.31,.06,4.11,1.89,4.11,4.19,0,2.44-1.84,4.21-4.35,4.2Z"/><path d="M449.35,520.86c2.43-.01,4.2,1.66,4.25,4.02,.05,2.49-1.76,4.33-4.26,4.32-2.52,0-4.18-1.59-4.22-4.03-.04-2.64,1.59-4.3,4.23-4.32Z"/><path d="M577.17,147.91c-2.56,.02-4.4-1.75-4.37-4.2,.02-2.46,1.66-4.1,4.12-4.14,2.57-.04,4.42,1.71,4.43,4.19,.01,2.33-1.79,4.13-4.17,4.15Z"/><path d="M355.32,85.04c-.04,2.39-1.98,4.18-4.46,4.11-2.47-.07-4.08-1.9-3.97-4.51,.1-2.47,1.73-4,4.23-3.96,2.52,.04,4.24,1.82,4.19,4.36Z"/><path d="M223.12,147.88c-2.38-.05-4.15-1.83-4.14-4.15,.01-2.45,1.92-4.3,4.36-4.22,2.37,.08,3.96,1.83,3.94,4.31-.02,2.4-1.78,4.11-4.16,4.06Z"/><path d="M279.1,406.15c-2.21,1.41-4.44,2.77-6.61,4.22-13,8.72-27.19,10.97-42.45,8.25-12.43-2.22-24.03-6.76-35.44-11.93-.65-.29-1.41-1.53-1.28-2.16,3.65-17.84,10.39-34.23,23.06-47.7,7.96-8.46,18.14-13.43,28.7-17.72,1.18-.48,2.36-.96,3.53-1.45,.15-.06,.26-.23,.41-.37-5.1-.78-10.21-1.32-15.21-2.37-14.12-2.97-25.84-10.42-36.11-20.24-6.01-5.74-11.61-11.91-17.47-17.95,10.05-10.56,19.58-21.34,31.98-28.95,10.76-6.61,22.57-9.69,35.07-10.52,.55-.04,1.09-.06,1.64-.1,.07,0,.12-.09,.51-.38-2.38-1.01-4.59-1.95-6.8-2.88-7.84-3.32-15.53-6.89-22.14-12.41-10.2-8.52-16.54-19.64-21.27-31.79-2.01-5.17-3.64-10.5-5.26-15.82-.2-.66,.53-2.23,1.12-2.41,10.2-3.11,20.38-6.34,30.7-8.98,17.48-4.47,33.72-1.65,48.32,9.29,1.31,.98,2.75,1.81,4.13,2.7,.07,.05,.18,.05,.87,.22-.94-1.61-1.63-2.89-2.4-4.12-3.67-5.82-7.4-11.79-7.85-18.77-.41-6.23-.26-12.65,.77-18.8,1.61-9.61,4.17-19.06,6.34-28.57,.08-.35,.24-.68,.51-1.42,13.32,2.59,26.74,4.72,39.91,7.89,16.08,3.87,27.58,14.11,35.79,28.25,.46,.79,.94,1.57,1.41,2.34,.03,.05,.14,.06,.38,.17,.2-3.56,.34-7.06,.61-10.55,1.22-16.09,7.45-30.1,18.27-41.91,6.11-6.66,12.94-12.66,19.46-18.94,2.49-2.4,5.02-4.76,7.64-7.25,10.29,10.49,22.43,19.2,31.38,31.2,9.38,12.58,14.12,26.68,14.55,42.3,.04,1.65,.08,3.29,.13,4.94,0,.04,.14,.08,.17,.09,2.78-4.03,5.39-8.17,8.35-12.05,8.64-11.34,20.59-17.37,34.18-20.19,10-2.08,20.16-3.37,30.25-5.04,1.52-.25,3.01-.63,4.81-1.02,1.06,4.3,2.28,8.49,3.12,12.76,1.71,8.68,3.48,17.36,4.72,26.11,1.26,8.88-1.48,16.99-6.13,24.5-1.57,2.54-3.2,5.05-4.5,7.92,2.09-1.35,4.18-2.68,6.26-4.04,9.45-6.16,19.55-10.3,31.07-9.94,9.74,.3,19.24,2.02,28.52,4.95,5.91,1.87,11.77,3.91,17.69,5.78,1.54,.49,2.05,1.17,1.59,2.76-4.43,15.3-10.22,29.93-20.96,42.05-6.95,7.84-15.99,12.65-25.42,16.8-2.9,1.28-5.82,2.51-8.78,3.79,5.91,1.02,11.75,1.74,17.44,3.06,12.51,2.91,23.08,9.5,32.44,18.09,6.47,5.94,12.74,12.1,19.16,18.23-14.17,15.64-27.51,31.02-47.86,37.12-6.74,2.02-13.82,2.92-20.67,4.31,.32,.17,.89,.56,1.52,.77,29.61,10.02,45.15,32.05,52.27,61.25,1.6,6.55,1.55,6.57-4.5,9.23-10.48,4.6-21.19,8.28-32.57,10.12-15.65,2.53-29.73-.92-42.66-9.82-1.5-1.03-3.04-2-5.03-2.7,.57,1.05,1.08,2.13,1.7,3.15,3.61,5.93,7.21,11.85,8.89,18.71,1.92,7.83,1.38,15.72-.16,23.42-2.04,10.18-4.84,20.21-7.32,30.3-.1,.43-.35,.82-.51,1.18-11.82-2.59-23.61-4.87-35.25-7.8-17.93-4.5-30.9-15.63-40.11-31.41-.41-.7-.82-1.41-1.81-2.09,0,1.27,0,2.54,0,3.82-.03,18.45-5.04,35.29-17.11,49.44-5.79,6.8-12.5,12.83-18.9,19.1-3.32,3.25-6.86,6.27-10.8,9.86-9.49-9.89-19.6-19.47-28.57-30.01-9.9-11.64-14.69-25.73-15.87-40.99-.29-3.73-.47-7.46-.71-11.3-.2,.14-.47,.23-.56,.41-10.01,19.25-26.1,30.34-46.99,34.88-8.12,1.76-16.29,3.25-24.44,4.89-1.5,.3-2.97,.76-4.86,1.26-1.24-3.89-2.54-7.66-3.64-11.48-2.92-10.13-4.73-20.47-5.43-30.98-.56-8.52,1.45-16.5,5.61-23.94,1.91-3.42,3.88-6.8,5.83-10.2l-.36-.41ZM400.25,96.11l.1,.1c-.58,0-1.39-.24-1.7,.05-5.41,5.06-10.99,9.97-16.08,15.33-12.66,13.32-20.92,28.71-21.57,47.56-.34,9.89,2.28,19.05,6.17,28.15,.35-.33,.54-.49,.71-.67,4.73-4.87,6.09-10.28,4.15-17.05-1.06-3.69-.19-7.93-.19-12.25,1.3,6.43,2.53,12.52,3.76,18.61l.97,.38c1.83-2.02,3.7-4.01,5.45-6.1,.38-.46,.51-1.33,.42-1.95-.5-3.24-1.31-6.45-1.64-9.71-.71-7.01-.6-13.98,1.76-20.77-.37,9.94-.71,19.86,2.22,29.94,5.62-5.09,12.41-8.6,14.88-16.53,3.83,7.12,8.36,11.79,15.77,16.43,2.64-9.59,2.64-19.3,2.14-29.11,.9,3.23,1.91,6.51,1.81,9.76-.21,6.64-1.03,13.26-1.56,19.9-.06,.74-.19,1.79,.22,2.21,1.94,2.03,4.05,3.9,6.39,6.11,1.25-6.48,2.45-12.68,3.65-18.88l.9,.11c-.7,6.51-1.42,13.01-2.09,19.52-.09,.85-.24,1.94,.18,2.55,1.72,2.54,3.64,4.94,5.49,7.4,.15-.12,.36-.2,.43-.34,6.05-13.03,7.8-26.51,4.29-40.56-5.45-21.83-20.32-36.68-37.03-50.18Zm17.69,368.3l-.75-.07c.51-9.97,.91-19.94-1.86-29.99-5.96,5.25-12.82,9.03-15.57,17.68-2.95-8.29-9.68-12.01-15.03-17.46-2.79,10.25-2.42,20.25-2.22,30.26-.32-.31-.41-.63-.49-.95-.14-.53-.29-1.05-.41-1.59-1.93-9.3-1.33-18.53,.66-27.74,.17-.77,.18-1.95-.27-2.42-1.93-2.02-4.06-3.85-6.38-5.98-1.25,6.85-2.51,13.74-3.84,21.07-.28-7.39-.41-14.32,1.44-21.13,.27-.99,.61-2.38,.16-3.09-1.79-2.79-3.88-5.38-5.97-8.19-8.29,18.34-8.37,36.6-.85,54.94,5.38,13.13,14.43,23.64,24.38,33.46,2.43,2.4,4.9,4.77,7.4,7.19,.19-16-.23-31.72,1.39-47.39,2.05,15.65,1.52,31.35,1.6,47.23,6.02-5.72,11.97-11.41,17.46-17.51,14.9-16.56,22.38-35.77,19.94-58.29-.76-6.98-3.37-13.4-6.28-19.84-1.97,2.69-3.82,5.07-5.48,7.58-.47,.71-.66,1.86-.47,2.69,1.59,7.03,2.35,14.11,1.65,21.34-1.31-6.78-2.61-13.51-3.93-20.34-2.25,2.12-4.18,3.8-5.93,5.65-.49,.52-.66,1.58-.6,2.36,.54,6.45,1.47,12.88,1.67,19.34,.11,3.72-.91,7.47-1.43,11.21Zm187.46-168.94l.21-.82c-3.19-2.99-6.36-6.02-9.59-8.97-14.43-13.19-30.64-22.34-50.84-22.68-10.42-.18-20.17,2.26-29.77,6.74,3.53,2.84,6.79,5.59,10.21,8.13,.85,.63,2.29,1.03,3.31,.82,9.51-1.96,19.04-2.36,28.97-.93-9.58,1.16-18.82,2.28-28.05,3.39l-.09,.88c5.54,5.22,11.08,10.43,16.35,15.4-5.6,5.31-11.15,10.57-16.7,15.83l.24,1.14c9.5,.7,19,1.4,28.4,2.09-.66,.17-1.44,.42-2.23,.56-9.03,1.54-18.02,1.33-26.98-.56-.74-.16-1.79-.37-2.26,0-3.66,2.94-7.2,6.01-10.84,9.09,20.37,8.34,40.31,7.66,59.76-2.58,11.47-6.04,20.82-14.8,29.84-23.94,.46-.47,.84-1.01,1.44-1.74-12.41,.06-24.45,.78-36.41-.76v-1.07h35.02Zm-351.86,2.06c5.27-5.02,10.76-10.27,16.26-15.51l-.35-1.02c-9.26-1.02-18.52-2.04-27.78-3.06,9.8-1.59,19.51-1.3,29.15,.88,.71,.16,1.73,.2,2.23-.19,3.71-2.93,7.32-5.97,11.01-9.02-17.71-8.15-35.62-8.84-53.67-1.57-14.39,5.8-25.73,15.83-36.22,26.94-.05,.06,.07,.28,.15,.55h35v.89c-11.92,1.58-23.94,.75-36.19,1.37,6.27,6.02,12.5,12.03,19.29,17.34,16.43,12.84,34.93,18.86,55.87,15.1,5.37-.96,10.57-2.84,16.18-4.38-3.97-3.28-7.29-6.13-10.75-8.8-.71-.55-1.93-.71-2.88-.63-5.81,.49-11.61,1.2-17.42,1.63-2.07,.15-4.2-.21-6.28-.49-1.92-.26-3.82-.72-5.72-1.1,9.62-.36,19.14-.51,29.24-2.89-6.08-5.7-11.66-10.93-17.12-16.05Zm184.56,111.04c.11,.42,.15,.87,.33,1.25,4.32,8.96,8.28,18.11,13.09,26.8,6.5,11.75,16,20.52,28.36,26.11,11,4.97,22.76,7.19,34.41,9.84,1.95,.45,2.63-.65,3.01-2.23,1.6-6.64,3.53-13.23,4.71-19.94,1.53-8.67,2.12-17.44-.09-26.14-3.26-12.89-10.75-23.26-19.61-32.79-.42-.45-1.26-.75-1.88-.72-1.99,.11-3.96,.41-5.85,.63-.5,2.98-.75,5.9-1.53,8.68-.47,1.67-.1,2.65,.88,3.91,6.37,8.16,12.3,16.6,15.88,26.43,.6,1.64,1.1,3.3,1.65,4.96l-.63,.27c-5.17-10.92-11.55-21.06-19.36-30.53-1.44,2.77-2.78,5.23-3.97,7.76-.23,.48-.05,1.41,.29,1.87,7.3,9.69,12.93,20.38,18.02,31.3,3.46,7.44,6.05,15.29,9.02,22.95l-1.11,.5c-1.39-2.71-3.02-5.33-4.12-8.15-6.07-15.54-13.89-30.15-23.07-44.06-.32-.49-.74-.92-1.22-1.51-4.13,4.84-9.74,4.66-16.18,4.84,4.91,8.11,9.41,15.53,13.91,22.94-6.82-5.89-12.06-12.91-15.68-21.12-.33-.76-.86-1.84-1.49-2-3.64-.92-7.34-1.6-11.29-2.41,1.71,6.11,3.34,11.95,4.98,17.79-4.01-5.23-6.2-11.17-7.64-17.44-.17-.72-.52-1.63-1.08-1.99-4.14-2.63-8.35-5.13-12.75-7.81Zm-132.52-17.3q-6.92-.61-11.62,4.37c-.19,.2-.39,.39-.57,.6-7.54,8.79-13.56,18.43-15.66,30-2.9,15.99,1.41,31.14,5.72,46.2,.52,.07,.81,.2,1.05,.14,9.56-2.36,19.25-4.28,28.63-7.21,13.17-4.12,24.08-11.79,32.08-23.22,7.13-10.18,11.56-21.72,16.55-32.97,.13-.29,.05-.68,.05-.63-4.05,2.53-8.24,5.08-12.33,7.76-.85,.55-1.73,1.53-1.96,2.47-1.59,6.29-3.57,12.39-7.72,18.36,1.7-6.68,3.23-12.69,4.79-18.83-3.36,.65-6.2,1.3-9.08,1.7-1.56,.22-2.29,.94-2.9,2.34-1.1,2.5-2.33,4.96-3.73,7.31-3.06,5.13-6.8,9.72-11.46,13.56,3.97-7.62,9.66-14.26,12.71-22.67-5.95,.05-11.43-.22-15.73-4.85-2.06,3.22-4.03,6.16-5.87,9.18-7.52,12.34-13.87,25.27-19.26,38.68-.9,2.23-2.43,4.2-3.67,6.29l-.62-.37c.59-1.61,1.22-3.2,1.75-4.83,5.8-17.96,14.44-34.46,25.44-49.77,.34-.47,.58-1.38,.36-1.84-1.21-2.59-2.57-5.11-3.99-7.87-8.41,9.93-15.16,20.66-20.63,32.75-.05-.73-.11-.92-.07-1.08,2.87-11.4,8.85-21.19,16.11-30.22,2.43-3.02,3.94-5.79,2.36-9.72-.65-1.63-.49-3.58-.73-5.62Zm149.1-206.04c3.6-.82,6.5-1.68,9.45-2.07,1.79-.24,2.63-.8,3.25-2.55,1.06-2.99,2.35-5.95,3.92-8.71,2.91-5.13,6.59-9.68,11.1-13.53-4.4,7.84-9.8,15.12-12.48,23.9,2.8,.29,5.41,.28,7.86,.91,2.5,.65,4.84,1.93,7.69,3.11,3.16-5.67,6.62-11.55,9.76-17.6,4.21-8.1,8.03-16.4,12.31-24.46,1.67-3.14,4.1-5.88,6.18-8.8l.83,.52c-.37,.78-.73,1.57-1.13,2.34-2.74,5.36-5.44,10.76-8.26,16.08-5.85,11.04-11.79,22.04-17.65,33.08-.33,.62-.61,1.59-.35,2.13,1.17,2.43,2.53,4.77,4.02,7.5,3.67-5.17,7.32-9.98,10.61-15.01,3.22-4.93,6.09-10.1,9.11-15.16-.76,3.36-1.73,6.66-3.45,9.5-4.49,7.41-9.33,14.6-13.98,21.92-.53,.83-1.04,1.98-.9,2.87,.46,2.86,1.23,5.67,1.95,8.79,1.88,0,3.89,.14,5.87-.06,1.06-.11,2.34-.53,3.06-1.27,13.69-13.98,21.96-29.98,18.84-50.32-1.29-8.4-3.04-16.65-5.83-24.72-.62,0-1.08-.07-1.51,.01-9.22,1.82-18.52,3.34-27.64,5.58-13.48,3.31-24.7,10.31-32.85,21.82-7.14,10.08-11.78,21.38-16.24,32.78-.13,.33-.02,.76-.02,.84,3.45-2.24,6.72-4.8,10.37-6.56,2.6-1.25,3.46-2.93,3.94-5.5,1.07-5.68,3.01-11.05,6.77-15.91-1.55,6.23-3.04,12.2-4.64,18.58Zm-109.47-.21c-1.59-6.09-3.12-11.95-4.76-18.19,3.15,4.06,5.23,8.25,6.52,14.48,.74,3.59,2.23,5.86,5.78,7.37,3.23,1.37,5.97,3.87,9.09,5.98-.08-.5-.06-.87-.21-1.18-4.25-9.08-8.09-18.39-12.9-27.17-5.52-10.07-13.61-17.87-24.19-22.74-12.42-5.72-25.8-7.78-39.13-9.99-1.5-.25-2.1,.4-2.46,1.79-1.07,4.15-2.4,8.23-3.37,12.4-2.05,8.77-3.28,17.65-2.11,26.65,1.56,11.98,7.97,21.57,15.38,30.68,2.91,3.58,6.01,5.96,10.89,4.62,.57-.16,1.22-.02,1.84-.02,.36-1.96,.41-3.86,1.08-5.52,1.31-3.23,.12-5.49-1.69-8.19-4.78-7.11-9.2-14.47-13.56-21.85-1.27-2.15-1.88-4.68-2.8-7.04,6.24,10.25,12.53,20.33,20.46,29.67,.47-1.03,.65-1.77,1.08-2.31,3.34-4.24,1.78-7.67-.65-12.02-8.33-14.99-15.97-30.36-23.86-45.59-.12-.23-.05-.56-.08-.84l.64-.28c12.43,15.22,17.2,34.9,28.79,50.77,4.37-3.74,9.6-3.95,15.13-4.07-2.8-8.97-8.19-16.32-12.59-24.19,6.88,6.41,12.03,13.94,15.36,22.71,.31,.82,1.24,1.76,2.05,1.97,3.17,.8,6.41,1.33,10.25,2.08Zm-12.48,143.84c-7.13,2.41-14.38,4.22-21.8,3.6-5.62-.47-9.71,1.87-13.65,5.05-2.12,1.71-4.12,3.67-5.83,5.79-5.78,7.19-8.42,15.55-6.97,24.61,1.33,8.36,8.36,11.63,15.39,13.96,5.5,1.82,11.17,.96,17.21-1.89-3.16,4.07-3.75,8.08-3.01,12.2,.98,5.48,3.15,10.6,7.08,14.58,1.74,1.76,4.35,3.24,6.77,3.66,13.53,2.35,24.16-2.73,32.16-13.6,.94-1.27,1.31-3.13,1.49-4.77,.74-6.61,1.26-13.25,1.96-19.87,.15-1.43,.71-2.81,1.26-4.92-1.51,1.18-2.36,1.85-3.21,2.52-7.13,5.62-15.07,8.85-24.23,6.91-12.69-2.69-19.57-14.62-16.49-27.72,1.87-7.94,6.34-14.27,11.86-20.11Zm134.81,.48c4.72,4.95,8.4,10.45,10.48,16.91,3.54,11,.55,21.37-8.02,27.08-8.4,5.59-17.16,4.85-25.74,.47-3.28-1.68-6.18-4.1-9.52-6.36,2.9,8.62,3.74,17.38,3.5,26.27-.01,.5,.17,1.1,.46,1.52,7.4,10.7,17.34,16.56,30.62,15.74,3.26-.2,6.5-.76,9.01-3.38,7.45-7.74,9.32-17.37,5.06-27.09,.31,.06,.57,.06,.79,.16,8.45,3.58,16.27,2.36,23.93-2.54,6.2-3.97,8.17-9.47,7.38-16.41-1.5-13.2-8.85-22.28-20.1-28.62-.53-.3-1.21-.52-1.8-.49-8.83,.41-17.49-.46-26.05-3.26Zm-85.22,45.27c-1.42,5.31-2.87,10.69-4.31,16.06l-.83-.21c1.07-5.16,2.16-10.31,3.17-15.48,.22-1.11,.52-2.45,.11-3.38-1.06-2.42-2.49-4.68-3.92-7.27-1.09,4.67-2.11,9.04-3.12,13.41-.52-.74-.49-1.37-.41-1.99,.8-6.63,3.54-12.85,3.57-19.72,.01-3.88,1.67-7.75,2.75-12.3-.92,1.37-1.64,2.17-2.06,3.1-3.1,6.99-6.79,13.8-9.05,21.06-4.46,14.28-2.9,28.17,5.08,41.06,6.68,10.79,16.43,18.46,26.96,26.23,6.8-6.11,13.97-11.83,20.28-18.4,9.02-9.39,13.58-20.83,13.31-34.05-.24-11.65-4.38-22.09-9.7-32.18-1.09-2.07-2.42-4.01-3.75-6.2,.99,4.79,2.39,9.2,2.65,13.67,.19,3.21,.62,6.21,1.56,9.27,1,3.28,1.57,6.69,2.33,10.04l-.79,.17c-1.09-4.34-2.18-8.68-3.36-13.41-1.2,2.37-2,4.32-3.12,6.08-1.18,1.85-1.29,3.6-.74,5.69,1.25,4.74,2.26,9.54,3.37,14.31l-.84,.25c-1.57-5.11-3.14-10.22-4.6-14.95-5.59,4.46-11.33,9.03-16.89,13.46-3.22-2.44-6.27-4.61-9.17-6.97-2.89-2.35-5.64-4.89-8.46-7.35Zm-51.48-108.69c-2.5-3.76-5.51-7.4-7.55-11.52-6.36-12.83-1.14-26.61,11.62-31.1,7.9-2.78,15.33-1.1,22.21,3.28,2.49,1.58,4.74,3.54,7.08,5.3-.66-3.68-1.52-7.31-1.92-10.99-.41-3.71-.33-7.48-.56-11.21-.05-.76-.37-1.58-.78-2.24-7.14-11.56-20.1-17.47-33.39-14.89-2.34,.45-5.06,1.8-6.48,3.62-5.79,7.42-10,15.4-4.52,25.5-9.51-6.11-18.03-4.07-26.31,1.67-5.23,3.63-6.81,8.59-5.65,14.6,2.01,10.44,7.81,18.15,17.17,23.13,1.54,.82,3.39,1.61,5.06,1.55,8.29-.31,16.4,.4,24.03,3.3Zm68.74-98.75c-6.04,5.1-12.47,9.95-18.25,15.5-19.5,18.73-18.91,44.7-6.86,63.93,1.34,2.15,3.19,3.98,4.81,5.95l.6-.37c-2.21-4.67-4.04-9.41-3.3-14.71,.06-.46-.47-.97-.61-1.49-1.35-5.12-2.67-10.25-4-15.37l.83-.22c1.37,4.73,2.73,9.47,4.21,14.58,.73-1.95,1.05-3.75,1.98-5.14,2.17-3.25,1.58-6.53,.79-9.95-.91-3.92-1.7-7.87-2.55-11.81l.72-.19c1.52,5.08,3.03,10.16,4.42,14.82,5.69-4.75,11.54-9.63,17.54-14.64,5.88,5.01,11.64,9.9,17.2,14.64,1.37-4.48,2.9-9.46,4.42-14.45l.76,.21c-.68,3.09-1.01,6.31-2.1,9.25-2.37,6.37-.59,12.01,2.3,17.62,1.41-4.85,2.81-9.63,4.2-14.41,.25,1.84-.1,3.53-.42,5.22-1.15,5.95-4.01,11.53-3.6,17.85,.1,1.59-1.02,3.26-1.61,4.88-.32,.89-.73,1.74-1.09,2.61,1.66-.98,3-2.12,4-3.51,11.39-15.84,14.69-40.47,.22-59.03-6.75-8.66-15.44-14.99-24.6-21.75Zm35.85,64.18c4.13-2.43,8.06-5.36,12.46-7.2,11.05-4.63,22.56-1.18,28.23,8.07,4.8,7.85,3.77,15.79-.42,23.42-2.02,3.68-4.83,6.93-7.32,10.43,8.04-3.15,16.53-3.84,25.17-3.39,.69,.04,1.46-.15,2.09-.47,9.65-4.86,16.29-12.23,18.85-22.91,1.38-5.75,1.1-11.17-4.08-15.14-7.98-6.12-16.99-8.77-26.33-2.81-.05,.03-.24-.14-.23-.13,.59-1.55,1.33-3.03,1.72-4.6,1.69-6.7-2.79-18.47-8.55-22.23-1.41-.92-3.13-1.57-4.79-1.88-12.91-2.34-26.61,4.02-33.26,15.36-.39,.67-.59,1.54-.59,2.33-.03,7.24-.58,14.4-2.91,21.16Zm-91.58,44.67l.22-.91c-3.58-1.64-7.07-3.51-10.74-4.87-15.21-5.64-29.72-4.61-43.27,4.88-8.66,6.06-15.17,14.18-21.89,22.31,6.71,8.26,13.13,16.6,21.94,22.64,7.4,5.08,15.43,8.14,24.54,8.23,10.32,.09,19.61-3.1,27.98-7.69-4.54-1.32-9.26-2.84-14.07-4.01-2.32-.56-4.84-.81-7.2-.55-2.66,.3-5.23,1.33-7.84,2.04l-.28-.74c3.62-1.36,7.23-2.73,10.25-3.86-3.15-4-6.52-8.18-9.72-12.48-.44-.6-.37-2.07,.07-2.76,3.52-5.67,5.59-12.29,11.77-16.82-5.03-.11-8.85-1.28-12.1-3.94,1.11,.12,2.16,.41,3.19,.73,3.6,1.13,7.23,2.22,10.98,.86,5.23-1.88,10.41-3.87,16.19-3.05Zm132.01,37.35c3.39,1.27,6.92,2.59,10.45,3.91l-.29,.78c-1.73-.51-3.46-1.03-5.19-1.53-2.93-.84-5.83-1.26-8.86-.18-4.89,1.75-9.86,3.3-14.66,4.9,2.11,.95,4.68,2.27,7.36,3.3,17.3,6.61,33.72,5.22,48.1-6.91,6.92-5.84,12.69-13.04,19.47-20.14-6.54-6.73-12.24-13.3-18.68-19.07-10.75-9.63-23.47-13.38-37.85-10.77-7.32,1.33-14.16,3.86-20.34,8.26,5.68-.74,10.79,1.1,15.98,2.84,1.9,.64,4.12,.73,6.14,.52,2.77-.28,5.49-1.08,8.23-1.66-3.41,2.66-7.26,3.85-10.85,3.53,4.15,5.99,8.49,12.24,12.82,18.48-4.14,4.8-8.11,9.42-11.83,13.74Zm31.41,76.21c9.39,8.32,26.51,19.84,44.59,20.74,14.79,.74,28.7-2.97,42.53-8.5-22.97-13.37-44.27-28.94-69.47-37.99,.44,5.71,.95,11.13-3.45,16,8.31,4.3,16.14,8.34,23.96,12.38-9.38-1.5-17.77-5.34-25.39-10.38-4.31,2.61-8.5,5.15-12.77,7.73Zm-215.17,.08c-4.21-2.72-8.33-5.38-12.51-8.09-10.73,6.74-20.67,10.96-24.93,10.58,7.67-4.16,15.41-8.36,23.45-12.73-4.04-4.72-3.92-9.95-3.3-15.52-12.68,4.6-24.19,10.71-35.36,17.5-11.19,6.81-22.41,13.57-33.58,20.32,26.41,15.08,66.73,9.39,86.22-12.06Zm-89.46,9.89l.79,.49c1.23-.93,2.39-1.97,3.69-2.77,7.63-4.68,15.24-9.38,22.96-13.91,13.55-7.96,27.15-15.84,41.9-21.41,2.41-.91,3.61-1.99,4.06-4.59,.58-3.31,1.78-6.51,2.9-10.4-11.09,4.05-21.66,7.91-32.24,11.77,.02-.47,.33-.62,.62-.8,9.73-6.11,20.18-10.53,31.33-13.34,.93-.23,2.06-.54,2.62-1.21,3.52-4.28,6.91-8.67,10.29-12.95-.69,.19-1.64,.42-2.57,.72-9.97,3.23-19.9,6.61-29.93,9.67-21.19,6.46-37.75,18.52-47.48,38.89-3.13,6.54-5.97,13.23-8.94,19.85Zm394.2,.25c-2.02-4.87-3.92-9.68-6-14.42-8.53-19.49-21.68-34.43-42.17-41.77-9.18-3.29-18.57-5.98-27.85-8.99-4.38-1.43-8.72-2.99-13.07-4.49-.23,.32-.46,.63-.69,.95,.75,.5,1.63,.88,2.21,1.52,2.62,2.93,5.35,5.79,7.63,8.97,1.22,1.7,2.48,2.57,4.46,3.07,11.41,2.85,22.06,7.48,31.85,14.09-10.83-3.93-21.66-7.87-32.87-11.93,1.35,4.33,2.67,7.76,3.42,11.31,.41,1.93,1.28,2.77,2.94,3.43,24.83,9.83,47.52,23.54,70.13,38.26Zm-2.69-202.4c-11.61-4.5-23.44-7.73-35.86-8.28-15.28-.67-28.44,4.73-40.12,14.25-3.36,2.74-6.69,5.5-9.95,8.17,3.64,2.11,6.94,4.02,10.27,5.95,12.78-8.03,22.28-12.35,26.51-12.17-8.1,4.54-16.4,9.2-24.5,13.74,1.5,2.65,3.01,4.57,3.71,6.75,.73,2.24,.68,4.74,.98,7.26,1.15-.49,2.28-.85,3.31-1.42,11.68-6.41,23.42-12.71,34.98-19.34,9.87-5.66,19.42-11.93,30.66-14.93Zm-303.13,14.23c-3.33-2.83-6.49-5.57-9.72-8.24-11.77-9.74-25.07-15.24-40.59-14.21-10.16,.67-19.99,3.13-29.66,6.24-1.58,.51-3.14,1.12-4.71,1.68,9.39,2.84,17.53,7.61,25.7,12.38,11.58,6.76,23.27,13.34,34.96,19.92,2.4,1.35,4.99,2.34,7.75,3.61-.33-5.41,.41-9.98,5.11-13.74-8.95-5-17.52-9.79-26.31-14.7,10.4,2.3,19.36,7.13,27.57,12.9l9.89-5.84Zm305.1-14.36c-8.64,4.7-16.78,8.82-24.61,13.45-15.09,8.92-29.75,18.61-46.07,25.29-.59,.24-1.27,.85-1.45,1.44-1.12,3.59-2.11,7.23-3.32,11.45,11.13-4.38,21.93-8.64,32.74-12.9-.76,.83-1.67,1.5-2.61,2.11-9.1,5.94-19.03,10.02-29.41,13.09-1.02,.3-2.32,.5-2.94,1.23-3.46,4.06-6.75,8.26-10.38,12.77,1.64-.65,2.95-1.22,4.29-1.71,12.16-4.46,24.24-9.15,36.49-13.32,25.43-8.65,38.44-28.29,47.27-52.89Zm-350.79,38.14c11.16,4.46,22.07,8.81,33.2,13.26-1.14-4.19-2.06-7.79-3.15-11.34-.22-.71-1.02-1.42-1.73-1.78-4.08-2.03-8.34-3.73-12.32-5.96-18-10.08-35.91-20.3-53.87-30.45-.95-.54-1.98-.93-3.17-1.49-.05,.75-.16,1.04-.07,1.26,4.77,11.71,10.24,23.03,18.54,32.74,8.3,9.7,19.26,15.19,30.94,19.52,11.87,4.4,23.76,8.77,35.65,13.15,.65,.24,1.34,.38,2.73,.77-2.4-2.45-4.73-4.12-6.1-6.37-3.47-5.69-8.76-7.98-14.81-9.92-9.22-2.96-17.86-7.34-25.86-13.39Zm98.6,8.89c-2.46,20.49,12.87,43.4,31.37,46.95,1.12-2.36,2.23-4.73,3.36-7.11-5.22-5.63-12.09-9.79-15.27-17.21,5.69,4.98,11.39,9.97,16.9,14.79,3.47-2.52,6.91-5.02,10.95-7.95-2.97-4.34-5.98-9.1-9.34-13.59-9.46-12.63-21.97-18.27-37.96-15.88Zm111.61-.12c-20.79-2.54-36.33,7.75-46.83,30.09,3.4,2.46,6.77,4.9,10.16,7.36l17.28-14.73,.66,.58c-1.66,2.1-3.14,4.38-5.02,6.24-3.18,3.15-6.65,6-9.93,9.06-.56,.52-1.19,1.65-.98,2.17,.9,2.23,2.11,4.33,3.2,6.48,20.4-6.2,33.91-26.42,31.46-47.25Zm-55.24,79.53c0,10.46,1.57,20.66-.68,30.74-2.38-10.17-.57-20.46-.89-30.86-1.71-.21-3.31-.41-4.33-.53-2.91,5.19-5.66,9.99-8.3,14.86-.99,1.84-1.85,3.77-2.53,5.74-3.99,11.43-1.36,20.55,8.09,28.01,2.57,2.03,5.3,3.84,8.34,6.02,3.82-3.07,7.77-6.01,11.43-9.26,3.01-2.67,4.62-6.28,5.4-10.24,1.57-7.87-.51-14.97-4.46-21.71-2.52-4.3-4.92-8.66-7.59-13.37-1.03,.14-2.63,.35-4.49,.6Zm-1.96-50.58c0-4.93-.08-9.57,.02-14.21,.1-4.72,.37-9.45,.56-14.17h.84c2.23,9.33,.3,18.81,.58,28.23,1.33,.26,2.48,.64,3.64,.64,.61,0,1.48-.51,1.78-1.05,2.38-4.3,4.54-8.72,6.97-12.99,3.76-6.62,5.34-13.6,3.48-21.07-1.53-6.14-5.7-10.51-10.53-14.29q-5.82-4.55-11.59-.21c-12.9,9.67-15.4,22.84-7.04,36.61,2.54,4.18,4.86,8.51,7.45,13.07l3.85-.56Zm25.53,32.41c3.92,1.57,7.56,3.28,11.36,4.5,5.53,1.79,11.09,4.1,16.78,4.64,11.22,1.08,19.32-6.91,23.79-15.14,.26-.47,.28-1.29,.05-1.78-3.52-7.56-8.36-13.84-16.89-16.03-4.25-1.09-8.86-1.92-12.71,.83-6.76,4.84-13.36,9.85-21.54,12.3,.14,1.6,.26,3.02,.4,4.61,8.69-.74,17.2-.9,25.69,.12-8.48,2.45-17.02,1.63-25.7,.7-.4,1.69-.77,3.27-1.23,5.22Zm-75.27-5.84c8.49-1.51,17.02-.75,26.36-.24-.58-1.92-.66-4.49-1.55-4.81-7.62-2.76-13.95-7.49-20.32-12.27-1.15-.86-2.82-1.31-4.3-1.42-11.93-.95-19.7,5.73-24.89,16.15-.27,.55-.29,1.46-.02,2,4.02,8.08,12.48,16.22,23.57,15.37,10.06-.77,18.73-5.63,28.02-8.98-.4-1.89-.73-3.45-1.08-5.06-8.79,.7-17.34,1.74-25.79-.73Zm59.7,22.75c.6,1.28,1.1,2.44,1.68,3.57,3.54,6.94,8.69,12.6,14.14,18.06,4.46,4.47,9.72,7.35,15.92,8.52,5.13,.97,10.26,1.21,15.42,.27-1.73-21.64-15.04-34.47-32.54-44.25-.97,1.58-2,3.26-2.99,4.89,5.1,6.28,12.03,10.87,16.24,17.83l-.49,.46c-5.9-5.34-11.8-10.68-17.66-15.98-1.42,1.17-2.82,2.5-4.39,3.58-1.57,1.08-3.3,1.91-5.33,3.06Zm-64,30.34c22.65,3.52,39.59-14.03,46.22-30.43-3.18-2.18-6.3-4.32-9.86-6.76-2.55,2.67-5.15,5.62-8,8.31-2.86,2.7-5.97,5.14-8.97,7.69,3.76-7.36,10.62-12.01,15.76-18.08-1.08-1.81-2.09-3.5-3.03-5.09-17.59,9.79-30.89,22.6-32.12,44.36Zm39.44-54.6c-.08,8.83,7.1,16.22,15.8,16.26,8.8,.05,16.03-7.08,16.14-15.93,.1-8.45-7.3-16-15.77-16.07-9.05-.08-16.09,6.77-16.16,15.73Zm-13.09,55.53c-14.39,6.79-25.8,9.09-36.31,6.99,.53-6.39,2.24-12.5,4.4-18.52,4.34-12.12,14.33-19.45,23.49-27.66-7.89,1.99-15.8,6.69-23.42,13.72-6.44,5.94-11.53,12.7-13.56,21.42-3.16,13.59,6.57,24.75,19.96,22.83,11.82-1.7,19.48-9.11,25.44-18.78Zm66.47-39.08c15.28,11.83,27.55,25.46,28.26,46.25-12.36,.6-24.62,.64-35.97-6.97,4.16,10.04,17.41,18.76,27.72,18.73,9.35-.02,16.8-6.11,17.62-15.33,.35-3.95-.31-8.34-1.78-12.03-6.51-16.33-19.91-24.98-35.85-30.65Zm-102.57-78.85c11.05,.33,22.25-2.17,32.11,5.03-4.72-7.18-13.27-13.02-20.93-14.12-12.83-1.83-23.1,8.68-20.28,20.94,2.3,9.98,8.93,16.94,16.49,23.2,1.02,.84,2.17,1.53,3.25,2.29-8.26-10.91-9.31-19.76-10.64-37.34Zm130.59,.01c-1.45,12.79-.98,25.6-9.54,36.14,1.05-.49,1.9-1.02,2.65-1.67,6.95-5.95,13.15-12.49,15.84-21.54,3.1-10.46-3.33-20-13.89-21.91-10.33-1.86-23.07,7.22-27.59,14.24,9.85-7.34,21.15-4.91,32.54-5.26Z"/><path d="M400.25,96.11c.27,5.63,.77,11.27,.76,16.9-.02,9.58-.35,19.17-.56,28.75l-.98,.14c-.25-1.66-.7-3.32-.71-4.98-.1-12.61-.14-25.22-.07-37.83,0-.97,1.07-1.93,1.64-2.89l-.09-.1Z"/><path d="M399.75,392.31c2.5,7.36,1.11,13.96,.17,20.55-1.36-6.57-2.16-13.15-.17-20.55Z"/><path d="M399.69,205.08c-1.91-5.78-1.03-11.58-.06-17.37h.92v17.33l-.87,.04Z"/><path d="M289.5,295.29c6.64-1.01,13.34-2.17,20.8,0-7.4,2.43-14.07,1.09-20.8,0Z"/><path d="M510.41,295.2c-6.72,1.23-13.45,2.51-20.81,.17,7.34-2.38,14.08-.89,20.81-.17Z"/></svg>