<?xml version="1.0" encoding="UTF-8"?><svg id="a" xmlns="http://www.w3.org/2000/svg" viewBox="0 0 800 600.7"><path d="M367.12,90.74c.59,23.19-3.27,45.82-12.99,67.23-4.02,8.85-5,17.57-3.06,27.22,2.14,10.63,.4,21-5.53,30.59-3.32,5.37-5.55,11.4-8.27,17.14,.45,.31,.9,.62,1.35,.92,1.63-1.39,3.39-2.66,4.87-4.2,5.39-5.62,9.69-11.91,12.16-19.41,3.85-11.68,9.89-22,18.64-30.82,8.01-8.08,11.56-18.59,13.88-29.4,7.9-36.94,2.88-72.01-16.01-104.88-2.44-4.24-5.53-8.11-8.21-11.99,9.15,2.86,31.71,30.39,41.21,50.52,8.43,17.86,11.74,29.47,18.19,64.17,5.61-12.85,4.96-25.07,1.8-37.81,1.86,2.7,3.94,5.28,5.55,8.13,12.24,21.68,7.88,48.74-10.82,65.23-7.73,6.82-16.08,12.93-23.89,19.16,.73-.22,2.15-.39,3.31-1.05,6.46-3.65,12.87-7.39,19.26-11.17,3.03-1.79,5.81-4.1,9-5.54,6.7-3.03,13.3-2.3,19.46,1.74,1.79,1.17,3.54,2.46,5.14,3.87,8.25,7.31,17.11,9.31,27.35,2.83-4.53,5.63-12.57,9.64-20.57,9.18-7.76-.45-15.45-2.07-23.17-3.2-6.36-.94-18.94,1.48-23,4.03,6.46,.31,13.92,.2,21.24,1.16,6.32,.83,12.44,3.17,18.74,4.31,18.61,3.36,34.15-2.77,46.86-16.28,3.95-4.2,7.45-8.97,10.39-13.93,20.14-33.96,49.72-54.02,88.52-60.62,5.46-.93,11.02-1.27,16.51-1.88-7.07,3.58-14.26,6.78-21.03,10.72-19.8,11.54-33.79,28.7-44.92,48.27-5.85,10.29-11.05,20.98-15.97,31.75-4.73,10.34-10.7,19.44-20.54,25.56-.28,.18-.46,.53-.72,.83,7.85,1.63,15.81-4.06,37.26-26.68-5.06,16.13-14.24,28.11-28.27,36.28-14.39,8.38-29.25,9.2-45.07,1.96,.45,1.29,.55,1.88,.83,2.36,6.65,10.9,14.2,20.96,26,26.85,4.4,2.2,8.98,4.03,13.32,6.34,5.22,2.77,10.65,5.38,15.33,8.92,10.96,8.3,23.41,11.55,36.78,12.09,18.27,.74,36.23,3.02,53.22,10.26,25.92,11.04,46.47,28.7,62.92,51.37,1.29,1.77,2.53,3.58,3.29,5.77-4.2-3.11-8.34-6.31-12.62-9.3-16.37-11.43-34.78-17.47-54.51-18.51-15.62-.82-31.32-.09-46.98,0-1.47,0-2.94,.4-5.49,.76,13.39,8.63,26.84,11.44,41.58,8.32-2.96,3.34-11.74,7.12-18.48,8.23-19.91,3.29-36.82-2.88-51.62-16.04-9.91-8.81-18.16-18.93-24.97-30.31-2.94-4.91-6.46-9.48-10.16-13.93,1.46,13.7,4.23,26.75,15.14,36.35,.85,.75,1.59,1.65,2.5,2.32,7.72,5.64,10.87,13.58,11.85,22.78,1.83,17.2,8.8,31.63,23.83,41.07,12.11,7.61,25.66,9.48,39.7,8.29,4.89-.42,9.75-1.18,14.62-1.79,.11,.36,.21,.71,.32,1.07-6.79,2.01-13.48,4.52-20.4,5.92-18.15,3.67-35.66,2.07-51.91-7.72-10.54-6.34-18.1-15.1-22.84-26.49-5.57-13.38-11.23-26.73-17.3-39.89-6.09-13.2-8.74-27.04-9.28-41.44-1.43-38.29-29.7-72.26-67-80.58-39.03-8.72-77.94,10.5-95.53,47.16-8.87,18.48-10.39,37.76-6.4,57.65,.12,.62,.25,1.24,.32,1.86,.02,.19-.14,.39-.14,.39-7.3-7.38-14.74-14.74-21.98-22.27-5.17-5.37-6.3-12.14-4.82-19.08,1.93-9.01-.63-16.4-6.56-23.01-2.5-2.78-4.89-5.66-7.03-8.78,7.15,6.04,14.42,11.96,21.41,18.17,5.33,4.73,6.74,11.04,6.19,17.94-.46,5.82-.14,11.54,2.96,16.91-1.24-9.55,2.81-17.89,5.58-26.54,1.99-6.23,1.17-12.34-2.21-17.87-4.28-7-8.64-13.97-13.43-20.62-9.01-12.52-14.36-26.88-21.05-40.57-10.72-21.92-25.3-40.42-47.13-52.38-12.78-7-26.33-11.45-40.91-12.58-.72-.06-1.43-.27-2.22-1.1,1.94-.44,3.87-.92,5.81-1.31,2.1-.42,4.21-.85,6.34-1.11,29.47-3.57,54.78,5.14,76.29,25.53,11.57,10.96,20.98,23.57,29.52,36.92,.46,.72,.96,1.42,2.4,1.94-.51-2.95-.72-5.99-1.59-8.82-3.7-12.06-10.97-22.04-19.21-32.35,1.28,.68,2.02,1.05,2.75,1.46,.77,.43,1.55,.85,2.28,1.34,18.43,12.5,29.21,29.63,31.42,51.94,1,10.03,1.92,20.06,2.88,30.1l.93-.02c.47-9.74,.97-19.48,1.39-29.22,.21-4.93,.5-9.87,.34-14.79-.46-13.55,3.34-25.85,9.99-37.53,8.19-14.38,15.74-29.11,20.33-45.09,2.04-7.11,3.27-14.45,4.79-21.29Zm26.67,94.33c-14.84,9-27.75,20.01-37.37,35.57,10.14-2.27,18.12-6.45,23.18-15.13,4.18-7.17,7.61-14.87,14.19-20.44Z"/><path d="M355.79,395.4c-7.07,1.34-13.78,3.21-20.6,3.79-12.31,1.05-24.68,1.77-37.03,1.8-11.49,.02-22.98-1.08-34.48-1.62-20.65-.97-34.97,9.37-45.82,25.8-1.73,2.62-3.22,5.4-5.44,7.89,1.59-4.34,2.92-8.8,4.8-13.01,7.28-16.35,17.65-29.76,35.4-35.77,12.99-4.4,26.07-3.29,38.74,.82,11.76,3.81,22.62,3.13,32.94-3.56,5.56-3.6,11.73-3.31,17.89-3.87,9.49-.86,18.39,.26,27.35,4.03,11.29,4.76,23.48,4.2,35.5,3.43,3.99-.26,7.97-.74,13.04-1.23-6.12,4.61-11.5,8.47-16.68,12.58-9.2,7.32-18.61,14.25-29.2,19.55-9.12,4.56-14.69,12.98-20.61,20.83-9.05,12-20.85,18.18-35.94,18.57-21.67,.57-40.28,9.41-57.35,22.07-14.29,10.6-25.94,23.55-35.06,39.04,.84-3.77,1.57-7.56,2.54-11.29,1.02-3.89,2.17-7.76,3.44-11.58,5.81-17.39,14.01-33.45,26-47.49,13.79-16.17,31.55-24.86,52.23-27.95,10.16-1.52,19.53-4.65,28.09-10.45,6.43-4.36,13.26-8.15,20.23-12.39Z"/><path d="M345.6,366.02c-4.16-2.05-8.79-4.25-13.34-6.6-12.48-6.44-25.83-9.13-39.75-9.7-7.95-.33-15.92-.67-23.82-1.59-8.76-1.01-16.88-4.26-24.16-9.26-12.51-8.59-26.38-13.01-41.43-13.9-23.65-1.39-46.29,2.39-67.43,13.53-3.4,1.79-6.59,3.98-10.76,6.52,9.03-12.17,19.26-21.62,30.69-29.78,17.06-12.18,35.62-20.87,56.55-24.12,19.12-2.97,36.97,.39,53.43,10.42,11.67,7.11,23.49,13.54,37.11,16.39,8.96,1.88,16.08,7.6,21.26,14.94,7.66,10.87,14.6,22.24,21.67,33.12Z"/><path d="M452.69,369.39c-15.95,16.12-27.22,34.24-28.18,57.96,5.05-5.33,10.11-10.66,15.57-16.42,.16,12.63,1.86,25.14-4.28,36.77-2.53,4.79-5.52,9.33-8.25,14.02-8.17,14.03-10.23,29.35-9.67,45.26,.82,23.42,8.38,44.43,22.3,63.21,.19,.25,.28,.57-.14,1.46-4.65-3.76-9.57-7.23-13.9-11.34-19.71-18.71-34.29-40.62-40.63-67.4-4.56-19.28-2.53-37.87,6.57-55.52,4.92-9.54,9.2-19.25,12.34-29.59,3.14-10.37,10.52-18.46,19.3-24.15,8.97-5.81,19.25-9.59,28.96-14.26Z"/><path d="M523.03,486.72c-4.43-1.59-8.92-3.04-13.28-4.81-15.51-6.28-28.97-15.4-38.95-29.06-9.83-13.45-12.46-29.09-12.61-45.21-.26-28.36,11.54-52.78,25.74-77.16-2.42,10-4.92,19.18-6.84,28.47-5.25,25.52,5.12,51.45,25.6,64.2,3.29,2.05,6.89,3.75,10.55,5.06,24.75,8.87,41.61,25.99,52.45,49.56,6.14,13.36,10.2,27.33,12.25,41.97-1.64-2.92-3.26-5.86-4.93-8.76-13.63-23.64-33.88-38.97-59.57-47.53-12.08-4.03-23.53-9.17-32.1-19.12-.22-.26-.62-.37-1.74-.99,.26,2.14,.01,3.99,.73,5.31,1.89,3.52,3.71,7.28,6.42,10.11,9.57,10,20.45,18.4,32.69,24.96,1.32,.71,2.59,1.49,3.89,2.24l-.29,.73Z"/><path d="M189.11,254.52c8.83-9.08,19.21-14.87,31.86-15.18,11.14-.27,21.71,2.63,31.35,8.44,5.63,3.39,9.58,8.2,11.8,14.32,1.88,5.2,3.04,10.7,5.22,15.76,2.26,5.25,4.71,10.67,8.28,15.03,5.01,6.11,11.13,11.31,16.33,17.6-2.5-1.26-4.96-2.63-7.51-3.77-15.29-6.8-26.78-17.72-35.18-32.07-4.9-8.37-10.78-15.85-19.23-20.99-12.61-7.67-25.36-5.49-38.16-.65-1.4,.53-2.74,1.24-4.12,1.84-.07,.03-.22-.11-.64-.33Z"/><path d="M496.11,255.01c8.62,.64,16.76-1.25,24.69-4.39,7.51-2.98,15.17-2.17,22.7-.25,27.06,6.9,50.44-1.53,72.17-17.03,1.85-1.32,3.67-2.68,5.43-4.12,1.73-1.42,3.36-2.96,5.19-4.28-7.87,10.67-17.09,19.97-27.76,27.88-11.52,8.54-24.08,14.69-38.37,16.88-9.51,1.46-18.68,.84-26.69-5.28-7.05-5.39-15.14-7.08-23.81-7.19-4.54-.06-9.08-.67-13.62-1.03l.06-1.19Z"/><path d="M486.02,98.49c4.05,6.13,6.49,12.88,7.18,20.03,1.47,15.23-2.13,29.29-11.05,41.84-5.49,7.72-13.48,11.06-22.48,12.57-7.44,1.25-14.91,2.34-22.29,3.9-2.99,.64-5.76,2.35-9.31,3.86,7.63-9.59,16.22-16.92,26.21-22.65,4.05-2.32,8.2-4.48,12.12-7,16.51-10.66,22.25-26.31,20.64-45.25-.21-2.45-.67-4.87-1.02-7.3Z"/><path d="M378.33,421.63c-2.61,7.75-5.73,15.83-8.01,24.14-1.94,7.05-6.02,12.7-9.99,18.53-4.19,6.16-8.5,12.25-12.36,18.61-6.69,11.01-8.08,22.91-5.03,35.37,.11,.46,.06,.97,.12,2.42-6.05-12.7-7.42-25-4.21-37.67,6.27-24.79,19.14-45.41,39.32-61.31,.25-.2,.61-.27,.16-.08Z"/></svg>