<svg version="1.2" xmlns="http://www.w3.org/2000/svg" viewBox="0 0 800 800" width="800" height="800"><style>.a{fill:#083a4f;stroke:#c4a96e;stroke-miterlimit:100;stroke-width:15}</style><path class="a" d="m512.7 523.7c0 22.8 0.9 35.5-4.7 55 44 27.6 94.6 42.9 131.5 37.9 97.2-13 97.8 42 76.9-35.9-7.7-28.9-32.5-49.1-47.2-62.9-2.5-2.3 4.2-1.8 1.2-0.5-33 13.7-44.7 15-79.8 18.9-25.5 2.9-55.3-0.4-77.9-12.5z"/><path class="a" d="m390.9 120.6c-31.5 86-118.6 209.6-118.6 299.5 0 66.6 60.8 121.6 128.1 121.6 67.3 0 127.2-54 127.2-120.6 0-93.3-83.8-205.1-110.6-300.5-14.9-53.1-7.7-50.1-26.1 0z"/><path class="a" d="m517 503.7c36-9.4 69.7-41.2 78.7-79.6 16.8-71.8-6.3-186.2-24.3-264.8-9.9-42.9 12.4-45.4-47 6.6-15.9 13.8-25.2 24.7-42.4 47.9 29.5 71.6 59.6 116 60.9 190 0.5 25-16.6 78.2-25.9 99.9z"/><path class="a" d="m287.2 523.7c0 22.8-1 35.5 4.7 55-44 27.6-94.6 42.9-131.6 37.9-97.1-13-97.7 42-76.8-35.9 7.7-28.9 32.5-49.1 47.2-62.9 2.5-2.3-4.2-1.8-1.2-0.5 33 13.7 44.7 15 79.8 18.9 25.5 2.9 55.3-0.4 77.9-12.5z"/><path class="a" d="m87.1 311.3c21.4-4.7 44.7 1.4 69.7 6.4-0.6 29.9 7.3 62 13 86.6 13 55.6 55 97.3 106.4 113.1-24.4 8.7-80.5-2.7-103.8-17.8-48.7-31.4-88-77.7-101.6-143.9-7.9-38.8-55.6-28.7 16.3-44.4z"/><path class="a" d="m712.2 309.3c-21.4-4.7-44.8 1.4-69.7 6.4 0.6 29.9-7.3 62-13.1 86.6-13 55.6-54.9 97.3-106.4 113.1 24.4 8.7 80.5-2.7 103.9-17.8 48.6-31.4 87.9-77.7 101.5-143.9 8-38.8 55.6-28.7-16.2-44.4z"/><path class="a" d="m282.9 503.7c-36-9.4-69.7-41.2-78.7-79.6-16.8-71.8 6.3-186.2 24.3-264.8 9.9-42.9-12.4-45.4 47 6.6 15.9 13.8 25.2 24.7 42.4 47.9-29.5 71.6-59.7 116-61 190-0.4 25 16.6 78.2 26 99.9z"/><path class="a" d="m399 562.4c-32.7 0-63.2-9.3-89-25.4-0.7 4.2-1 8.4-1 12.7 0 58.9 40.5 93.1 61.8 123.4 42.5 60.1 24.7 61.5 60.2 2.5 19.5-32.5 57.9-69.1 57.9-125.9 0-4.3-0.3-8.5-0.9-12.7-25.8 16.1-56.3 25.4-89 25.4z"/></svg>