<svg version="1.2" xmlns="http://www.w3.org/2000/svg" viewBox="0 0 564 481" width="564" height="481">
	<style>
		.s0 { fill: none;stroke: #f4f4f4;stroke-linecap: round;stroke-linejoin: round;stroke-width: 4 } 
		.s1 { fill: none;stroke: #f4f4f4;stroke-linecap: round;stroke-linejoin: round;stroke-width: 2 } 
		.s2 { fill: #f4f4f4;stroke: #f4f4f4;stroke-linecap: round;stroke-linejoin: round;stroke-width: 2 } 
	</style>
	<g id="Layer 1">
		<g id="items">
			<g id="blend">
				<g id="g-root-cp_3_g-3_1ur5ir6wk6y31-fill">
				</g>
				<g id="g-root-cp_3_g-3_1ur5ir6wk6y31-stroke">
					<g id="cp_3_g-3_1ur5ir6wk6y31-stroke">
						<g>
							<path fill-rule="evenodd" class="s0" d="m258.4 330.38c-20.7-0.5-40.5 1.6-58.8 3.8-19.5 2.3-37.5 4.7-53.4 8-16 3.3-29.8 7.5-41.2 11.4-10.3 3.6-18.6 7.8-23.9 12.6-5.6 5.1-10.5 9.9-9.1 14.9 1.9 6.9 6.5 13.4 17.1 20.2 10.6 6.7 26.6 12.4 46.3 16.3 18 3.6 38.9 8.3 62.2 10.2 25.9 2.1 54.4 3.9 84.4 4.3 30.4 0.4 59.2-1.6 85.3-4.4 22.8-2.4 43.3-6.3 61.1-10 20.2-4.3 36.3-10.8 47.4-16.9 10.6-5.9 15.5-12.8 16.2-19.7 0.8-8-7.7-15.5-21.3-22.4-14.6-7.5-36.4-14-63-18.5-29.2-4.9-64.2-8.4-102.3-9.8-0.1 2.9 2.9 5.3 3 8.2 23.2-0.5 44.6 4.4 63.6 6.1 22.4 2.1 40.9 7.9 53.1 14.4 11.7 6.2 19.4 11.8 18.9 18.5-0.5 7.3-8.6 13.1-22.2 20-14.9 7.4-37.7 12.7-64.6 15-22.6 1.9-48.1 4.4-75.2 4.5-27.2 0.1-52.8-1.4-75.3-4.5-27-3.8-49.4-9.4-65-15.2-14-5.3-21.3-12.6-21.7-19.8-0.3-6.8 7.9-11.4 19.2-18.7 9.8-6.3 25.1-8.8 42.5-12.3 21-4.3 46.2-6.7 73.7-8 1.6-2.4 1.7-5.6 3-8.2zm0 0c-9 1.7-18.1 1.3-26.8 1.2-8.2-0.2-16.2 2.5-23.9 1.8-7.8-0.7-15.7 0.2-22.7 2.4-7.1 2.3-14.6 2.1-21.4 3.2-7.2 1.1-14.4 1.4-20.7 3.9-5.8 2.3-11.7 4.1-17.4 4.2-5.2 0.1-9.8 2.7-14.2 4.3-4.5 1.6-9.5 1.8-12.4 4.7-3.3 3.4-7.7 5-11.5 5.8-3.7 0.8-6.4 3.6-8.3 6-1.9 2.3-3.5 4.3-5.1 6.1-1.7 2-1.5 4.7-2 7.1-0.7 3.3 2.4 6 3.8 9.7 1.3 3.2 5.9 4.4 8.9 7.8 3.2 3.6 9.6 4 14.7 7.7 5.8 4.2 14.7 4.2 22.9 7.9 7 3.1 15.9 2.3 24 5.8 9.1 4 20.2 4.5 31.4 5.4 10.8 0.8 21.9 3.2 33.7 3.7 10.8 0.5 22 2 33.5 2.2 12.1 0.2 24.7-1.5 37.1 0.8 9.5 1.7 19.4-2.8 28.3-0.5 9.7 2.5 19.8-2.7 29.2-1.4 8.8 1.1 17.4-2.8 25.8-2.3 9 0.6 18.3 0.2 26-3.3 7.3-3.3 16.2-0.7 22.8-3.9 6.3-3 13.3-3.4 19.5-4.3 6.3-1 11.7-4.9 17.4-5 5.7-0.2 10.2-4.2 14.8-5.6 4.4-1.4 7.6-4.7 11.3-5.8 3.7-1.1 6.7-3.6 8.3-6.2 1.5-2.5 4.4-3.8 4.8-6.1 0.5-2.4 2.6-4.5 1.8-6.6-1.4-3.5-1.7-7.5-4.9-11-3.4-3.8-7.7-10.1-15.2-10.8-6.3-0.6-12.5-5.5-20.2-8.3-7.6-2.7-17.4-2.2-25.8-7.1-8.8-5-20.9-3.6-32.3-6-12.4-2.7-26.6-0.2-40-4.8-14.6-4.9-32.5-8.4-48.2-2.7 0.6 2.8 2.3 5.4 3 8.2 8.4 0.2 16.7 1.8 24.7 1.5 8.3-0.3 16.9-0.8 23.9 2.5 7 3.3 15.1 1.9 22 3.4 6.9 1.4 13.3 3.1 19.5 4.1 5.7 1 11 2.7 15.5 4.6 4.8 2 9.8 2.7 13.1 5.3 3.1 2.5 6.3 4 9.1 5.4 3 1.5 4.4 4.3 6 6.3 1.4 1.7 1.6 3.9 1.8 5.9 0.2 2.8-2 5.1-3.6 8.3-1.9 3.7-6.9 5.9-12.3 8.8-4.8 2.5-12 2.4-17.4 6.9-6.4 5.3-16.8 7.8-27 6.7-9.5-1-19.5 3.8-30.3 4.8-11.3 1-23.5 5.2-35.9 3-11.3-1.9-23.4-0.4-35.5 1-14.2 1.6-28.9 2.9-41.4-1.3-13.9-4.7-28.4-2.3-41.1-4.2-12.3-1.9-23.8-3-33.4-6.4-9.4-3.4-17.5-7.7-25-8.1-7.5-0.4-12.1-6.5-15.9-9.6-3.7-2.9-4.4-6.6-5.2-9.9-0.7-2.9 0.9-6.3 3.8-8.6 2.6-2 6-4 9.4-7.1 4-3.6 10.2-7 17.4-7.4 5.9-0.4 11.6-4.2 18.5-5.2 7-1.1 15.2-1 22.6-4.5 8.2-3.9 19-0.6 28.7-3.8 10.6-3.4 23.5 1.6 35-2.4 0.8-2.8 3-5.3 3-8.2zm-0.02 0.01c-104.86 2.85-186.38 24.45-186.38 50.68 0 28.16 94.02 51 210 51 115.98 0 210-22.84 210-51 0-26.25-81.64-47.87-186.62-50.69q1.4 4.11 2.98 8.21c76.93 3.07 135.64 19.35 135.64 38.98 0 21.81-72.53 39.5-162 39.5-89.47 0-162-17.69-162-39.5 0-19.61 58.6-35.88 135.43-38.97q1.57-4.1 2.95-8.21z"/>
						</g>
					</g>
				</g>
				<g id="g-root-sy_3_vector_1hfp0duwk6zny-fill">
				</g>
				<g id="g-root-sy_3_vector_1hfp0duwk6zny-stroke">
					<g id="sy_3_vector_1hfp0duwk6zny-stroke">
						<g>
							<path fill-rule="evenodd" class="s1" d="m84 252c4 0.5 8.2-1.2 12 0 12.6 4 25.9 10.9 24 24.1-3.5 24.1-0.6 48.6 0 72.9m-36-97c3.9 0.9 8 0.1 12 0 4.5-0.1 8.4 1.9 12.3 3.4 4.1 1.6 6.9 5.6 9 9.5 1.7 3.4 3 7.2 2.7 11.2-0.7 8 0.2 16 0 23.9-0.2 7.4 1.6 15 0 22.2-1.9 8.7-1.2 18 0 26.8m-36-97h12c13.25 0 24 10.81 24 24.14v72.86"/>
							<path fill-rule="evenodd" class="s2" d="m117 349c-0.2 1.6 1.4 2.5 3 3 1.6 0.5 2.7-1.4 3-3 0.3-1.6-1.3-3-3-3-1.7 0-2.8 1.3-3 3zm0 0c0 1.66 1.34 3 3 3 1.66 0 3-1.34 3-3 0-1.66-1.34-3-3-3-1.66 0-3 1.34-3 3zm0 0c-0.4 1.6 1.3 3 3 3 1.7 0 3.3-1.4 3-3-0.3-1.6-1.3-3-3-3-1.7 0-2.9 1.3-3 3z"/>
						</g>
					</g>
				</g>
				<g id="g-root-cp_2_g-2_1hfp0duwk6znz-fill">
				</g>
				<g id="g-root-cp_2_g-2_1hfp0duwk6znz-stroke">
					<g id="cp_2_g-2_1hfp0duwk6znz-stroke">
						<g>
							<path fill-rule="evenodd" class="s0" d="m255.4 338.59c-23.7 0.9-45.9 2-64.7 6.3-19.3 4.5-36.1 7.4-48.1 12.6-14.3 6-23.4 12.8-22.6 20.1 0.9 7.7 8.8 16.2 25.1 21.1 14.6 4.4 33.7 11.4 57 13.3 23.8 1.8 50.9 3.3 79.9 5.1 20.7 1.2 40.7 0.6 58.7-2.7 18.7-3.4 35.8-6.2 50.8-7.7 14.9-1.4 26.5-7.6 35.6-11.6 11.1-4.8 16.7-11.2 16.9-17.5 0.2-6.1-4.9-13.4-15.6-17-12.9-4.3-30.8-10.2-53.4-15.4-19.3-4.4-42.1-6.5-66.6-6.6 1.8 2.9 1.7 6.9 4 9.4 54.9 2.8 95.2 15.3 95.6 29.6 0.2 6-7.1 12.2-19.9 16.4-12.4 4.2-29.4 8.8-49.9 10.9-16.9 1.7-36 2.8-56.2 3.2-24.4 0.5-47-3.6-66.5-4.6-17.5-0.9-31.7-6.4-42.1-10.5-11.1-4.3-17.8-9.8-17.4-15.4 0.6-7.4 11.3-12.7 28.9-19.5 16.4-6.3 40-9.1 66.6-10.1 1-3.2 2.5-6.3 3.9-9.4zm0 0c-15.1 5.2-31.4 6.3-45.3 3.6-13.8-2.8-26.5 6.3-38.1 6.4-10 0-19.1 3.2-25.7 7.4-8.2 5.2-15.9 7.5-20.6 11.2-3.9 3.1-5.2 6.8-5.7 10.4-0.4 2.7 0.5 6.2 3.3 8 2.8 1.7 5 5.6 9.3 7.3 4.2 1.7 9.8 2.5 14.1 6.4 4.5 4.2 13.3 2 19.8 6 6.2 3.8 14.8 5.1 23.2 4.8 9.7-0.4 20.3 7 30.9 4 9.7-2.6 20.5 2.8 31.4 2.3 9.8-0.5 20.1-1.9 30 0.7 8.3 2.1 17.1-1.2 25.3-0.5 7.7 0.7 15.2-1.7 22.5-1.3 8.1 0.5 16.6 1 23.4-2.2 6.3-3.1 14-0.5 20-2.9 6.1-2.3 12.9-1.3 18.3-3.5 5.5-2.2 10.9-4.1 16-4.2 4.8 0 8.8-2.9 12.6-4.3 3.8-1.3 6.6-4.1 9.9-4.5 3.7-0.5 6.4-3.3 8.2-5.6 1.4-1.9 3.8-2.9 4.1-4.8 0.4-2.1 1.5-3.8 1.7-5.7 0.2-2.1-0.4-4.3-1.9-6.1-1.6-2-3.5-4.3-6.2-6.3-2.8-2.1-5.9-5.7-10.4-6-4.1-0.3-7.8-4.6-12.7-4.9-5.7-0.4-11.2-5.6-17.9-5-5.7 0.5-11.9-1.6-18-3.7-6.7-2.3-14.3-2.5-22.1-3.3-7.6-0.8-16.3 0.8-24-2.4-6.7-2.8-14.8-1.3-22.4-1.3 1.2 3.2 2.9 6.2 4 9.4 13.5-1.7 26.2 3.7 37.8 3.9 11.6 0.2 21.7 3.8 30.1 6.6 8 2.7 14.3 5.9 19.4 8.2 5.8 2.6 9.3 7.2 8.3 10.9-0.9 3.3-1.9 7.4-6.6 9.7-4.5 2.3-9.6 7-17.2 8.1-8 1.2-16.8 5.5-27.4 6.7-11.4 1.4-24.4 7.5-37.9 4.6-11.4-2.4-24.7-2.6-36.9 1.4-11.1 3.6-24 3.6-33.6-1.1-9.4-4.6-20.3-2.6-29.6-3-10.2-0.5-20.7-0.5-27.5-5.3-5.9-4.1-12.9-3.9-18.1-5.7-5.4-1.9-10.5-3.6-12.3-7-2-3.6-5.3-5.5-4.9-8.4 0.5-3.4 2.3-6.7 6.6-9.8 4.4-3.1 10.4-9.2 18.8-8.6 8.1 0.6 18.1-1.4 27.4-6.4 11.3-6.2 27.2-2.6 42.7-4.8 0.8-3.3 2.3-6.4 3.9-9.4zm0.03 0c-76.83 3.09-135.43 19.37-135.43 38.98 0 21.81 72.53 39.5 162 39.5 89.47 0 162-17.69 162-39.5 0-19.63-58.71-35.91-135.64-38.98 1.24 3.17 2.57 6.32 4.03 9.37 54.91 3.29 95.61 15.3 95.61 29.61 0 16.84-56.41 30.5-126 30.5-69.59 0-126-13.66-126-30.5 0-14.3 40.63-26.3 95.46-29.6 1.44-3.05 2.76-6.2 3.97-9.38z"/>
						</g>
					</g>
				</g>
				<g id="g-root-sy_2_vector_1d0hzciwk6xag-fill">
				</g>
				<g id="g-root-sy_2_vector_1d0hzciwk6xag-stroke">
					<g id="sy_2_vector_1d0hzciwk6xag-stroke">
						<g>
							<path fill-rule="evenodd" class="s1" d="m480 108c-5.7-1.2-11.7 0.6-17.4 0-5.2-0.5-10.7 1.4-15.7 0-4.7-1.3-10 1.6-14.6 0-6.5-2.2-14.6 0.4-18.8 5.2-4.2 4.8-11.2 7.3-13 13.3-1.6 5.7-2.2 11.6-4.5 17.5-3.7 9.7-0.9 20.8 0 31.1 0.8 10.2-0.3 20.5 0 30.7 0.3 9 0.6 18.1 0 27.1-0.6 9.7-2.4 19.8 0 29.4 2.1 8.5 1 17.6 0 26.4-1.2 10.8 3.4 22.4 0 32.7-2.9 8.8 1.6 18.6 0 27.6m84-241c-15.9-0.8-31.9-1.5-47.7 0-20 1.9-37.8 16.2-36.3 36 1.8 23.7-0.1 47.4 0 71.1 0.1 23.4 0.2 46.7 0 70.1-0.2 21.3 0.9 42.6 0 63.8m84-241h-47.7c-20.05 0-36.3 16.12-36.3 36v205"/>
							<path fill-rule="evenodd" class="s2" d="m393 349c-0.4 1.6 1.4 3.5 3 3 1.6-0.5 3.5-1.4 3-3-0.5-1.6-1.4-3.1-3-3-1.7 0.1-2.8 1.4-3 3zm0 0c-0.4 1.6 1.4 2.8 3 3 1.6 0.2 2.6-1.4 3-3 0.4-1.6-1.4-2.5-3-3-1.6-0.5-3.5 1.4-3 3zm0 0c0 1.66 1.34 3 3 3 1.66 0 3-1.34 3-3 0-1.66-1.34-3-3-3-1.66 0-3 1.34-3 3z"/>
						</g>
					</g>
				</g>
				<g id="g-root-cp_1_g-1_18koh82wk6y2p-fill">
				</g>
				<g id="g-root-cp_1_g-1_18koh82wk6y2p-stroke">
					<g id="cp_1_g-1_18koh82wk6y2p-stroke">
						<g>
							<path fill-rule="evenodd" class="s0" d="m251.5 347.96c-24.8 3-47.4 3-63.4 9.3-19.3 7.5-32.5 12.5-32.1 20.3 0.3 5.2 5.7 9.4 14.9 14.4 9.4 5.1 24.3 7 41.3 11 19.7 4.6 44 4.9 69.8 5.1 21.7 0.2 42.3-0.9 60.1-3.7 21.3-3.3 38.6-8.2 50.7-12.2 10.1-3.4 15.1-9.3 15.2-14.6 0.2-14.3-40.9-24.4-95.6-29.6 0.6 2.6 1.9 5.1 3.7 7 20.1 0.4 37.3 4.5 49.2 8.8 11.7 4.2 20.3 8.9 18.7 13.8-2 6.1-11.2 11.3-28.6 16.7-18.2 5.6-44.6 7.9-73.4 7.3-29.9-0.6-57.2-1.8-75.4-7.8-16.2-5.4-27.1-10-26.6-16.2 0.5-5.6 8.4-9.8 21.7-14.8 11.5-4.3 27.7-7 46.1-7.8 0.9-2.4 2-5 3.7-7zm0 0c-10.3-2.9-21.3-0.4-30.2 2.9-10 3.6-20.2 2.9-28.6 5.2-7.7 2-14.7 3.5-20 6.3-4.6 2.5-8.6 4.4-11.5 6.5-3.5 2.6-4.8 5.7-5.2 8.7-0.3 2.6 2 4.7 4.1 7.7 1.9 2.9 7.3 3.1 11 6.8 3.8 3.8 11.2 3.4 17.8 6.1 7.8 3.1 17.6 3.3 27.7 5.5 9.1 1.9 19.4 0.9 29.7 3.2 11.1 2.4 23.3 2.1 35.7 1.2 14.1-1.1 28.4 2.6 40.4-1.6 12.9-4.5 26.7-1.3 37.4-4.9 10.3-3.4 20.1-4.1 27.4-7.2 6.7-2.9 12.2-5.3 15.8-8.2 3.3-2.7 6.1-5.8 5-8.6-0.9-2.4-0.7-6.2-3.9-7.6-2.7-1.1-6-2.7-8.8-5.8-3.1-3.3-9-4.6-15-5.7-5.6-0.9-11.6-3.7-18.5-4.5-7.6-0.9-16.1-1.1-24.6-3.8-7.5-2.4-16.5 0.4-24.8-2.2 0.2 2.7 1.8 5.2 3.7 7 9.4 4 19.6 4.6 28 3.6 7.6-0.9 14 4.1 19.9 4.7 6.3 0.7 11.2 3.8 14.4 6.4 3.4 2.8 5.6 5.2 5.6 7.9 0 2.5-1.5 5-4.5 7.1-3 2.1-7.9 2.8-12.4 6.1-4.7 3.5-12 5-19.8 5.2-9.1 0.4-19.2 2.3-30.2 4.2-10.8 1.8-22.8 0.6-35.1 1.4-12.7 0.8-25.8 3.1-36-1.5-12.7-5.8-26.4-2.9-36.6-5.6-8.5-2.3-15.8-4.2-20.7-7.2-5.4-3.2-9.5-6.3-8.7-9.7 0.8-3.5 3.1-8 9.7-10.2 5.8-1.9 13-6.9 22.6-7.3 10.3-0.4 22.3-7.2 35.5-5.1 1.9-1.8 2.4-4.6 3.7-7zm-0.04 0.01c-54.83 3.3-95.46 15.3-95.46 29.6 0 16.84 56.41 30.5 126 30.5 69.59 0 126-13.66 126-30.5 0-14.31-40.7-26.32-95.61-29.61q1.72 3.6 3.72 6.98c39.56 3.31 67.89 12.19 67.89 22.63 0 13.25-45.67 24-102 24-56.33 0-102-10.75-102-24 0-10.43 28.29-19.31 67.8-22.62q1.96-3.38 3.66-6.98z"/>
						</g>
					</g>
				</g>
				<g id="g-root-sy_1_vector_18koh82wk6y2q-fill">
				</g>
				<g id="g-root-sy_1_vector_18koh82wk6y2q-stroke">
					<g id="sy_1_vector_18koh82wk6y2q-stroke">
						<g>
							<path fill-rule="evenodd" class="s1" d="m85 108c7.6 0.6 15.3 1.1 22.8 0 8-1.1 16.4 2.1 24.2 0 6.9-1.9 15 0.6 19.3 5.6 4 4.7 9.8 7.8 12.4 13.4 2.5 5.2 4.4 10.9 4.3 17-0.1 5.5 1.4 11.2 0 16.5-1.5 5.5-0.1 11.4 0 17 0.1 4.8-0.2 9.6 0 14.4q0.3 8.55 0 17.1c-0.1 4.7 1.2 9.5 0 14.1-1.4 5.2-1.8 11 0 16.1 1.8 5.1 1.1 10.9 0 16.2-1.1 5.3-1.4 11 0 16.3 1.2 4.5 0 9.3 0 14 0 4.9 0.5 9.9 0 14.8-0.5 4.9 0.9 9.9 0 14.6-1 5.1 1.3 10.6 0 15.6-1.3 4.9-1.2 10.3 0 15.2 1.4 5.9 0.8 12.1 0 18.1m-83-256c15.6-1.8 31.4-0.7 47 0 19.9 0.9 36 16.1 36 36 0 16.7 1.8 33.5 0 50.1-2 18 1.7 36.3 0 54.4-1.8 19.1 1.5 38.5 0 57.6-1.5 19.2 1.5 38.7 0 57.9m-83-256h47c19.88 0 36 16.12 36 36v220"/>
							<path fill-rule="evenodd" class="s2" d="m165 364c-0.1 1.6 1.4 3.2 3 3 1.6-0.2 3.4-1.4 3-3-0.4-1.6-1.4-2.5-3-3-1.6-0.5-2.9 1.3-3 3zm0 0c0.3 1.6 1.4 2.6 3 3 1.6 0.4 3-1.3 3-3 0-1.7-1.4-2.4-3-3-1.6-0.6-2.5 1.4-3 3zm0 0c0 1.66 1.34 3 3 3 1.66 0 3-1.34 3-3 0-1.66-1.34-3-3-3-1.66 0-3 1.34-3 3z"/>
						</g>
					</g>
				</g>
				<g id="g-root-cp_0_g-0_zp1gz6wk6yvf-fill">
				</g>
				<g id="g-root-cp_0_g-0_zp1gz6wk6yvf-stroke">
					<g id="cp_0_g-0_zp1gz6wk6yvf-stroke">
						<g>
							<path fill-rule="evenodd" class="s0" d="m261.6 320.6c4.3-17.7 10.2-32.6 20.2-31.9 10 0.8 14.8 14.4 20.3 31.7 3.6 11.3 6.2 25 14 34.5 18.3-0.4 33.8 5.7 46 7.8 14.1 2.5 20.7 9.4 21.9 14.9 1.5 7-13 15.4-34.5 18-18.2 2.1-41.6 6.7-67.5 6-19.2-0.5-37.3-0.6-52.6-3.5-13.7-2.5-25.1-5.4-33.9-7.8-10.1-2.8-16.7-8.2-15.5-12.7 2.6-10.1 28.3-19.6 67.8-22.6 6.2-10.5 10.2-23.1 13.8-34.4zm0 0c4.3-8.1 5.2-16.7 8.4-22.5 3.3-5.7 6.9-8.3 11.8-9.4 5.2-1.1 7.1 5.6 12.4 10.5 4.6 4.3 7.4 12.7 7.9 21.2 0.3 5.8 2.7 11.8 5.8 17.1 3.4 5.5 4.1 12.7 8.2 17.4 11.5 5.6 24.9 1 34.2 4.8 10.1 4.2 18.7 6.6 25.1 8.2 6.1 1.6 7.9 6.3 8.6 9.7 0.7 3.2-4 4.9-7.8 9.2-3.9 4.3-12.5 4.3-21.1 7.5-8.8 3.3-20.2 3.2-32.4 5.3-12.3 2.1-26.8 6.1-40.7 2-10.7-3.2-23 3.3-32-1.2-9.9-5-21.1-3.5-30.2-3.8-8.9-0.3-16.4-3.5-22.6-5.7-5.9-2.1-11.4-3.6-13.4-6.8-1.7-2.8-3.7-4.3-3.8-6.5-0.2-3.5 2.6-7.9 8.6-9.7 6.1-1.8 13.8-5.8 24-7.9 10.1-2.1 22-3.7 35.2-5 5.1-4 6.1-11.8 8.3-18.1 1.9-5.5 5.3-10.8 5.5-16.3zm-0.02-0.01c5.56-17.36 10.21-31.86 20.24-31.86 10.02 0 14.67 14.37 20.25 31.64 3.68 11.36 7.76 23.97 14.04 34.58 39.56 3.3 67.89 12.18 67.89 22.62 0 13.26-45.67 24-102 24-56.33 0-102-10.74-102-24 0-10.43 28.29-19.31 67.8-22.62 6.14-10.52 10.16-23.05 13.78-34.36zm54.52 34.31c2.7 5.2 7 9.3 10.8 13.5 4.2 4.7 10.6 6.5 16.9 9.2m-27.7-22.7c5.2 11.3 15.1 19.4 27.7 22.7m-96-22.6c-2 5.7-6.9 9.8-11.1 13.9-4.4 4.2-9.9 8.3-16.5 8.7m27.6-22.65c-6.3 10.71-14.97 19.54-27.59 22.62m95.9-22.62c6.34 10.59 15.07 19.42 27.68 22.62m-95.99-22.57c-7.6 9.8-15 19.3-27.6 22.6"/>
						</g>
					</g>
					<g id="cp_0_g-0_zp1gz6wk6yvf-stroke">
						<g>
							<path fill-rule="evenodd" class="s0" d="m264 246c1.3 9.9 8.1 17.2 18 18 9.9 0.8 17.9-8.1 18-18 0.1-9.9-8.2-19.9-18-18-9.8 1.9-19.4 8.2-18 18zm0 0c-1.8 9.8 8.1 17.9 18 18 9.9 0.1 20.1-8.3 18-18-2.1-9.7-8.7-21.5-18-18-9.3 3.5-15.5 8.4-18 18zm0 0c0 9.94 8.06 18 18 18 9.94 0 18-8.06 18-18 0-9.94-8.06-18-18-18-9.94 0-18 8.06-18 18z"/>
						</g>
					</g>
				</g>
				<g id="g-root-ic_loom_8zmdpdzboumi-fill">
				</g>
				<g id="g-root-ic_loom_8zmdpdzboumi-stroke">
					<g id="ic_loom_8zmdpdzboumi-stroke">
						<g>
							<path fill-rule="evenodd" class="s1" d="m41 108c-0.2 3.8 3.2 7.2 7 7 3.8-0.2 7.4-3.2 7-7-0.4-3.8-3.2-6.8-7-7-3.8-0.2-6.8 3.2-7 7zm7-7c0.2-5.6-0.4-11.4 0-17m-3.4 18c-2.8-5-6-9.8-8.6-14.8m6 17.4c-4.8-3-10.4-5-14.8-8.6m13.8 12c-5.6 0.2-11.4-0.6-17 0m17.94 3.5l-14.72 8.5m17.38-6c-4 4.2-6.2 9.6-8.6 14.8m12-13.8c0.6 5.6 1.8 11.6 0 17m3.5-17.94l8.5 14.72m-5.94-17.28l14.72 8.5m-13.78-12c5.6-1.2 11.4 1 17 0m-18-3.4c5.2-2.6 10-5.8 14.8-8.6m-17.3 5.94l8.5-14.72m-19 20.78c0 3.87 3.13 7 7 7 3.87 0 7-3.13 7-7 0-3.87-3.13-7-7-7-3.87 0-7 3.13-7 7zm7-7v-17m-3.5 17.94l-8.5-14.72m5.94 17.28l-14.72-8.5m13.78 12h-17m18 3.6c-5 2.8-10.6 4.6-14.8 8.4m17.3-5.94l-8.5 14.72m12-13.78v17m3.6-18c4.2 3.8 6.8 9.4 8.4 14.8m-6-17.2c5.4 2 9.4 6.8 14.8 8.4m-13.8-12h17m-17.94-3.5l14.72-8.5m-17.18 6c2.2-5.2 4.2-11 8.4-14.8"/>
						</g>
					</g>
				</g>
				<g id="g-root-ic_puja_zqwmw1zc9xqh-fill">
				</g>
				<g id="g-root-ic_puja_zqwmw1zc9xqh-stroke">
					<g id="ic_puja_zqwmw1zc9xqh-stroke">
						<g>
							<path fill-rule="evenodd" class="s1" d="m529.98 114.66c5-2.98 8.39-7.55 8.39-12.73 0-9.14-9.98-16.3-22.37-16.3-12.39 0-22.38 7.35-22.38 16.3 0 5.18 3.2 9.75 8.4 12.73m27.98-0.06c4.4-3.8 8.2-7.4 8.4-12.6 0.2-9.2-10-15.4-22.4-16.4-12.4-0.8-22.2 7.4-22.4 16.4-0.2 5.2 3.4 9.4 8.4 12.6m17.48-21.62l-3.38 3.58-3.58-3.58m17.4 5.37c0 0-3.38 0.6-5.57 3.39m1-5.18v4.14m-23.67-2.35c0 0 3.38 0.6 5.57 3.39m8.75 10.66c2-0.8 4.6-1.8 4-4-0.6-2-1.8-4.2-4-3.8-2.2 0.2-4.2 1.8-4 3.8 0.2 2.2 1.8 4.4 4 4zm-7 18c-0.8-3-1-6.4 0-9.4 1.2-3.6 3.4-8.2 7-7 3.6 1.4 7.2 3.2 7 7-0.4 3.2 0 6.2 0 9.4m-13.96-0.02v-9.35c0-3.78 3.18-6.96 6.96-6.96 3.78 0 6.96 3.18 6.96 6.96v9.35m-16.9 0h19.88m-24.34-31.98c0 0 2.8 1.2 5.6 3.4m-1-5.2c0.2 1.4-0.4 2.8 0 4m13.2-7.6c-0.8 1.4-2.6 2.2-3.4 3.6-1-1.2-2-2.6-3.4-3.6m17.4 5.4c0 0-4.2 0.2-5.6 3.4m1-5.2c-0.4 1.2 0.4 2.8 0 4m-19.15-4.04v4.14m9.75 11.78c2.2 0 3.98-1.79 3.98-3.98 0-2.2-1.78-3.98-3.98-3.98-2.2 0-3.98 1.78-3.98 3.98 0 2.19 1.78 3.98 3.98 3.98zm-6.96 12.53l12.13-8.56m-12.17 8.55c3.8-3.2 8.2-5.6 12.2-8.6m-15.2 14c6.4 1.6 13.4 0 20 0"/>
						</g>
					</g>
				</g>
				<g id="g-root-ic_root_147z6chzbovf0-fill">
				</g>
				<g id="g-root-ic_root_147z6chzbovf0-stroke">
					<g id="ic_root_147z6chzbovf0-stroke">
						<g>
							<path fill-rule="evenodd" class="s1" d="m25 252.03h46m-2.63-21c0 0-5.24 13.41-13.17 10.32-2-0.74-3.44-2.5-3.78-4.61-0.33-2.1 0.5-4.22 2.17-5.54 1.67-1.32 3.93-1.64 5.9-0.83 2.88 0.86 5.91 1.09 8.88 0.66zm-19.37 10c2.45-3.47 6.4-5.57 10.65-5.67m-30.02-4.33c0 0 5.24 13.41 13.17 10.32 1.99-0.75 3.43-2.51 3.76-4.61 0.33-2.1-0.5-4.21-2.17-5.53-1.66-1.32-3.91-1.64-5.88-0.84-2.88 0.86-5.91 1.08-8.88 0.66zm8.72 4.33c4.25 0.1 8.2 2.2 10.65 5.67v33m8-2v-9c0-1.65-1.34-3-3-3h-13c-2.21 0.01-3.99 1.8-4 4v7m1.4-35.63c4.2 0.6 9.6 1.4 10.6 5.6-3 10.6 1.2 22 0 33m8-7.97h2c1.1 0 2 0.9 2 2v2m-24-5l-4 2m-8-15.03c15.2-2 30.6 0 46 0m-2.6-21c0 0-6.4 15.4-13.2 10.4-2-0.8-3-2.8-3.8-4.6-0.8-2 0.6-4.2 2.2-5.6 1.6-1.6 4-1.6 5.8-0.8 2.8 1.2 6.2 1.6 9 0.6zm-19.4 10c3.2-2.6 6.4-6.4 10.6-5.6m-30-4.4c0 0 5.4 13.6 13.2 10.4 2-0.4 3.4-2.6 3.8-4.6 0.2-2.2-0.2-5-2.2-5.6-2-0.6-3.8-1.2-5.8-0.8-3 0.8-6 0.8-9 0.6zm19.4 35.03h-4c-1.1 0-2 0.9-2 2v4m14-0.03c0.4-3-0.8-6 0-9 0.4-1.6-1.4-2.8-3-3-4.2-0.6-8.6 0.2-13 0-2.2-0.2-3.6 1.8-4 4-0.4 2.4 0.4 4.8 0 7m12-5c-1.4 0-2.8-0.4-4 0-1 0.4-1.8 1-2 2-0.2 1.4-0.4 2.8 0 4m14-6c0.6 0.2 1.4 0.2 2 0 1-0.2 2.2 1 2 2 0 0.6 0 1.4 0 2m-24-5c-1.2 1-3 1-4 2"/>
						</g>
					</g>
				</g>
			</g>
		</g>
	</g>
</svg>